<svg width="84" height="75" viewBox="0 0 84 75" fill="none" xmlns="http://www.w3.org/2000/svg">
<path d="M75.8269 31.048L75.8272 30.6964L75.8317 25.2383C75.8331 23.5971 75.2719 22.0288 74.2197 20.7737L75.8269 31.048ZM75.8269 31.048L76.1578 31.1672C80.3412 32.674 83.3585 36.6097 83.3915 41.2468C83.3856 47.1719 78.561 51.9562 72.5798 51.9513C67.863 51.9474 63.9049 48.9438 62.432 44.7983L62.314 44.466L61.9613 44.4657L30.4263 44.4398L30.0765 44.4395L29.9564 44.768C28.4389 48.9159 24.473 51.9117 19.7955 51.9079C15.118 51.9041 11.157 48.9017 9.64641 44.7513L9.52677 44.4226L9.17697 44.4224L8.4988 44.4218C4.62689 44.4186 1.46615 41.2716 1.4693 37.4392L1.49386 7.53192C1.49701 3.69947 4.66291 0.557696 8.53482 0.560875L53.9723 0.598189C56.0878 0.599926 58.0549 1.51014 59.3881 3.11421L59.3897 3.11618L74.2194 20.7733L75.8269 31.048ZM66.5377 23.039L67.6106 23.0399L66.9213 22.2177L57.8878 11.4437L57.0058 10.3917L57.0047 11.7645L56.9958 22.5311L56.9954 23.0311L57.4954 23.0316L66.5377 23.039ZM8.5295 7.0377L8.0295 7.03729L8.02909 7.53729L8.01681 22.4909L8.0164 22.9909L8.5164 22.9913L23.5869 23.0037L24.0869 23.0041L24.0873 22.5041L24.0996 7.55048L24.1 7.05048L23.6 7.05007L8.5295 7.0377ZM30.6102 37.4631L30.6098 37.9631L31.1098 37.9635L49.9479 37.979L50.4479 37.9794L50.4483 37.4794L50.4729 7.57214L50.4733 7.07214L49.9733 7.07173L31.1352 7.05626L30.6352 7.05585L30.6348 7.55585L30.6225 22.5095L30.6221 23.0095L31.1221 23.0099L41.925 23.0188L41.9196 29.4956L31.1168 29.4867L30.6168 29.4863L30.6164 29.9863L30.6102 37.4631ZM15.5367 41.1892C15.5348 43.5251 17.4562 45.4292 19.8008 45.4311C22.1455 45.433 24.07 43.5321 24.0719 41.1962C24.0738 38.8602 22.1524 36.9562 19.8078 36.9543C17.4631 36.9523 15.5386 38.8532 15.5367 41.1892ZM68.2833 41.2325C68.2814 43.5684 70.2028 45.4725 72.5475 45.4744C74.8921 45.4763 76.8166 43.5754 76.8186 41.2395C76.8205 38.9036 74.8991 36.9995 72.5544 36.9976C70.2098 36.9957 68.2852 38.8966 68.2833 41.2325Z" fill="#711F00" stroke="#711F00"/>
<path d="M45.6496 74.0563L25.6849 64.1309L38.6225 64.1415L39.1225 64.142L39.1229 63.642L39.1284 56.9713L59.0931 66.8968L46.1555 66.8861L45.6555 66.8857L45.6551 67.3857L45.6496 74.0563Z" fill="#711F00" stroke="#711F00"/>
</svg>
