<svg width="54" height="70" viewBox="0 0 54 70" fill="none" xmlns="http://www.w3.org/2000/svg">
<path d="M17.4974 26.1292C13.6879 26.5588 10.9351 29.8786 9.45333 31.8595C5.85498 36.529 3.94949 43.1076 1.62094 48.8379C-0.2419 53.4221 2.68055 59.2374 2.67937 59.2374C4.79712 63.4876 16.2282 71.9769 27.0233 67.939C36.6173 64.3503 29.3527 57.3328 22.5779 57.964C16.748 58.5071 11.1468 56.3571 11.1468 54.7805C11.1468 53.2038 21.732 54.1492 19.6152 51.6024C17.9217 49.565 17.568 47.3522 17.4974 46.5033C17.4974 40.7785 21.965 42.3912 22.5779 43.1076C23.8489 44.5932 24.9064 46.6448 25.7532 48.2012C27.4467 52.4459 34.8566 53.5235 36.7609 53.507C38.6651 53.4906 35.7033 54.1492 33.1622 56.6906C30.6211 59.2319 34.6449 64.3365 38.666 63.0576C43.2608 61.5963 46.4993 60.2532 49.2504 56.6906C54.3308 50.1113 52.849 46.0788 52.6373 44.5932C52.4256 43.1076 47.1335 34.1937 45.44 31.2224C44.0852 28.8454 40.1487 26.1292 38.666 26.1292C32.8094 26.1999 20.3632 25.8059 17.4974 26.1292Z" fill="#711F00" stroke="#711F00" stroke-width="2"/>
<circle cx="27.5" cy="11.5" r="11.5" fill="#711F00"/>
<circle cx="34.5" cy="42.5" r="7.5" fill="#F1DFCE"/>
</svg>
