<svg width="77" height="76" viewBox="0 0 77 76" fill="none" xmlns="http://www.w3.org/2000/svg">
<path d="M58.4636 13.8652L58.4632 14.3652L58.9632 14.3656L75.4621 14.3791L69.8456 70.0412C69.8454 70.043 69.8452 70.0447 69.845 70.0465C69.5289 72.6004 67.3797 74.581 64.7794 74.5788L59.6184 74.5746L59.6405 47.6093C59.6474 39.2395 56.1815 34.1009 51.2198 29.1978L51.2185 29.1965C47.9318 25.9716 42.5344 23.08 36.7668 21.4387L35.8639 14.3466L52.2449 14.3601L52.7449 14.3605L52.7453 13.8605L52.7563 0.542503L58.4745 0.547199L58.4636 13.8652ZM1.44119 71.615L1.44355 68.7372L51.7002 68.7785L51.6979 71.6562C51.6966 73.2536 50.3877 74.567 48.7511 74.5657L4.38319 74.5292C2.74654 74.5279 1.43988 73.2123 1.44119 71.615ZM1.46713 47.2321C1.62449 40.8383 4.69858 36.034 9.2714 32.7929C13.9775 29.4573 20.2787 27.7765 26.6055 27.7817C32.9324 27.7869 39.2308 29.478 43.9314 32.8213C48.4989 36.07 51.5651 40.8793 51.712 47.2733L1.46713 47.2321ZM1.52297 55.0899L51.6773 55.1311L51.6726 60.9548L1.51818 60.9136L1.52297 55.0899Z" fill="#711F00" stroke="#711F00"/>
</svg>
