<svg width="77" height="69" viewBox="0 0 77 69" fill="none" xmlns="http://www.w3.org/2000/svg">
<path d="M12.3777 10.9389L11.8777 10.9385L11.8772 11.4385L11.8741 15.234L11.8737 15.734L12.3737 15.7344L16.1692 15.7376L16.6692 15.738L16.6697 15.238L16.6728 11.4424L16.6732 10.9424L16.1732 10.942L12.3777 10.9389ZM12.3839 3.34785L11.8839 3.34744L11.8835 3.84744L11.8804 7.64297L11.8799 8.14297L12.3799 8.14338L16.1755 8.1465L16.6755 8.14691L16.6759 7.64691L16.679 3.85138L16.6794 3.35138L16.1794 3.35097L12.3839 3.34785ZM28.0656 3.86073L28.066 3.36073L27.566 3.36032L19.9749 3.35408L19.4749 3.35367L19.4745 3.85367L19.4714 7.6492L19.471 8.1492L19.971 8.14961L27.5621 8.15585L28.0621 8.15626L28.0625 7.65626L28.0656 3.86073ZM27.5558 15.7469L28.0558 15.7473L28.0562 15.2473L28.0594 11.4518L28.0598 10.9518L27.5598 10.9514L19.9687 10.9451L19.4687 10.9447L19.4683 11.4447L19.4652 15.2403L19.4648 15.7403L19.9648 15.7407L27.5558 15.7469ZM16.2897 46.9531L16.6437 46.8452L16.644 46.4752L16.6665 19.0335L16.6669 18.5335L16.1669 18.5331L12.3714 18.53L11.8714 18.5296L11.871 19.0296L11.847 48.2551L11.8463 49.148L12.6079 48.6821C13.765 47.9742 14.9781 47.3527 16.2897 46.9531ZM8.92706 51.6919L9.04877 51.5512L9.04892 51.3652L9.07548 19.0273L9.07589 18.5273L8.57589 18.5269L5.28036 18.5241L5.28265 15.7286L8.57818 15.7313L9.07818 15.7317L9.07859 15.2317L9.08171 11.4362L9.08212 10.9362L8.58212 10.9358L5.28659 10.9331L5.28889 8.13756L8.58442 8.14026L9.08442 8.14067L9.08483 7.64067L9.08794 3.84514L9.08835 3.34514L8.58835 3.34473L5.29282 3.34203L5.29512 0.546496L27.5609 0.564781C31.179 0.677298 34.2999 3.93939 34.6558 7.70908L34.6985 8.16171L35.1531 8.16208L72.6084 8.19284L72.6061 10.9884L35.1508 10.9576L34.6966 10.9572L34.6528 11.4093C34.4726 13.2673 33.6009 15.118 32.312 16.472C31.0242 17.825 29.3559 18.6481 27.5826 18.5433L27.5681 18.5425L27.5535 18.5424L19.9625 18.5362L19.4625 18.5358L19.4621 19.0358L19.4401 45.7563L19.4397 46.3186L19.9981 46.2534C20.0295 46.2497 20.0607 46.246 20.0917 46.2424C20.7066 46.1704 21.2568 46.106 21.8376 46.1065C24.3831 46.1086 26.7836 46.6638 28.9667 47.5909L29.4303 47.7878L29.6238 47.3227C32.7057 39.9136 39.9717 34.7348 48.4536 34.7417C59.7159 34.751 68.8216 43.8716 68.8123 55.1339C68.812 55.5558 68.7787 55.9637 68.7445 56.3824C68.7404 56.432 68.7364 56.4817 68.7324 56.5316L6.04232 56.4801C6.66008 54.733 7.66941 53.1457 8.92706 51.6919ZM8.74247 67.8689L2.15683 61.2724L75.6532 61.3328L69.0567 67.9185L8.74247 67.8689Z" fill="#711F00" stroke="#711F00"/>
</svg>
