<svg width="95" height="86" viewBox="0 0 95 86" fill="none" xmlns="http://www.w3.org/2000/svg">
<circle cx="73.7818" cy="11.9591" r="11.1605" transform="rotate(0.0470518 73.7818 11.9591)" fill="#711F00" stroke="#711F00"/>
<path d="M72.2345 27.526C72.73 26.2476 74.5394 26.2491 75.0327 27.5283L90.3784 67.322C90.7575 68.3052 90.0314 69.3626 88.9776 69.3617L58.221 69.3364C57.1672 69.3356 56.4428 68.277 56.8236 67.2944L72.2345 27.526Z" fill="#711F00" stroke="#711F00"/>
<circle cx="22.2525" cy="11.9161" r="11.1605" transform="rotate(0.0470518 22.2525 11.9161)" fill="#711F00" stroke="#711F00"/>
<path d="M23.4686 67.9584C22.9732 69.2368 21.1637 69.2353 20.6704 67.956L5.32476 28.1624C4.94561 27.1792 5.67177 26.1218 6.72553 26.1227L37.4821 26.1479C38.5359 26.1488 39.2603 27.2074 38.8796 28.1899L23.4686 67.9584Z" fill="#711F00" stroke="#711F00"/>
<line x1="47.3304" y1="4.83758" x2="47.277" y2="69.896" stroke="#711F00" stroke-width="4" stroke-linecap="round"/>
</svg>
