<svg width="62" height="70" viewBox="0 0 62 70" fill="none" xmlns="http://www.w3.org/2000/svg">
<path d="M30.6682 30.2984L31.0455 29.9703L30.6689 29.5374L30.2916 29.9696L30.6682 30.2984ZM30.6682 30.2984C31.0455 29.9703 31.0455 29.9704 31.0457 29.9705L31.0461 29.971L31.0477 29.9728L31.0536 29.9797L31.0763 30.0059C31.0962 30.029 31.1254 30.063 31.1634 30.1075C31.2393 30.1965 31.3503 30.3275 31.4912 30.4963C31.7731 30.8339 32.1751 31.3231 32.6571 31.9315C33.6208 33.1478 34.9065 34.843 36.1931 36.7569C37.4786 38.6693 38.7713 40.8094 39.7439 42.9148C40.712 45.0104 41.3853 47.1183 41.3838 48.953C41.3789 54.9551 36.5871 59.8078 30.644 59.803C24.7009 59.7981 19.9171 54.9375 19.922 48.9354C19.9236 47.1007 20.6003 44.9939 21.5718 42.8999C22.5479 40.7961 23.8441 38.6581 25.1328 36.7478C26.4225 34.836 27.711 33.1429 28.6767 31.9282C29.1597 31.3206 29.5625 30.8321 29.8449 30.4949C29.9861 30.3264 30.0973 30.1956 30.1734 30.1067C30.194 30.0827 30.212 30.0617 30.2273 30.0439C30.2404 30.0287 30.2515 30.0158 30.2606 30.0053L30.2834 29.979L30.2893 29.9722L30.2909 29.9704L30.2913 29.9699C30.2915 29.9697 30.2916 29.9696 30.6682 30.2984ZM52.2623 21.8386L52.7121 21.8389L52.7599 21.3918L54.2377 7.5813L54.2968 7.02856L53.7409 7.0281L7.59969 6.99021L7.04243 6.98975L7.10216 7.5438L8.59135 21.3567L8.63943 21.8028L9.08805 21.8031L52.2623 21.8386ZM7.29957 63.472L0.556993 1.07858L60.8274 1.12808L53.9824 63.5104C53.9823 63.5112 53.9822 63.512 53.9821 63.5128C53.5978 66.7226 50.9362 69.1784 47.6878 69.1757L13.5849 69.1477C10.3364 69.1451 7.6788 66.6848 7.29984 63.4743C7.29975 63.4736 7.29966 63.4728 7.29957 63.472Z" fill="#711F00" stroke="#711F00"/>
</svg>
