<svg width="151" height="172" viewBox="0 0 151 172" fill="none" xmlns="http://www.w3.org/2000/svg">
<path d="M5.29063 164H1.34262L7.79863 146.012H11.8546L18.2986 164H14.2906L10.3426 151.376L9.79063 149.312L9.22663 151.376L5.29063 164ZM5.00263 160.22L5.49463 157.544H13.6786L14.1706 160.22H5.00263ZM18.8838 157.46C18.8838 156.148 19.1238 154.964 19.6038 153.908C20.0838 152.852 20.8118 152.016 21.7878 151.4C22.7718 150.776 24.0198 150.464 25.5318 150.464C26.4038 150.464 27.1558 150.536 27.7878 150.68C28.4278 150.824 28.8558 150.972 29.0718 151.124L28.6158 153.92C28.3198 153.736 27.9478 153.588 27.4998 153.476C27.0598 153.364 26.5118 153.308 25.8558 153.308C25.3358 153.308 24.8238 153.428 24.3198 153.668C23.8238 153.908 23.4078 154.304 23.0718 154.856C22.7438 155.408 22.5678 156.148 22.5438 157.076C22.5198 158.076 22.6518 158.896 22.9398 159.536C23.2358 160.168 23.6358 160.636 24.1398 160.94C24.6518 161.236 25.2198 161.384 25.8438 161.384C26.4518 161.384 27.0158 161.32 27.5358 161.192C28.0558 161.064 28.4598 160.928 28.7478 160.784L29.2878 163.028C28.9038 163.412 28.3238 163.704 27.5478 163.904C26.7798 164.096 25.9678 164.192 25.1118 164.192C23.7278 164.192 22.5758 163.9 21.6558 163.316C20.7358 162.724 20.0438 161.92 19.5798 160.904C19.1158 159.888 18.8838 158.74 18.8838 157.46ZM30.8135 157.46C30.8135 156.148 31.0535 154.964 31.5335 153.908C32.0135 152.852 32.7415 152.016 33.7175 151.4C34.7015 150.776 35.9495 150.464 37.4615 150.464C38.3335 150.464 39.0855 150.536 39.7175 150.68C40.3575 150.824 40.7855 150.972 41.0015 151.124L40.5455 153.92C40.2495 153.736 39.8775 153.588 39.4295 153.476C38.9895 153.364 38.4415 153.308 37.7855 153.308C37.2655 153.308 36.7535 153.428 36.2495 153.668C35.7535 153.908 35.3375 154.304 35.0015 154.856C34.6735 155.408 34.4975 156.148 34.4735 157.076C34.4495 158.076 34.5815 158.896 34.8695 159.536C35.1655 160.168 35.5655 160.636 36.0695 160.94C36.5815 161.236 37.1495 161.384 37.7735 161.384C38.3815 161.384 38.9455 161.32 39.4655 161.192C39.9855 161.064 40.3895 160.928 40.6775 160.784L41.2175 163.028C40.8335 163.412 40.2535 163.704 39.4775 163.904C38.7095 164.096 37.8975 164.192 37.0415 164.192C35.6575 164.192 34.5055 163.9 33.5855 163.316C32.6655 162.724 31.9735 161.92 31.5095 160.904C31.0455 159.888 30.8135 158.74 30.8135 157.46ZM49.3192 164.192C47.2632 164.192 45.6872 163.58 44.5912 162.356C43.4952 161.132 42.9472 159.44 42.9472 157.28C42.9472 155.984 43.1952 154.824 43.6912 153.8C44.1952 152.776 44.9232 151.968 45.8752 151.376C46.8272 150.776 47.9912 150.472 49.3672 150.464C50.0632 150.456 50.7272 150.544 51.3592 150.728C51.9912 150.912 52.5552 151.212 53.0512 151.628C53.5472 152.036 53.9432 152.58 54.2392 153.26C54.5432 153.932 54.6992 154.756 54.7072 155.732C54.7072 156.22 54.6992 156.672 54.6832 157.088C54.6672 157.504 54.6312 157.86 54.5752 158.156H44.9152L45.1552 156.176H51.2992C51.3392 155.528 51.3032 154.96 51.1912 154.472C51.0872 153.976 50.8792 153.592 50.5672 153.32C50.2552 153.04 49.8152 152.9 49.2472 152.9C48.6952 152.9 48.2112 153.052 47.7952 153.356C47.3872 153.66 47.0712 154.184 46.8472 154.928C46.6312 155.664 46.5392 156.68 46.5712 157.976C46.6032 158.848 46.7712 159.548 47.0752 160.076C47.3872 160.596 47.8072 160.972 48.3352 161.204C48.8712 161.428 49.4912 161.54 50.1952 161.54C50.5792 161.54 50.9992 161.508 51.4552 161.444C51.9112 161.38 52.3432 161.296 52.7512 161.192C53.1592 161.08 53.4712 160.968 53.6872 160.856L54.2992 162.848C54.0032 163.088 53.5952 163.312 53.0752 163.52C52.5632 163.72 51.9792 163.88 51.3232 164C50.6752 164.128 50.0072 164.192 49.3192 164.192ZM56.8936 163.148L57.3016 160.568C57.4296 160.672 57.6896 160.808 58.0816 160.976C58.4736 161.144 58.9416 161.3 59.4856 161.444C60.0296 161.58 60.5896 161.648 61.1656 161.648C61.8936 161.656 62.4296 161.56 62.7736 161.36C63.1176 161.152 63.2896 160.844 63.2896 160.436C63.2896 160.156 63.1736 159.912 62.9416 159.704C62.7176 159.496 62.4096 159.304 62.0176 159.128C61.6256 158.944 61.1896 158.756 60.7096 158.564C59.8456 158.22 59.1296 157.844 58.5616 157.436C58.0016 157.028 57.5816 156.564 57.3016 156.044C57.0296 155.516 56.8976 154.9 56.9056 154.196C56.9136 153.364 57.1536 152.672 57.6256 152.12C58.1056 151.568 58.7416 151.156 59.5336 150.884C60.3336 150.604 61.2176 150.464 62.1856 150.464C63.1696 150.464 64.0056 150.556 64.6936 150.74C65.3896 150.916 65.8656 151.08 66.1216 151.232L65.7256 153.86C65.5736 153.732 65.3336 153.596 65.0056 153.452C64.6776 153.308 64.3056 153.192 63.8896 153.104C63.4816 153.008 63.0656 152.96 62.6416 152.96C61.8656 152.96 61.2976 153.056 60.9376 153.248C60.5856 153.432 60.4096 153.7 60.4096 154.052C60.4016 154.508 60.5776 154.848 60.9376 155.072C61.3056 155.288 61.8136 155.532 62.4616 155.804C63.4216 156.196 64.2256 156.588 64.8736 156.98C65.5296 157.364 66.0216 157.808 66.3496 158.312C66.6856 158.808 66.8536 159.416 66.8536 160.136C66.8536 161.464 66.3776 162.472 65.4256 163.16C64.4736 163.848 63.1896 164.192 61.5736 164.192C60.8936 164.192 60.2376 164.136 59.6056 164.024C58.9816 163.92 58.4296 163.788 57.9496 163.628C57.4776 163.468 57.1256 163.308 56.8936 163.148ZM68.8936 163.148L69.3016 160.568C69.4296 160.672 69.6896 160.808 70.0816 160.976C70.4736 161.144 70.9416 161.3 71.4856 161.444C72.0296 161.58 72.5896 161.648 73.1656 161.648C73.8936 161.656 74.4296 161.56 74.7736 161.36C75.1176 161.152 75.2896 160.844 75.2896 160.436C75.2896 160.156 75.1736 159.912 74.9416 159.704C74.7176 159.496 74.4096 159.304 74.0176 159.128C73.6256 158.944 73.1896 158.756 72.7096 158.564C71.8456 158.22 71.1296 157.844 70.5616 157.436C70.0016 157.028 69.5816 156.564 69.3016 156.044C69.0296 155.516 68.8976 154.9 68.9056 154.196C68.9136 153.364 69.1536 152.672 69.6256 152.12C70.1056 151.568 70.7416 151.156 71.5336 150.884C72.3336 150.604 73.2176 150.464 74.1856 150.464C75.1696 150.464 76.0056 150.556 76.6936 150.74C77.3896 150.916 77.8656 151.08 78.1216 151.232L77.7256 153.86C77.5736 153.732 77.3336 153.596 77.0056 153.452C76.6776 153.308 76.3056 153.192 75.8896 153.104C75.4816 153.008 75.0656 152.96 74.6416 152.96C73.8656 152.96 73.2976 153.056 72.9376 153.248C72.5856 153.432 72.4096 153.7 72.4096 154.052C72.4016 154.508 72.5776 154.848 72.9376 155.072C73.3056 155.288 73.8136 155.532 74.4616 155.804C75.4216 156.196 76.2256 156.588 76.8736 156.98C77.5296 157.364 78.0216 157.808 78.3496 158.312C78.6856 158.808 78.8536 159.416 78.8536 160.136C78.8536 161.464 78.3776 162.472 77.4256 163.16C76.4736 163.848 75.1896 164.192 73.5736 164.192C72.8936 164.192 72.2376 164.136 71.6056 164.024C70.9816 163.92 70.4296 163.788 69.9496 163.628C69.4776 163.468 69.1256 163.308 68.8936 163.148ZM81.7096 164V150.644H85.3696V164H81.7096ZM83.3536 148.712C82.7616 148.712 82.2616 148.528 81.8536 148.16C81.4456 147.792 81.2416 147.312 81.2416 146.72C81.2416 146.32 81.3496 145.956 81.5656 145.628C81.7896 145.292 82.0776 145.024 82.4296 144.824C82.7896 144.624 83.1736 144.524 83.5816 144.524C84.2376 144.524 84.7496 144.712 85.1176 145.088C85.4936 145.456 85.6816 145.932 85.6816 146.516C85.6816 147.124 85.4496 147.644 84.9856 148.076C84.5296 148.5 83.9856 148.712 83.3536 148.712ZM89.1485 144.536H92.7725V149.624L92.6645 152.336L92.7725 152.408V161.996L89.1485 163.256V144.536ZM94.7525 164.228C94.1445 164.228 93.5285 164.192 92.9045 164.12C92.2885 164.048 91.7125 163.96 91.1765 163.856C90.6485 163.744 90.2045 163.636 89.8445 163.532C89.4845 163.42 89.2525 163.328 89.1485 163.256L92.7725 161.276C92.9325 161.428 93.1885 161.54 93.5405 161.612C93.8925 161.684 94.3245 161.72 94.8365 161.72C95.4125 161.72 95.9325 161.544 96.3965 161.192C96.8605 160.832 97.2245 160.312 97.4885 159.632C97.7605 158.944 97.9005 158.108 97.9085 157.124C97.9165 155.684 97.6765 154.672 97.1885 154.088C96.7085 153.504 96.0565 153.212 95.2325 153.212C94.7045 153.212 94.2205 153.308 93.7805 153.5C93.3485 153.684 93.0125 153.868 92.7725 154.052L92.3285 152.192C92.5125 152 92.7685 151.768 93.0965 151.496C93.4325 151.224 93.8685 150.984 94.4045 150.776C94.9485 150.568 95.6165 150.464 96.4085 150.464C97.3605 150.464 98.2325 150.696 99.0245 151.16C99.8245 151.616 100.465 152.316 100.945 153.26C101.433 154.196 101.677 155.384 101.677 156.824C101.677 158.312 101.393 159.612 100.825 160.724C100.257 161.828 99.4525 162.688 98.4125 163.304C97.3725 163.92 96.1525 164.228 94.7525 164.228ZM104.678 164V150.644H108.338V164H104.678ZM106.322 148.712C105.73 148.712 105.23 148.528 104.822 148.16C104.414 147.792 104.21 147.312 104.21 146.72C104.21 146.32 104.318 145.956 104.534 145.628C104.758 145.292 105.046 145.024 105.398 144.824C105.758 144.624 106.142 144.524 106.55 144.524C107.206 144.524 107.718 144.712 108.086 145.088C108.462 145.456 108.65 145.932 108.65 146.516C108.65 147.124 108.418 147.644 107.954 148.076C107.498 148.5 106.954 148.712 106.322 148.712ZM112.129 164V144.5H115.801V164H112.129ZM119.585 164V150.644H123.245V164H119.585ZM121.229 148.712C120.637 148.712 120.137 148.528 119.729 148.16C119.321 147.792 119.117 147.312 119.117 146.72C119.117 146.32 119.225 145.956 119.441 145.628C119.665 145.292 119.953 145.024 120.305 144.824C120.665 144.624 121.049 144.524 121.457 144.524C122.113 144.524 122.625 144.712 122.993 145.088C123.369 145.456 123.557 145.932 123.557 146.516C123.557 147.124 123.325 147.644 122.861 148.076C122.405 148.5 121.861 148.712 121.229 148.712ZM131.104 164.192C130.288 164.192 129.612 164.06 129.076 163.796C128.548 163.524 128.152 163.096 127.888 162.512C127.632 161.928 127.504 161.156 127.504 160.196V153.14H125.884V151.184C126.476 151.016 126.948 150.856 127.3 150.704C127.66 150.552 127.92 150.288 128.08 149.912C128.16 149.728 128.244 149.512 128.332 149.264C128.428 149.016 128.528 148.748 128.632 148.46C128.736 148.172 128.844 147.88 128.956 147.584H131.164V150.632H134.752V153.14H131.164V158.648C131.164 159.496 131.208 160.116 131.296 160.508C131.384 160.892 131.536 161.14 131.752 161.252C131.968 161.356 132.28 161.408 132.688 161.408C132.896 161.408 133.136 161.384 133.408 161.336C133.68 161.28 133.94 161.212 134.188 161.132C134.436 161.052 134.628 160.968 134.764 160.88L135.244 162.932C135.028 163.124 134.704 163.32 134.272 163.52C133.84 163.712 133.348 163.872 132.796 164C132.243 164.128 131.68 164.192 131.104 164.192ZM137.376 169.736V166.856C137.512 166.904 137.724 166.952 138.012 167C138.308 167.048 138.54 167.072 138.708 167.072C139.092 167.072 139.512 167 139.968 166.856C140.432 166.72 140.864 166.408 141.264 165.92C141.664 165.44 141.968 164.688 142.176 163.664L142.344 164H140.76L136.08 150.632H139.98L142.272 158.372L143.352 162.476H142.848L143.82 158.372L145.692 150.632H149.568L145.272 164.348C144.76 165.948 144.132 167.16 143.388 167.984C142.652 168.808 141.856 169.36 141 169.64C140.76 169.736 140.452 169.812 140.076 169.868C139.708 169.924 139.384 169.952 139.104 169.952C138.984 169.952 138.796 169.94 138.54 169.916C138.284 169.892 138.036 169.864 137.796 169.832C137.564 169.8 137.424 169.768 137.376 169.736Z" fill="#711F00"/>
<path d="M75.625 0C50.9538 0 31 19.9538 31 44.625C31 78.0938 75.625 127.5 75.625 127.5C75.625 127.5 120.25 78.0938 120.25 44.625C120.25 19.9538 100.296 0 75.625 0ZM75.625 60.5625C66.8275 60.5625 59.6875 53.4225 59.6875 44.625C59.6875 35.8275 66.8275 28.6875 75.625 28.6875C84.4225 28.6875 91.5625 35.8275 91.5625 44.625C91.5625 53.4225 84.4225 60.5625 75.625 60.5625Z" fill="#711F00"/>
</svg>
