<svg width="68" height="68" viewBox="0 0 68 68" fill="none" xmlns="http://www.w3.org/2000/svg">
<g clip-path="url(#clip0_370_2705)">
<path d="M62.3103 16.1437L49.2817 5.09766L45.5997 9.34613L58.6283 20.3921L62.3103 16.1437ZM22.3747 9.62936L18.6927 5.38089L5.66406 16.1437L9.34607 20.3921L22.3747 9.62936ZM35.4033 22.658H31.1549V39.6519L44.4667 47.8656L46.7326 44.4668L35.4033 37.6693V22.658ZM33.9872 11.3287C19.8256 11.3287 8.49637 22.658 8.49637 36.8196C8.49637 50.9811 19.8256 62.3104 33.9872 62.3104C48.1487 62.3104 59.478 50.9811 59.478 36.8196C59.478 22.658 48.1487 11.3287 33.9872 11.3287ZM33.9872 56.6458C22.9412 56.6458 14.161 47.8656 14.161 36.8196C14.161 25.7735 22.9412 16.9934 33.9872 16.9934C45.0332 16.9934 53.8134 25.7735 53.8134 36.8196C53.8134 47.8656 45.0332 56.6458 33.9872 56.6458Z" fill="#711F00"/>
</g>
<defs>
<clipPath id="clip0_370_2705">
<rect width="67.9755" height="67.9755" fill="white"/>
</clipPath>
</defs>
</svg>
