<svg width="155" height="182" viewBox="0 0 155 182" fill="none" xmlns="http://www.w3.org/2000/svg">
<path d="M20.6734 174H16.7254L23.1814 156.012H27.2374L33.6814 174H29.6734L25.7254 161.376L25.1734 159.312L24.6094 161.376L20.6734 174ZM20.3854 170.22L20.8774 167.544H29.0614L29.5534 170.22H20.3854ZM35.497 174V160.644H38.821L38.881 162.072C39.193 161.832 39.585 161.588 40.057 161.34C40.537 161.092 41.057 160.884 41.617 160.716C42.177 160.54 42.749 160.448 43.333 160.44C44.253 160.416 45.009 160.564 45.601 160.884C46.193 161.204 46.633 161.748 46.921 162.516C47.209 163.276 47.353 164.3 47.353 165.588V174H43.705V166.128C43.705 165.44 43.649 164.896 43.537 164.496C43.425 164.088 43.225 163.796 42.937 163.62C42.657 163.444 42.257 163.364 41.737 163.38C41.385 163.38 40.965 163.464 40.477 163.632C39.989 163.8 39.545 164.048 39.145 164.376V174H35.497ZM47.197 164.436L46.525 162.168C46.781 161.944 47.145 161.7 47.617 161.436C48.097 161.164 48.649 160.932 49.273 160.74C49.897 160.54 50.557 160.44 51.253 160.44C52.173 160.432 52.945 160.584 53.569 160.896C54.193 161.208 54.665 161.744 54.985 162.504C55.305 163.264 55.465 164.296 55.465 165.6V174H51.793V166.116C51.793 165.428 51.737 164.884 51.625 164.484C51.521 164.076 51.325 163.788 51.037 163.62C50.757 163.444 50.353 163.364 49.825 163.38C49.369 163.38 48.897 163.492 48.409 163.716C47.929 163.932 47.525 164.172 47.197 164.436ZM64.6317 174.192C62.5757 174.192 60.9997 173.58 59.9037 172.356C58.8077 171.132 58.2597 169.44 58.2597 167.28C58.2597 165.984 58.5077 164.824 59.0037 163.8C59.5077 162.776 60.2357 161.968 61.1877 161.376C62.1397 160.776 63.3037 160.472 64.6797 160.464C65.3757 160.456 66.0397 160.544 66.6717 160.728C67.3037 160.912 67.8677 161.212 68.3637 161.628C68.8597 162.036 69.2557 162.58 69.5517 163.26C69.8557 163.932 70.0117 164.756 70.0197 165.732C70.0197 166.22 70.0117 166.672 69.9957 167.088C69.9797 167.504 69.9437 167.86 69.8877 168.156H60.2277L60.4677 166.176H66.6117C66.6517 165.528 66.6157 164.96 66.5037 164.472C66.3997 163.976 66.1917 163.592 65.8797 163.32C65.5677 163.04 65.1277 162.9 64.5597 162.9C64.0077 162.9 63.5237 163.052 63.1077 163.356C62.6997 163.66 62.3837 164.184 62.1597 164.928C61.9437 165.664 61.8517 166.68 61.8837 167.976C61.9157 168.848 62.0837 169.548 62.3877 170.076C62.6997 170.596 63.1197 170.972 63.6477 171.204C64.1837 171.428 64.8037 171.54 65.5077 171.54C65.8917 171.54 66.3117 171.508 66.7677 171.444C67.2237 171.38 67.6557 171.296 68.0637 171.192C68.4717 171.08 68.7837 170.968 68.9997 170.856L69.6117 172.848C69.3157 173.088 68.9077 173.312 68.3877 173.52C67.8757 173.72 67.2917 173.88 66.6357 174C65.9877 174.128 65.3197 174.192 64.6317 174.192ZM72.9501 174V160.644H76.2741L76.3341 162.144C76.6381 161.888 77.0261 161.632 77.4981 161.376C77.9701 161.112 78.4901 160.892 79.0581 160.716C79.6341 160.54 80.2141 160.448 80.7981 160.44C82.1901 160.408 83.2141 160.78 83.8701 161.556C84.5261 162.324 84.8541 163.676 84.8541 165.612V174H81.1821V166.128C81.1821 165.088 81.0461 164.36 80.7741 163.944C80.5021 163.528 79.9701 163.336 79.1781 163.368C78.9381 163.376 78.6661 163.42 78.3621 163.5C78.0661 163.572 77.7621 163.684 77.4501 163.836C77.1461 163.98 76.8621 164.16 76.5981 164.376V174H72.9501ZM88.5143 174V160.644H92.1743V174H88.5143ZM90.1583 158.712C89.5663 158.712 89.0663 158.528 88.6583 158.16C88.2503 157.792 88.0463 157.312 88.0463 156.72C88.0463 156.32 88.1543 155.956 88.3703 155.628C88.5943 155.292 88.8823 155.024 89.2343 154.824C89.5943 154.624 89.9783 154.524 90.3863 154.524C91.0423 154.524 91.5543 154.712 91.9223 155.088C92.2983 155.456 92.4863 155.932 92.4863 156.516C92.4863 157.124 92.2543 157.644 91.7903 158.076C91.3343 158.5 90.7903 158.712 90.1583 158.712ZM100.033 174.192C99.2172 174.192 98.5412 174.06 98.0052 173.796C97.4772 173.524 97.0812 173.096 96.8172 172.512C96.5612 171.928 96.4332 171.156 96.4332 170.196V163.14H94.8132V161.184C95.4052 161.016 95.8772 160.856 96.2292 160.704C96.5892 160.552 96.8492 160.288 97.0092 159.912C97.0892 159.728 97.1732 159.512 97.2612 159.264C97.3572 159.016 97.4572 158.748 97.5612 158.46C97.6652 158.172 97.7732 157.88 97.8852 157.584H100.093V160.632H103.681V163.14H100.093V168.648C100.093 169.496 100.137 170.116 100.225 170.508C100.313 170.892 100.465 171.14 100.681 171.252C100.897 171.356 101.209 171.408 101.617 171.408C101.825 171.408 102.065 171.384 102.337 171.336C102.609 171.28 102.869 171.212 103.117 171.132C103.365 171.052 103.557 170.968 103.693 170.88L104.173 172.932C103.957 173.124 103.633 173.32 103.201 173.52C102.769 173.712 102.277 173.872 101.725 174C101.173 174.128 100.609 174.192 100.033 174.192ZM106.725 174V160.644H110.385V174H106.725ZM108.369 158.712C107.777 158.712 107.277 158.528 106.869 158.16C106.461 157.792 106.257 157.312 106.257 156.72C106.257 156.32 106.365 155.956 106.581 155.628C106.805 155.292 107.093 155.024 107.445 154.824C107.805 154.624 108.189 154.524 108.597 154.524C109.253 154.524 109.765 154.712 110.133 155.088C110.509 155.456 110.697 155.932 110.697 156.516C110.697 157.124 110.465 157.644 110.001 158.076C109.545 158.5 109.001 158.712 108.369 158.712ZM119.78 174.192C117.724 174.192 116.148 173.58 115.052 172.356C113.956 171.132 113.408 169.44 113.408 167.28C113.408 165.984 113.656 164.824 114.152 163.8C114.656 162.776 115.384 161.968 116.336 161.376C117.288 160.776 118.452 160.472 119.828 160.464C120.524 160.456 121.188 160.544 121.82 160.728C122.452 160.912 123.016 161.212 123.512 161.628C124.008 162.036 124.404 162.58 124.7 163.26C125.004 163.932 125.16 164.756 125.168 165.732C125.168 166.22 125.16 166.672 125.144 167.088C125.128 167.504 125.092 167.86 125.036 168.156H115.376L115.616 166.176H121.76C121.8 165.528 121.764 164.96 121.652 164.472C121.548 163.976 121.34 163.592 121.028 163.32C120.716 163.04 120.276 162.9 119.708 162.9C119.156 162.9 118.672 163.052 118.256 163.356C117.848 163.66 117.532 164.184 117.308 164.928C117.092 165.664 117 166.68 117.032 167.976C117.064 168.848 117.232 169.548 117.536 170.076C117.848 170.596 118.268 170.972 118.796 171.204C119.332 171.428 119.952 171.54 120.656 171.54C121.04 171.54 121.46 171.508 121.916 171.444C122.372 171.38 122.804 171.296 123.212 171.192C123.62 171.08 123.932 170.968 124.148 170.856L124.76 172.848C124.464 173.088 124.056 173.312 123.536 173.52C123.024 173.72 122.44 173.88 121.784 174C121.136 174.128 120.468 174.192 119.78 174.192ZM127.355 173.148L127.763 170.568C127.891 170.672 128.151 170.808 128.543 170.976C128.935 171.144 129.403 171.3 129.947 171.444C130.491 171.58 131.051 171.648 131.627 171.648C132.355 171.656 132.891 171.56 133.235 171.36C133.579 171.152 133.751 170.844 133.751 170.436C133.751 170.156 133.635 169.912 133.403 169.704C133.179 169.496 132.871 169.304 132.479 169.128C132.087 168.944 131.651 168.756 131.171 168.564C130.307 168.22 129.591 167.844 129.023 167.436C128.463 167.028 128.043 166.564 127.763 166.044C127.491 165.516 127.359 164.9 127.367 164.196C127.375 163.364 127.615 162.672 128.087 162.12C128.567 161.568 129.203 161.156 129.995 160.884C130.795 160.604 131.679 160.464 132.647 160.464C133.631 160.464 134.467 160.556 135.155 160.74C135.851 160.916 136.327 161.08 136.583 161.232L136.187 163.86C136.035 163.732 135.795 163.596 135.467 163.452C135.139 163.308 134.767 163.192 134.351 163.104C133.943 163.008 133.527 162.96 133.103 162.96C132.327 162.96 131.759 163.056 131.399 163.248C131.047 163.432 130.871 163.7 130.871 164.052C130.863 164.508 131.039 164.848 131.399 165.072C131.767 165.288 132.275 165.532 132.923 165.804C133.883 166.196 134.687 166.588 135.335 166.98C135.991 167.364 136.483 167.808 136.811 168.312C137.147 168.808 137.315 169.416 137.315 170.136C137.315 171.464 136.839 172.472 135.887 173.16C134.935 173.848 133.651 174.192 132.035 174.192C131.355 174.192 130.699 174.136 130.067 174.024C129.443 173.92 128.891 173.788 128.411 173.628C127.939 173.468 127.587 173.308 127.355 173.148Z" fill="#711F00"/>
<g clip-path="url(#clip0_340_2611)">
<path d="M25.8327 116.25V135.625H45.2077V116.25H109.791V135.625H129.166V96.875H25.8327V116.25ZM122.708 64.5833H142.083V83.9583H122.708V64.5833ZM12.916 64.5833H32.291V83.9583H12.916V64.5833ZM109.791 83.9583H45.2077V32.2917C45.2077 25.1875 51.0202 19.375 58.1243 19.375H96.8743C103.979 19.375 109.791 25.1875 109.791 32.2917V83.9583Z" fill="#711F00"/>
</g>
<defs>
<clipPath id="clip0_340_2611">
<rect width="155" height="155" fill="white"/>
</clipPath>
</defs>
</svg>
