<svg width="25" height="32" viewBox="0 0 25 32" fill="none" xmlns="http://www.w3.org/2000/svg">
<path d="M0.333984 26.4656C0.333984 29.5031 1.89492 31.0781 4.9043 31.0781H19.8809C22.8902 31.0781 24.4512 29.5031 24.4512 26.4656V5.24531C24.4512 2.22188 22.8902 0.632812 19.8809 0.632812H4.9043C1.89492 0.632812 0.333984 2.22188 0.333984 5.24531V26.4656ZM6.12773 8.55C5.38242 8.55 4.76367 7.93125 4.76367 7.18594C4.76367 6.45469 5.38242 5.82188 6.12773 5.82188C6.87305 5.82188 7.4918 6.44063 7.4918 7.18594C7.4918 7.94531 6.87305 8.55 6.12773 8.55ZM10.2621 8.15625C9.72773 8.15625 9.2918 7.72031 9.2918 7.18594C9.2918 6.66563 9.72773 6.22969 10.2621 6.22969H19.0652C19.5855 6.22969 20.0215 6.66563 20.0215 7.18594C20.0215 7.72031 19.5855 8.15625 19.0652 8.15625H10.2621ZM6.12773 12.9094C5.36836 12.9094 4.76367 12.2906 4.76367 11.5453C4.76367 10.8 5.36836 10.1953 6.12773 10.1953C6.87305 10.1953 7.4918 10.7859 7.4918 11.5453C7.4918 12.2906 6.87305 12.9094 6.12773 12.9094ZM10.2621 12.5016C9.71367 12.5016 9.2918 12.0797 9.2918 11.5453C9.2918 11.0109 9.71367 10.5891 10.2621 10.5891H19.0652C19.5996 10.5891 20.0215 11.0109 20.0215 11.5453C20.0215 12.0797 19.5996 12.5016 19.0652 12.5016H10.2621ZM6.12773 17.4797C5.38242 17.4797 4.76367 16.8469 4.76367 16.1156C4.76367 15.3703 5.38242 14.7516 6.12773 14.7516C6.87305 14.7516 7.4918 15.3562 7.4918 16.1156C7.4918 16.8609 6.87305 17.4797 6.12773 17.4797ZM10.2621 17.0578C9.72773 17.0578 9.2918 16.6359 9.2918 16.1156C9.2918 15.5813 9.71367 15.1594 10.2621 15.1594H19.0652C19.5996 15.1594 20.0215 15.5813 20.0215 16.1156C20.0215 16.6359 19.5855 17.0578 19.0652 17.0578H10.2621Z" fill="white"/>
</svg>
