<svg width="109" height="165" viewBox="0 0 109 165" fill="none" xmlns="http://www.w3.org/2000/svg">
<path d="M16.9493 157V139.168H27.8333V142H20.6933V146.476H26.1053V149.248H20.6933V154.108H28.5893V157H16.9493ZM34.6606 157.192L29.5246 143.632H33.4486L35.5246 150.148L36.8206 154.948H36.0646L37.2526 150.148L39.2566 143.632H43.1206L38.0566 157.192H34.6606ZM50.452 157.192C48.396 157.192 46.82 156.58 45.724 155.356C44.628 154.132 44.08 152.44 44.08 150.28C44.08 148.984 44.328 147.824 44.824 146.8C45.328 145.776 46.056 144.968 47.008 144.376C47.96 143.776 49.124 143.472 50.5 143.464C51.196 143.456 51.86 143.544 52.492 143.728C53.124 143.912 53.688 144.212 54.184 144.628C54.68 145.036 55.076 145.58 55.372 146.26C55.676 146.932 55.832 147.756 55.84 148.732C55.84 149.22 55.832 149.672 55.816 150.088C55.8 150.504 55.764 150.86 55.708 151.156H46.048L46.288 149.176H52.432C52.472 148.528 52.436 147.96 52.324 147.472C52.22 146.976 52.012 146.592 51.7 146.32C51.388 146.04 50.948 145.9 50.38 145.9C49.828 145.9 49.344 146.052 48.928 146.356C48.52 146.66 48.204 147.184 47.98 147.928C47.764 148.664 47.672 149.68 47.704 150.976C47.736 151.848 47.904 152.548 48.208 153.076C48.52 153.596 48.94 153.972 49.468 154.204C50.004 154.428 50.624 154.54 51.328 154.54C51.712 154.54 52.132 154.508 52.588 154.444C53.044 154.38 53.476 154.296 53.884 154.192C54.292 154.08 54.604 153.968 54.82 153.856L55.432 155.848C55.136 156.088 54.728 156.312 54.208 156.52C53.696 156.72 53.112 156.88 52.456 157C51.808 157.128 51.14 157.192 50.452 157.192ZM58.7704 157V143.644H62.0944L62.1544 145.144C62.4584 144.888 62.8464 144.632 63.3184 144.376C63.7904 144.112 64.3104 143.892 64.8784 143.716C65.4544 143.54 66.0344 143.448 66.6184 143.44C68.0104 143.408 69.0344 143.78 69.6904 144.556C70.3464 145.324 70.6744 146.676 70.6744 148.612V157H67.0024V149.128C67.0024 148.088 66.8664 147.36 66.5944 146.944C66.3224 146.528 65.7904 146.336 64.9984 146.368C64.7584 146.376 64.4864 146.42 64.1824 146.5C63.8864 146.572 63.5824 146.684 63.2704 146.836C62.9664 146.98 62.6824 147.16 62.4184 147.376V157H58.7704ZM78.3066 157.192C77.4906 157.192 76.8146 157.06 76.2786 156.796C75.7506 156.524 75.3546 156.096 75.0906 155.512C74.8346 154.928 74.7066 154.156 74.7066 153.196V146.14H73.0866V144.184C73.6786 144.016 74.1506 143.856 74.5026 143.704C74.8626 143.552 75.1226 143.288 75.2826 142.912C75.3626 142.728 75.4466 142.512 75.5346 142.264C75.6306 142.016 75.7306 141.748 75.8346 141.46C75.9386 141.172 76.0466 140.88 76.1586 140.584H78.3666V143.632H81.9546V146.14H78.3666V151.648C78.3666 152.496 78.4106 153.116 78.4986 153.508C78.5866 153.892 78.7386 154.14 78.9546 154.252C79.1706 154.356 79.4826 154.408 79.8906 154.408C80.0986 154.408 80.3386 154.384 80.6106 154.336C80.8826 154.28 81.1426 154.212 81.3906 154.132C81.6386 154.052 81.8306 153.968 81.9666 153.88L82.4466 155.932C82.2306 156.124 81.9066 156.32 81.4746 156.52C81.0426 156.712 80.5506 156.872 79.9986 157C79.4466 157.128 78.8826 157.192 78.3066 157.192ZM84.1827 156.148L84.5907 153.568C84.7187 153.672 84.9787 153.808 85.3707 153.976C85.7627 154.144 86.2307 154.3 86.7747 154.444C87.3187 154.58 87.8787 154.648 88.4547 154.648C89.1827 154.656 89.7187 154.56 90.0627 154.36C90.4067 154.152 90.5787 153.844 90.5787 153.436C90.5787 153.156 90.4627 152.912 90.2307 152.704C90.0067 152.496 89.6987 152.304 89.3067 152.128C88.9147 151.944 88.4787 151.756 87.9987 151.564C87.1347 151.22 86.4187 150.844 85.8507 150.436C85.2907 150.028 84.8707 149.564 84.5907 149.044C84.3187 148.516 84.1867 147.9 84.1947 147.196C84.2027 146.364 84.4427 145.672 84.9147 145.12C85.3947 144.568 86.0307 144.156 86.8227 143.884C87.6227 143.604 88.5067 143.464 89.4747 143.464C90.4587 143.464 91.2947 143.556 91.9827 143.74C92.6787 143.916 93.1547 144.08 93.4107 144.232L93.0147 146.86C92.8627 146.732 92.6227 146.596 92.2947 146.452C91.9667 146.308 91.5947 146.192 91.1787 146.104C90.7707 146.008 90.3547 145.96 89.9307 145.96C89.1547 145.96 88.5867 146.056 88.2267 146.248C87.8747 146.432 87.6987 146.7 87.6987 147.052C87.6907 147.508 87.8667 147.848 88.2267 148.072C88.5947 148.288 89.1027 148.532 89.7507 148.804C90.7107 149.196 91.5147 149.588 92.1627 149.98C92.8187 150.364 93.3107 150.808 93.6387 151.312C93.9747 151.808 94.1427 152.416 94.1427 153.136C94.1427 154.464 93.6667 155.472 92.7147 156.16C91.7627 156.848 90.4787 157.192 88.8627 157.192C88.1827 157.192 87.5267 157.136 86.8947 157.024C86.2707 156.92 85.7187 156.788 85.2387 156.628C84.7667 156.468 84.4147 156.308 84.1827 156.148Z" fill="#711F00"/>
<path d="M84.7778 66.55H54.5V96.8H84.7778V66.55ZM78.7222 0V12.1H30.2778V0H18.1667V12.1H12.1111C5.38944 12.1 0.0605555 17.545 0.0605555 24.2L0 108.9C0 115.555 5.38944 121 12.1111 121H96.8889C103.55 121 109 115.555 109 108.9V24.2C109 17.545 103.55 12.1 96.8889 12.1H90.8333V0H78.7222ZM96.8889 108.9H12.1111V42.35H96.8889V108.9Z" fill="#711F00"/>
</svg>
