<svg width="60" height="60" viewBox="0 0 60 60" fill="none" xmlns="http://www.w3.org/2000/svg">
<g clip-path="url(#clip0_370_2711)">
<path d="M45.0745 57.3787H49.2175C51.314 57.3787 53.0361 55.7814 53.2856 53.7349L57.4037 12.6041H44.9247V2.49609H40.008V12.6041H27.6038L28.3526 18.4443C32.6204 19.6173 36.6137 21.7387 39.0097 24.0848C42.6036 27.6288 45.0745 31.2976 45.0745 37.2876V57.3787ZM2.49609 54.8829V52.4121H40.008V54.8829C40.008 56.2556 38.8849 57.3787 37.4872 57.3787H5.01685C3.6192 57.3787 2.49609 56.2556 2.49609 54.8829ZM40.008 37.4123C40.008 17.4459 2.49609 17.4459 2.49609 37.4123H40.008ZM2.54601 42.4289H39.983V47.4205H2.54601V42.4289Z" fill="#711F00"/>
</g>
<defs>
<clipPath id="clip0_370_2711">
<rect width="59.8992" height="59.8992" fill="white"/>
</clipPath>
</defs>
</svg>
