<svg width="162" height="203" viewBox="0 0 162 203" fill="none" xmlns="http://www.w3.org/2000/svg">
<g filter="url(#filter0_d_299_15260)">
<path d="M37.4271 179V164.048H32.3511V161.168H46.2831V164.048H41.2071V179H37.4271ZM48.6979 179V165.644H52.3579V179H48.6979ZM50.3419 163.712C49.7499 163.712 49.2499 163.528 48.8419 163.16C48.4339 162.792 48.2299 162.312 48.2299 161.72C48.2299 161.32 48.3379 160.956 48.5539 160.628C48.7779 160.292 49.0659 160.024 49.4179 159.824C49.7779 159.624 50.1619 159.524 50.5699 159.524C51.2259 159.524 51.7379 159.712 52.1059 160.088C52.4819 160.456 52.6699 160.932 52.6699 161.516C52.6699 162.124 52.4379 162.644 51.9739 163.076C51.5179 163.5 50.9739 163.712 50.3419 163.712ZM56.1728 179V165.644H59.4968L59.5568 167.072C59.8688 166.832 60.2608 166.588 60.7328 166.34C61.2128 166.092 61.7328 165.884 62.2928 165.716C62.8528 165.54 63.4248 165.448 64.0088 165.44C64.9288 165.416 65.6848 165.564 66.2768 165.884C66.8688 166.204 67.3088 166.748 67.5968 167.516C67.8848 168.276 68.0288 169.3 68.0288 170.588V179H64.3808V171.128C64.3808 170.44 64.3248 169.896 64.2128 169.496C64.1008 169.088 63.9008 168.796 63.6128 168.62C63.3328 168.444 62.9328 168.364 62.4128 168.38C62.0608 168.38 61.6408 168.464 61.1528 168.632C60.6648 168.8 60.2208 169.048 59.8208 169.376V179H56.1728ZM67.8728 169.436L67.2008 167.168C67.4568 166.944 67.8208 166.7 68.2928 166.436C68.7728 166.164 69.3248 165.932 69.9488 165.74C70.5728 165.54 71.2328 165.44 71.9288 165.44C72.8488 165.432 73.6208 165.584 74.2448 165.896C74.8688 166.208 75.3408 166.744 75.6608 167.504C75.9808 168.264 76.1408 169.296 76.1408 170.6V179H72.4688V171.116C72.4688 170.428 72.4128 169.884 72.3008 169.484C72.1968 169.076 72.0008 168.788 71.7128 168.62C71.4328 168.444 71.0288 168.364 70.5008 168.38C70.0448 168.38 69.5728 168.492 69.0848 168.716C68.6048 168.932 68.2008 169.172 67.8728 169.436ZM79.7995 179V165.644H83.4595V179H79.7995ZM81.4435 163.712C80.8515 163.712 80.3515 163.528 79.9435 163.16C79.5355 162.792 79.3315 162.312 79.3315 161.72C79.3315 161.32 79.4395 160.956 79.6555 160.628C79.8795 160.292 80.1675 160.024 80.5195 159.824C80.8795 159.624 81.2635 159.524 81.6715 159.524C82.3275 159.524 82.8395 159.712 83.2075 160.088C83.5835 160.456 83.7715 160.932 83.7715 161.516C83.7715 162.124 83.5395 162.644 83.0755 163.076C82.6195 163.5 82.0755 163.712 81.4435 163.712ZM87.2743 179V165.644H90.5983L90.6583 167.144C90.9623 166.888 91.3503 166.632 91.8223 166.376C92.2943 166.112 92.8143 165.892 93.3823 165.716C93.9583 165.54 94.5383 165.448 95.1223 165.44C96.5143 165.408 97.5383 165.78 98.1943 166.556C98.8503 167.324 99.1783 168.676 99.1783 170.612V179H95.5063V171.128C95.5063 170.088 95.3703 169.36 95.0983 168.944C94.8263 168.528 94.2943 168.336 93.5023 168.368C93.2623 168.376 92.9903 168.42 92.6863 168.5C92.3903 168.572 92.0863 168.684 91.7743 168.836C91.4703 168.98 91.1863 169.16 90.9223 169.376V179H87.2743ZM108.131 185.048C106.027 185.032 104.459 184.676 103.427 183.98C102.403 183.292 101.891 182.312 101.891 181.04C101.891 180.568 102.003 180.14 102.227 179.756C102.451 179.38 102.755 179.06 103.139 178.796C103.531 178.524 103.975 178.316 104.471 178.172L106.559 178.364C106.423 178.476 106.263 178.616 106.079 178.784C105.903 178.952 105.747 179.168 105.611 179.432C105.475 179.696 105.407 180.032 105.407 180.44C105.407 180.896 105.491 181.312 105.659 181.688C105.835 182.064 106.131 182.364 106.547 182.588C106.971 182.812 107.559 182.924 108.311 182.924C108.935 182.924 109.503 182.852 110.015 182.708C110.535 182.572 110.943 182.356 111.239 182.06C111.543 181.772 111.695 181.396 111.695 180.932C111.695 180.532 111.623 180.18 111.479 179.876C111.343 179.58 111.067 179.348 110.651 179.18C110.243 179.012 109.639 178.928 108.839 178.928H106.619C106.315 178.928 106.047 178.908 105.815 178.868C105.583 178.82 105.355 178.772 105.131 178.724C104.979 178.684 104.871 178.644 104.807 178.604C104.751 178.556 104.639 178.516 104.471 178.484C103.871 178.316 103.443 178.072 103.187 177.752C102.931 177.424 102.803 177.02 102.803 176.54C102.811 176.228 102.879 175.904 103.007 175.568C103.135 175.224 103.355 174.896 103.667 174.584C103.979 174.264 104.403 173.992 104.939 173.768L107.003 174.14C106.683 174.26 106.431 174.452 106.247 174.716C106.071 174.972 105.983 175.228 105.983 175.484C105.983 175.876 106.103 176.148 106.343 176.3C106.591 176.444 107.015 176.516 107.615 176.516H110.027C111.059 176.516 111.911 176.616 112.583 176.816C113.255 177.016 113.783 177.292 114.167 177.644C114.551 177.988 114.819 178.38 114.971 178.82C115.131 179.252 115.211 179.704 115.211 180.176C115.211 180.976 115.019 181.68 114.635 182.288C114.251 182.904 113.727 183.416 113.063 183.824C112.399 184.232 111.643 184.54 110.795 184.748C109.947 184.956 109.059 185.056 108.131 185.048ZM107.939 174.476C106.835 174.476 105.855 174.3 104.999 173.948C104.151 173.596 103.487 173.088 103.007 172.424C102.527 171.76 102.287 170.968 102.287 170.048C102.287 169.048 102.523 168.208 102.995 167.528C103.467 166.848 104.127 166.336 104.975 165.992C105.831 165.648 106.827 165.472 107.963 165.464C109.107 165.456 110.111 165.62 110.975 165.956C111.847 166.292 112.523 166.796 113.003 167.468C113.491 168.132 113.735 168.956 113.735 169.94C113.735 170.916 113.511 171.744 113.063 172.424C112.615 173.096 111.959 173.608 111.095 173.96C110.231 174.304 109.179 174.476 107.939 174.476ZM107.987 172.424C108.691 172.424 109.255 172.264 109.679 171.944C110.111 171.616 110.327 170.972 110.327 170.012C110.327 169.236 110.139 168.652 109.763 168.26C109.395 167.86 108.831 167.66 108.071 167.66C107.623 167.66 107.231 167.728 106.895 167.864C106.559 167.992 106.295 168.224 106.103 168.56C105.919 168.896 105.827 169.368 105.827 169.976C105.827 170.64 105.991 171.216 106.319 171.704C106.647 172.184 107.203 172.424 107.987 172.424ZM112.163 168.236L111.587 166.724C111.747 166.508 112.071 166.268 112.559 166.004C113.047 165.732 113.619 165.596 114.275 165.596H115.835V168.236H112.163ZM117.257 178.148L117.665 175.568C117.793 175.672 118.053 175.808 118.445 175.976C118.837 176.144 119.305 176.3 119.849 176.444C120.393 176.58 120.953 176.648 121.529 176.648C122.257 176.656 122.793 176.56 123.137 176.36C123.481 176.152 123.653 175.844 123.653 175.436C123.653 175.156 123.537 174.912 123.305 174.704C123.081 174.496 122.773 174.304 122.381 174.128C121.989 173.944 121.553 173.756 121.073 173.564C120.209 173.22 119.493 172.844 118.925 172.436C118.365 172.028 117.945 171.564 117.665 171.044C117.393 170.516 117.261 169.9 117.269 169.196C117.277 168.364 117.517 167.672 117.989 167.12C118.469 166.568 119.105 166.156 119.897 165.884C120.697 165.604 121.581 165.464 122.549 165.464C123.533 165.464 124.369 165.556 125.057 165.74C125.753 165.916 126.229 166.08 126.485 166.232L126.089 168.86C125.937 168.732 125.697 168.596 125.369 168.452C125.041 168.308 124.669 168.192 124.253 168.104C123.845 168.008 123.429 167.96 123.005 167.96C122.229 167.96 121.661 168.056 121.301 168.248C120.949 168.432 120.773 168.7 120.773 169.052C120.765 169.508 120.941 169.848 121.301 170.072C121.669 170.288 122.177 170.532 122.825 170.804C123.785 171.196 124.589 171.588 125.237 171.98C125.893 172.364 126.385 172.808 126.713 173.312C127.049 173.808 127.217 174.416 127.217 175.136C127.217 176.464 126.741 177.472 125.789 178.16C124.837 178.848 123.553 179.192 121.937 179.192C121.257 179.192 120.601 179.136 119.969 179.024C119.345 178.92 118.793 178.788 118.313 178.628C117.841 178.468 117.489 178.308 117.257 178.148Z" fill="#711F00"/>
<path d="M141 45.3823L112.94 22L105.071 31.2681L133.131 54.6504L141 45.3823ZM54.868 31.2681L47.06 22L19 45.3217L26.869 54.5899L54.868 31.2681ZM83.05 59.1936H73.9V95.5392L102.875 112.803L107.45 105.353L83.05 90.996V59.1936ZM80 34.9633C49.683 34.9633 25.1 59.3754 25.1 89.4816C25.1 119.588 49.622 144 80 144C110.317 144 134.9 119.588 134.9 89.4816C134.9 59.3754 110.317 34.9633 80 34.9633ZM80 131.885C56.393 131.885 37.3 112.925 37.3 89.4816C37.3 66.0387 56.393 47.0785 80 47.0785C103.607 47.0785 122.7 66.0387 122.7 89.4816C122.7 112.925 103.607 131.885 80 131.885Z" fill="#711F00"/>
</g>
<defs>
<filter id="filter0_d_299_15260" x="0.700001" y="0.700001" width="160.6" height="201.659" filterUnits="userSpaceOnUse" color-interpolation-filters="sRGB">
<feFlood flood-opacity="0" result="BackgroundImageFix"/>
<feColorMatrix in="SourceAlpha" type="matrix" values="0 0 0 0 0 0 0 0 0 0 0 0 0 0 0 0 0 0 127 0" result="hardAlpha"/>
<feOffset dx="1" dy="-2"/>
<feGaussianBlur stdDeviation="9.65"/>
<feComposite in2="hardAlpha" operator="out"/>
<feColorMatrix type="matrix" values="0 0 0 0 0.2 0 0 0 0 0.2 0 0 0 0 0.2 0 0 0 0.2 0"/>
<feBlend mode="normal" in2="BackgroundImageFix" result="effect1_dropShadow_299_15260"/>
<feBlend mode="normal" in="SourceGraphic" in2="effect1_dropShadow_299_15260" result="shape"/>
</filter>
</defs>
</svg>
