<svg width="1332" height="8256" viewBox="0 0 1332 8256" fill="none" xmlns="http://www.w3.org/2000/svg">
<circle cx="1109" cy="329" r="29" fill="#AD0000"/>
<circle cx="249" cy="971" r="29" fill="#AD0000"/>
<circle cx="228" cy="1793" r="29" fill="#AD0000"/>
<circle cx="363" cy="2472" r="29" fill="#AD0000"/>
<circle cx="1021" cy="2984" r="29" fill="#AD0000"/>
<circle cx="1235" cy="3736" r="29" fill="#AD0000"/>
<circle cx="939" cy="4767" r="29" fill="#AD0000"/>
<circle cx="29" cy="5745" r="29" fill="#AD0000"/>
<circle cx="1052" cy="6612" r="29" fill="#AD0000"/>
<circle cx="227" cy="7653" r="29" fill="#AD0000"/>
<path d="M1170.5 2.5C1065.16 25.3333 1119.5 74 1119.5 246.5C1119.5 419 932.499 467 870.996 486C809.493 505 293.999 534 247.499 929C213.999 1043.5 488.499 1252 362.999 1455C323.86 1518.31 236.997 1612 205.497 1945C173.997 2278 274.999 2383 362.999 2478C524.255 2652.08 860.976 2627.04 943.496 2858C1038 3122.5 1285 3049.5 1285 3231C1285 3458 1227.5 3555 1227.5 3662C1227.5 3815.31 1410.66 4081.62 1285 4167.5C886.999 4439.5 943.496 4581 943.496 4809.5C957.164 4958.67 878.499 5290 454.499 5422C30.499 5554 -10.501 5775 21.999 5869C31.9997 5980.83 178.903 6173.08 668.5 6238.5C1140 6301.5 1091.43 6835.21 997 6918.5C738.5 7146.5 490.744 7051.74 328 7259.5C210.5 7409.5 216.5 7677.5 236 7716.5" stroke="black" stroke-opacity="0.2" stroke-width="5" stroke-dasharray="20 20"/>
<path d="M235.5 7716.5C257 7841.5 281.536 8019.27 518.5 8072C1051 8190.5 1284 8147 1268.5 8255.5" stroke="black" stroke-opacity="0.2" stroke-width="5" stroke-dasharray="20 20"/>
</svg>
