<svg width="66" height="66" viewBox="0 0 66 66" fill="none" xmlns="http://www.w3.org/2000/svg">
<g clip-path="url(#clip0_329_19230)">
<path d="M33 16.5C29.975 16.5 27.5 14.025 27.5 11C27.5 7.975 29.975 5.5 33 5.5C36.025 5.5 38.5 7.975 38.5 11C38.5 14.025 36.025 16.5 33 16.5ZM46.75 5.5H52.25V6.6C51.975 12.65 50.05 17.325 45.925 20.625C44.55 21.725 42.9 22.55 41.25 23.1V60.5H35.75V44H30.25V60.5H24.75V27.775C23.925 28.05 23.375 28.325 23.1 28.6C20.625 30.525 19.2775 33 19.25 37.125V38.5H13.75V37.125C13.75 31.625 15.7025 27.2525 19.5525 23.9525C22.5775 21.4775 27.5 19.25 33 19.25C38.5 19.25 40.37 17.985 42.57 16.335C45.32 14.135 46.75 11 46.75 6.875V5.5ZM11 44H19.25V60.5H11V44Z" fill="#711F00"/>
</g>
<defs>
<clipPath id="clip0_329_19230">
<rect width="66" height="66" fill="white"/>
</clipPath>
</defs>
</svg>
