<svg width="1052" height="153" viewBox="0 0 1052 153" fill="none" xmlns="http://www.w3.org/2000/svg">
<path d="M89.78 6.7775C89.23 5.155 87.69 4 85.875 4H55.625C53.81 4 52.2975 5.155 51.72 6.7775L46 23.25V45.25C46 46.7625 47.2375 48 48.75 48H51.5C53.0125 48 54.25 46.7625 54.25 45.25V42.5H87.25V45.25C87.25 46.7625 88.4875 48 90 48H92.75C94.2625 48 95.5 46.7625 95.5 45.25V23.25L89.78 6.7775ZM55.625 34.25C53.3425 34.25 51.5 32.4075 51.5 30.125C51.5 27.8425 53.3425 26 55.625 26C57.9075 26 59.75 27.8425 59.75 30.125C59.75 32.4075 57.9075 34.25 55.625 34.25ZM85.875 34.25C83.5925 34.25 81.75 32.4075 81.75 30.125C81.75 27.8425 83.5925 26 85.875 26C88.1575 26 90 27.8425 90 30.125C90 32.4075 88.1575 34.25 85.875 34.25ZM51.5 20.5L55.625 8.125H85.875L90 20.5H51.5Z" fill="#711F00"/>
<path d="M15.6116 82.63C15.6116 81.3967 15.795 80.3067 16.1616 79.36C16.535 78.4133 17.045 77.6133 17.6916 76.96C18.3383 76.3067 19.0783 75.8133 19.9116 75.48C20.7516 75.1467 21.635 74.98 22.5616 74.98C23.3083 74.98 23.935 75.02 24.4416 75.1C24.955 75.1733 25.375 75.2533 25.7016 75.34C26.0283 75.4267 26.2916 75.4933 26.4916 75.54L26.1516 77.63C26.045 77.5633 25.8616 77.47 25.6016 77.35C25.3416 77.23 24.9783 77.12 24.5116 77.02C24.045 76.9133 23.445 76.86 22.7116 76.86C21.7516 76.86 20.915 77.09 20.2016 77.55C19.4883 78.0033 18.935 78.6533 18.5416 79.5C18.155 80.34 17.9616 81.3367 17.9616 82.49C17.9616 83.6233 18.1516 84.63 18.5316 85.51C18.9183 86.3833 19.4716 87.07 20.1916 87.57C20.9116 88.07 21.7683 88.32 22.7616 88.32C23.255 88.32 23.745 88.2733 24.2316 88.18C24.725 88.0867 25.1616 87.97 25.5416 87.83C25.9283 87.69 26.2083 87.5467 26.3816 87.4V89.38C26.095 89.4933 25.7783 89.61 25.4316 89.73C25.085 89.85 24.685 89.95 24.2316 90.03C23.785 90.1167 23.255 90.16 22.6416 90.16C21.2216 90.16 19.985 89.8467 18.9316 89.22C17.8783 88.5867 17.0616 87.7067 16.4816 86.58C15.9016 85.4467 15.6116 84.13 15.6116 82.63ZM29.1846 90V73.74H31.4846V78.32L31.3646 80.33L31.2546 80.07C31.5213 79.8567 31.8613 79.6467 32.2746 79.44C32.6879 79.2333 33.1346 79.0633 33.6146 78.93C34.0946 78.79 34.5713 78.7133 35.0446 78.7C36.2579 78.6667 37.1379 79 37.6846 79.7C38.2379 80.4 38.5146 81.5633 38.5146 83.19V90H36.2146V83.17C36.2146 82.2567 36.0713 81.5967 35.7846 81.19C35.5046 80.7833 34.9579 80.6 34.1446 80.64C33.7913 80.6467 33.3679 80.73 32.8746 80.89C32.3813 81.05 31.9179 81.2933 31.4846 81.62V90H29.1846ZM44.3151 90.16C43.6484 90.16 43.0551 90.03 42.5351 89.77C42.0217 89.5033 41.6151 89.13 41.3151 88.65C41.0217 88.1633 40.8751 87.59 40.8751 86.93C40.8751 86.2167 41.0651 85.6133 41.4451 85.12C41.8317 84.62 42.3484 84.23 42.9951 83.95C43.4217 83.7767 43.8851 83.64 44.3851 83.54C44.8851 83.4333 45.3851 83.36 45.8851 83.32C46.3851 83.2733 46.8484 83.25 47.2751 83.25L47.7551 83.86L47.2751 84.67C47.0151 84.67 46.7017 84.69 46.3351 84.73C45.9751 84.7633 45.6184 84.82 45.2651 84.9C44.9117 84.9733 44.6117 85.07 44.3651 85.19C44.0251 85.3433 43.7417 85.54 43.5151 85.78C43.2884 86.02 43.1751 86.3533 43.1751 86.78C43.1751 87.34 43.3284 87.7633 43.6351 88.05C43.9484 88.3367 44.4117 88.48 45.0251 88.48C45.3384 88.48 45.6551 88.4333 45.9751 88.34C46.2951 88.2467 46.5717 88.14 46.8051 88.02C47.0451 87.9 47.2017 87.7967 47.2751 87.71L47.7351 88.2L47.4051 89.06C47.1117 89.3267 46.6884 89.5767 46.1351 89.81C45.5817 90.0433 44.9751 90.16 44.3151 90.16ZM49.5851 90H47.4051V88.34H47.2751V82.2C47.2751 81.5467 47.1017 81.1167 46.7551 80.91C46.4151 80.6967 45.9284 80.59 45.2951 80.59C44.8751 80.59 44.4417 80.6333 43.9951 80.72C43.5484 80.8 43.1384 80.9033 42.7651 81.03C42.3917 81.15 42.1051 81.2733 41.9051 81.4L41.3651 79.74C41.5184 79.6467 41.8117 79.5167 42.2451 79.35C42.6851 79.1833 43.1951 79.0333 43.7751 78.9C44.3617 78.76 44.9417 78.69 45.5151 78.69C46.3484 78.69 47.0684 78.7867 47.6751 78.98C48.2884 79.1733 48.7584 79.5333 49.0851 80.06C49.4184 80.58 49.5851 81.3367 49.5851 82.33V90ZM52.847 90V78.88H54.917L54.927 80.06C55.2003 79.8733 55.5436 79.6767 55.957 79.47C56.377 79.2633 56.827 79.0867 57.307 78.94C57.7936 78.7933 58.277 78.7133 58.757 78.7C59.9503 78.6667 60.807 78.9767 61.327 79.63C61.847 80.2767 62.107 81.4167 62.107 83.05V90H59.787V83.17C59.787 82.2367 59.6603 81.5667 59.407 81.16C59.1603 80.7533 58.6203 80.5733 57.787 80.62C57.5536 80.6267 57.2836 80.67 56.977 80.75C56.677 80.8233 56.367 80.9333 56.047 81.08C55.7336 81.22 55.4336 81.4 55.147 81.62V90H52.847ZM72.1841 90V88.52L72.0641 88.46V80.58L72.1441 80.52L72.0641 78.32V73.74H74.3641V90H72.1841ZM69.0741 90.16C68.2941 90.16 67.5675 89.9667 66.8941 89.58C66.2275 89.1933 65.6875 88.6067 65.2741 87.82C64.8675 87.0333 64.6641 86.0367 64.6641 84.83C64.6641 83.6233 64.8975 82.5633 65.3641 81.65C65.8308 80.73 66.4808 80.0133 67.3141 79.5C68.1541 78.98 69.1375 78.72 70.2641 78.72C70.9508 78.72 71.5275 78.8033 71.9941 78.97C72.4608 79.13 72.7575 79.2667 72.8841 79.38L72.0641 80.85C71.8641 80.6767 71.5975 80.5567 71.2641 80.49C70.9375 80.4233 70.5475 80.39 70.0941 80.39C69.5275 80.39 69.0141 80.5467 68.5541 80.86C68.1008 81.1733 67.7375 81.64 67.4641 82.26C67.1908 82.88 67.0508 83.6467 67.0441 84.56C67.0241 85.8667 67.2508 86.8233 67.7241 87.43C68.1975 88.0367 68.8608 88.34 69.7141 88.34C70.2341 88.34 70.6975 88.2433 71.1041 88.05C71.5175 87.8567 71.8375 87.67 72.0641 87.49L72.4441 88.63C72.2841 88.7967 72.0708 89 71.8041 89.24C71.5375 89.48 71.1841 89.6933 70.7441 89.88C70.3041 90.0667 69.7475 90.16 69.0741 90.16ZM79.6902 81.82L79.5502 80.3C79.6502 80.0933 79.8602 79.8667 80.1802 79.62C80.5002 79.3667 80.8769 79.15 81.3102 78.97C81.7502 78.79 82.1969 78.7 82.6502 78.7C82.9036 78.7 83.1202 78.71 83.3002 78.73C83.4869 78.75 83.6236 78.7867 83.7102 78.84V81C83.6102 80.9467 83.4569 80.89 83.2502 80.83C83.0502 80.77 82.7236 80.74 82.2702 80.74C81.8569 80.74 81.4836 80.8 81.1502 80.92C80.8236 81.0333 80.5369 81.1733 80.2902 81.34C80.0436 81.5067 79.8436 81.6667 79.6902 81.82ZM77.5102 90V78.88H79.4702L79.6302 80.3L79.8102 81.14V90H77.5102ZM88.026 90.16C87.3593 90.16 86.766 90.03 86.246 89.77C85.7327 89.5033 85.326 89.13 85.026 88.65C84.7327 88.1633 84.586 87.59 84.586 86.93C84.586 86.2167 84.776 85.6133 85.156 85.12C85.5427 84.62 86.0593 84.23 86.706 83.95C87.1327 83.7767 87.596 83.64 88.096 83.54C88.596 83.4333 89.096 83.36 89.596 83.32C90.096 83.2733 90.5593 83.25 90.986 83.25L91.466 83.86L90.986 84.67C90.726 84.67 90.4127 84.69 90.046 84.73C89.686 84.7633 89.3293 84.82 88.976 84.9C88.6227 84.9733 88.3227 85.07 88.076 85.19C87.736 85.3433 87.4527 85.54 87.226 85.78C86.9993 86.02 86.886 86.3533 86.886 86.78C86.886 87.34 87.0393 87.7633 87.346 88.05C87.6593 88.3367 88.1227 88.48 88.736 88.48C89.0493 88.48 89.366 88.4333 89.686 88.34C90.006 88.2467 90.2827 88.14 90.516 88.02C90.756 87.9 90.9127 87.7967 90.986 87.71L91.446 88.2L91.116 89.06C90.8227 89.3267 90.3993 89.5767 89.846 89.81C89.2927 90.0433 88.686 90.16 88.026 90.16ZM93.296 90H91.116V88.34H90.986V82.2C90.986 81.5467 90.8127 81.1167 90.466 80.91C90.126 80.6967 89.6393 80.59 89.006 80.59C88.586 80.59 88.1527 80.6333 87.706 80.72C87.2593 80.8 86.8493 80.9033 86.476 81.03C86.1027 81.15 85.816 81.2733 85.616 81.4L85.076 79.74C85.2293 79.6467 85.5227 79.5167 85.956 79.35C86.396 79.1833 86.906 79.0333 87.486 78.9C88.0727 78.76 88.6527 78.69 89.226 78.69C90.0593 78.69 90.7793 78.7867 91.386 78.98C91.9993 79.1733 92.4693 79.5333 92.796 80.06C93.1293 80.58 93.296 81.3367 93.296 82.33V90ZM96.4579 94.94V78.86H98.5579V80.22L98.7579 80.46V89.08L98.7379 89.54L98.7579 91.36V94.94H96.4579ZM100.568 90.16C99.8812 90.16 99.3079 90.0733 98.8479 89.9C98.3879 89.7267 98.0912 89.5867 97.9579 89.48L98.7579 88C98.9712 88.18 99.2379 88.31 99.5579 88.39C99.8846 88.4633 100.275 88.5 100.728 88.5C101.301 88.5 101.818 88.34 102.278 88.02C102.738 87.6933 103.101 87.22 103.368 86.6C103.641 85.9733 103.785 85.21 103.798 84.31C103.811 82.9767 103.578 82.01 103.098 81.41C102.625 80.8033 101.961 80.5 101.108 80.5C100.588 80.5 100.125 80.6 99.7179 80.8C99.3179 80.9933 98.9979 81.1833 98.7579 81.37L98.3979 80.23C98.5512 80.07 98.7612 79.87 99.0279 79.63C99.2946 79.39 99.6479 79.18 100.088 79C100.528 78.8133 101.081 78.72 101.748 78.72C102.535 78.72 103.261 78.9133 103.928 79.3C104.601 79.68 105.141 80.2633 105.548 81.05C105.955 81.83 106.158 82.82 106.158 84.02C106.158 85.2267 105.925 86.2933 105.458 87.22C104.998 88.14 104.348 88.86 103.508 89.38C102.675 89.9 101.695 90.16 100.568 90.16ZM111.924 90.16C111.197 90.16 110.611 90.0467 110.164 89.82C109.717 89.5933 109.377 89.27 109.144 88.85C108.911 88.4233 108.751 87.9167 108.664 87.33C108.584 86.7433 108.544 86.0933 108.544 85.38V78.86H110.844V85.36C110.844 86.24 110.911 86.8867 111.044 87.3C111.184 87.7133 111.397 87.98 111.684 88.1C111.977 88.22 112.357 88.28 112.824 88.28C113.097 88.28 113.387 88.24 113.694 88.16C114.007 88.0733 114.301 87.9733 114.574 87.86C114.847 87.74 115.064 87.6267 115.224 87.52V78.86H117.524V90.16H116.464C116.157 90.16 115.914 90.1133 115.734 90.02C115.554 89.9333 115.464 89.7067 115.464 89.34V88.56L115.504 89C115.204 89.2 114.851 89.39 114.444 89.57C114.044 89.7433 113.624 89.8867 113.184 90C112.744 90.1067 112.324 90.16 111.924 90.16ZM122.952 81.82L122.812 80.3C122.912 80.0933 123.122 79.8667 123.442 79.62C123.762 79.3667 124.139 79.15 124.572 78.97C125.012 78.79 125.459 78.7 125.912 78.7C126.165 78.7 126.382 78.71 126.562 78.73C126.749 78.75 126.885 78.7867 126.972 78.84V81C126.872 80.9467 126.719 80.89 126.512 80.83C126.312 80.77 125.985 80.74 125.532 80.74C125.119 80.74 124.745 80.8 124.412 80.92C124.085 81.0333 123.799 81.1733 123.552 81.34C123.305 81.5067 123.105 81.6667 122.952 81.82ZM120.772 90V78.88H122.732L122.892 80.3L123.072 81.14V90H120.772Z" fill="#A8481F"/>
<path d="M926.501 0C916.433 0 908.291 8.2945 908.291 18.55C908.291 32.4625 926.501 53 926.501 53C926.501 53 944.711 32.4625 944.711 18.55C944.711 8.2945 936.568 0 926.501 0ZM926.501 25.175C922.911 25.175 919.997 22.207 919.997 18.55C919.997 14.893 922.911 11.925 926.501 11.925C930.091 11.925 933.004 14.893 933.004 18.55C933.004 22.207 930.091 25.175 926.501 25.175Z" fill="#711F00"/>
<path d="M809.071 90.16C808.424 90.16 807.811 90.11 807.231 90.01C806.657 89.9167 806.164 89.8033 805.751 89.67C805.337 89.5367 805.041 89.4133 804.861 89.3L805.351 87.39C805.604 87.5367 805.921 87.68 806.301 87.82C806.681 87.96 807.097 88.0767 807.551 88.17C808.004 88.2567 808.464 88.3 808.931 88.3C809.844 88.3 810.541 88.1467 811.021 87.84C811.501 87.5333 811.741 87.0333 811.741 86.34C811.741 85.8733 811.621 85.4833 811.381 85.17C811.141 84.85 810.781 84.55 810.301 84.27C809.827 83.99 809.234 83.68 808.521 83.34C807.914 83.04 807.324 82.68 806.751 82.26C806.184 81.84 805.717 81.3467 805.351 80.78C804.984 80.2133 804.801 79.5633 804.801 78.83C804.801 78.11 804.941 77.5067 805.221 77.02C805.507 76.5267 805.891 76.13 806.371 75.83C806.851 75.53 807.384 75.3133 807.971 75.18C808.564 75.0467 809.171 74.98 809.791 74.98C810.697 74.98 811.447 75.07 812.041 75.25C812.634 75.4233 813.061 75.5967 813.321 75.77L812.861 77.62C812.521 77.4067 812.121 77.2167 811.661 77.05C811.207 76.8767 810.584 76.79 809.791 76.79C809.304 76.79 808.854 76.8533 808.441 76.98C808.027 77.1067 807.694 77.3 807.441 77.56C807.187 77.82 807.061 78.1533 807.061 78.56C807.061 79.02 807.154 79.4067 807.341 79.72C807.534 80.0267 807.844 80.3167 808.271 80.59C808.697 80.8567 809.257 81.17 809.951 81.53C810.451 81.79 810.944 82.0667 811.431 82.36C811.917 82.6467 812.357 82.9667 812.751 83.32C813.151 83.6733 813.467 84.08 813.701 84.54C813.941 84.9933 814.061 85.5133 814.061 86.1C814.061 87.0067 813.847 87.7633 813.421 88.37C813.001 88.97 812.414 89.42 811.661 89.72C810.914 90.0133 810.051 90.16 809.071 90.16ZM816.579 90V73.74H818.879V78.32L818.759 80.33L818.649 80.07C818.916 79.8567 819.256 79.6467 819.669 79.44C820.082 79.2333 820.529 79.0633 821.009 78.93C821.489 78.79 821.966 78.7133 822.439 78.7C823.652 78.6667 824.532 79 825.079 79.7C825.632 80.4 825.909 81.5633 825.909 83.19V90H823.609V83.17C823.609 82.2567 823.466 81.5967 823.179 81.19C822.899 80.7833 822.352 80.6 821.539 80.64C821.186 80.6467 820.762 80.73 820.269 80.89C819.776 81.05 819.312 81.2933 818.879 81.62V90H816.579ZM831.245 81.82L831.105 80.3C831.205 80.0933 831.415 79.8667 831.735 79.62C832.055 79.3667 832.432 79.15 832.865 78.97C833.305 78.79 833.752 78.7 834.205 78.7C834.458 78.7 834.675 78.71 834.855 78.73C835.042 78.75 835.178 78.7867 835.265 78.84V81C835.165 80.9467 835.012 80.89 834.805 80.83C834.605 80.77 834.278 80.74 833.825 80.74C833.412 80.74 833.038 80.8 832.705 80.92C832.378 81.0333 832.092 81.1733 831.845 81.34C831.598 81.5067 831.398 81.6667 831.245 81.82ZM829.065 90V78.88H831.025L831.185 80.3L831.365 81.14V90H829.065ZM839.581 90.16C838.914 90.16 838.321 90.03 837.801 89.77C837.287 89.5033 836.881 89.13 836.581 88.65C836.287 88.1633 836.141 87.59 836.141 86.93C836.141 86.2167 836.331 85.6133 836.711 85.12C837.097 84.62 837.614 84.23 838.261 83.95C838.687 83.7767 839.151 83.64 839.651 83.54C840.151 83.4333 840.651 83.36 841.151 83.32C841.651 83.2733 842.114 83.25 842.541 83.25L843.021 83.86L842.541 84.67C842.281 84.67 841.967 84.69 841.601 84.73C841.241 84.7633 840.884 84.82 840.531 84.9C840.177 84.9733 839.877 85.07 839.631 85.19C839.291 85.3433 839.007 85.54 838.781 85.78C838.554 86.02 838.441 86.3533 838.441 86.78C838.441 87.34 838.594 87.7633 838.901 88.05C839.214 88.3367 839.677 88.48 840.291 88.48C840.604 88.48 840.921 88.4333 841.241 88.34C841.561 88.2467 841.837 88.14 842.071 88.02C842.311 87.9 842.467 87.7967 842.541 87.71L843.001 88.2L842.671 89.06C842.377 89.3267 841.954 89.5767 841.401 89.81C840.847 90.0433 840.241 90.16 839.581 90.16ZM844.851 90H842.671V88.34H842.541V82.2C842.541 81.5467 842.367 81.1167 842.021 80.91C841.681 80.6967 841.194 80.59 840.561 80.59C840.141 80.59 839.707 80.6333 839.261 80.72C838.814 80.8 838.404 80.9033 838.031 81.03C837.657 81.15 837.371 81.2733 837.171 81.4L836.631 79.74C836.784 79.6467 837.077 79.5167 837.511 79.35C837.951 79.1833 838.461 79.0333 839.041 78.9C839.627 78.76 840.207 78.69 840.781 78.69C841.614 78.69 842.334 78.7867 842.941 78.98C843.554 79.1733 844.024 79.5333 844.351 80.06C844.684 80.58 844.851 81.3367 844.851 82.33V90ZM854.833 90V88.52L854.713 88.46V80.58L854.793 80.52L854.713 78.32V73.74H857.013V90H854.833ZM851.723 90.16C850.943 90.16 850.216 89.9667 849.543 89.58C848.876 89.1933 848.336 88.6067 847.923 87.82C847.516 87.0333 847.313 86.0367 847.313 84.83C847.313 83.6233 847.546 82.5633 848.013 81.65C848.479 80.73 849.129 80.0133 849.963 79.5C850.803 78.98 851.786 78.72 852.913 78.72C853.599 78.72 854.176 78.8033 854.643 78.97C855.109 79.13 855.406 79.2667 855.533 79.38L854.713 80.85C854.513 80.6767 854.246 80.5567 853.913 80.49C853.586 80.4233 853.196 80.39 852.743 80.39C852.176 80.39 851.663 80.5467 851.203 80.86C850.749 81.1733 850.386 81.64 850.113 82.26C849.839 82.88 849.699 83.6467 849.693 84.56C849.673 85.8667 849.899 86.8233 850.373 87.43C850.846 88.0367 851.509 88.34 852.363 88.34C852.883 88.34 853.346 88.2433 853.753 88.05C854.166 87.8567 854.486 87.67 854.713 87.49L855.093 88.63C854.933 88.7967 854.719 89 854.453 89.24C854.186 89.48 853.833 89.6933 853.393 89.88C852.953 90.0667 852.396 90.16 851.723 90.16ZM860.349 90V73.74H862.649V78.32L862.529 80.33L862.419 80.07C862.685 79.8567 863.025 79.6467 863.439 79.44C863.852 79.2333 864.299 79.0633 864.779 78.93C865.259 78.79 865.735 78.7133 866.209 78.7C867.422 78.6667 868.302 79 868.849 79.7C869.402 80.4 869.679 81.5633 869.679 83.19V90H867.379V83.17C867.379 82.2567 867.235 81.5967 866.949 81.19C866.669 80.7833 866.122 80.6 865.309 80.64C864.955 80.6467 864.532 80.73 864.039 80.89C863.545 81.05 863.082 81.2933 862.649 81.62V90H860.349ZM877.294 90.16C875.694 90.16 874.461 89.6533 873.594 88.64C872.728 87.6267 872.294 86.22 872.294 84.42C872.294 83.34 872.484 82.3733 872.864 81.52C873.251 80.6667 873.818 79.99 874.564 79.49C875.318 78.99 876.241 78.7333 877.334 78.72C877.894 78.7067 878.421 78.7867 878.914 78.96C879.408 79.1333 879.844 79.3967 880.224 79.75C880.604 80.0967 880.904 80.5367 881.124 81.07C881.351 81.6033 881.474 82.2267 881.494 82.94C881.494 83.36 881.491 83.7367 881.484 84.07C881.478 84.3967 881.448 84.6867 881.394 84.94H873.634L873.834 83.48H879.334C879.368 82.9467 879.334 82.4433 879.234 81.97C879.141 81.49 878.934 81.1033 878.614 80.81C878.301 80.51 877.834 80.36 877.214 80.36C876.694 80.36 876.228 80.5067 875.814 80.8C875.401 81.0867 875.081 81.5733 874.854 82.26C874.628 82.9467 874.534 83.8867 874.574 85.08C874.614 85.92 874.784 86.5833 875.084 87.07C875.384 87.5567 875.778 87.9033 876.264 88.11C876.751 88.3167 877.294 88.42 877.894 88.42C878.148 88.42 878.458 88.3933 878.824 88.34C879.191 88.28 879.544 88.2067 879.884 88.12C880.231 88.0267 880.494 87.9267 880.674 87.82L881.114 89.14C880.868 89.34 880.531 89.5167 880.104 89.67C879.684 89.8233 879.228 89.9433 878.734 90.03C878.241 90.1167 877.761 90.16 877.294 90.16ZM883.847 94.8V92.92C883.96 92.96 884.123 92.9933 884.337 93.02C884.557 93.0467 884.72 93.06 884.827 93.06C885.107 93.06 885.44 92.98 885.827 92.82C886.213 92.6667 886.583 92.35 886.937 91.87C887.297 91.3967 887.573 90.68 887.767 89.72L887.907 90H886.947L882.967 78.86H885.447L887.767 86.08L888.707 89.2H888.107L888.927 86.08L890.907 78.86H893.387L889.687 90.34C889.247 91.68 888.723 92.7033 888.117 93.41C887.51 94.1233 886.847 94.58 886.127 94.78C885.987 94.8267 885.803 94.8667 885.577 94.9C885.35 94.94 885.16 94.96 885.007 94.96C884.907 94.96 884.773 94.95 884.607 94.93C884.44 94.9167 884.28 94.8967 884.127 94.87C883.98 94.85 883.887 94.8267 883.847 94.8ZM897.842 90.16C897.176 90.16 896.582 90.03 896.062 89.77C895.549 89.5033 895.142 89.13 894.842 88.65C894.549 88.1633 894.402 87.59 894.402 86.93C894.402 86.2167 894.592 85.6133 894.972 85.12C895.359 84.62 895.876 84.23 896.522 83.95C896.949 83.7767 897.412 83.64 897.912 83.54C898.412 83.4333 898.912 83.36 899.412 83.32C899.912 83.2733 900.376 83.25 900.802 83.25L901.282 83.86L900.802 84.67C900.542 84.67 900.229 84.69 899.862 84.73C899.502 84.7633 899.146 84.82 898.792 84.9C898.439 84.9733 898.139 85.07 897.892 85.19C897.552 85.3433 897.269 85.54 897.042 85.78C896.816 86.02 896.702 86.3533 896.702 86.78C896.702 87.34 896.856 87.7633 897.162 88.05C897.476 88.3367 897.939 88.48 898.552 88.48C898.866 88.48 899.182 88.4333 899.502 88.34C899.822 88.2467 900.099 88.14 900.332 88.02C900.572 87.9 900.729 87.7967 900.802 87.71L901.262 88.2L900.932 89.06C900.639 89.3267 900.216 89.5767 899.662 89.81C899.109 90.0433 898.502 90.16 897.842 90.16ZM903.112 90H900.932V88.34H900.802V82.2C900.802 81.5467 900.629 81.1167 900.282 80.91C899.942 80.6967 899.456 80.59 898.822 80.59C898.402 80.59 897.969 80.6333 897.522 80.72C897.076 80.8 896.666 80.9033 896.292 81.03C895.919 81.15 895.632 81.2733 895.432 81.4L894.892 79.74C895.046 79.6467 895.339 79.5167 895.772 79.35C896.212 79.1833 896.722 79.0333 897.302 78.9C897.889 78.76 898.469 78.69 899.042 78.69C899.876 78.69 900.596 78.7867 901.202 78.98C901.816 79.1733 902.286 79.5333 902.612 80.06C902.946 80.58 903.112 81.3367 903.112 82.33V90ZM913.758 90.16C913.111 90.16 912.498 90.11 911.918 90.01C911.345 89.9167 910.851 89.8033 910.438 89.67C910.025 89.5367 909.728 89.4133 909.548 89.3L910.038 87.39C910.291 87.5367 910.608 87.68 910.988 87.82C911.368 87.96 911.785 88.0767 912.238 88.17C912.691 88.2567 913.151 88.3 913.618 88.3C914.531 88.3 915.228 88.1467 915.708 87.84C916.188 87.5333 916.428 87.0333 916.428 86.34C916.428 85.8733 916.308 85.4833 916.068 85.17C915.828 84.85 915.468 84.55 914.988 84.27C914.515 83.99 913.921 83.68 913.208 83.34C912.601 83.04 912.011 82.68 911.438 82.26C910.871 81.84 910.405 81.3467 910.038 80.78C909.671 80.2133 909.488 79.5633 909.488 78.83C909.488 78.11 909.628 77.5067 909.908 77.02C910.195 76.5267 910.578 76.13 911.058 75.83C911.538 75.53 912.071 75.3133 912.658 75.18C913.251 75.0467 913.858 74.98 914.478 74.98C915.385 74.98 916.135 75.07 916.728 75.25C917.321 75.4233 917.748 75.5967 918.008 75.77L917.548 77.62C917.208 77.4067 916.808 77.2167 916.348 77.05C915.895 76.8767 915.271 76.79 914.478 76.79C913.991 76.79 913.541 76.8533 913.128 76.98C912.715 77.1067 912.381 77.3 912.128 77.56C911.875 77.82 911.748 78.1533 911.748 78.56C911.748 79.02 911.841 79.4067 912.028 79.72C912.221 80.0267 912.531 80.3167 912.958 80.59C913.385 80.8567 913.945 81.17 914.638 81.53C915.138 81.79 915.631 82.0667 916.118 82.36C916.605 82.6467 917.045 82.9667 917.438 83.32C917.838 83.6733 918.155 84.08 918.388 84.54C918.628 84.9933 918.748 85.5133 918.748 86.1C918.748 87.0067 918.535 87.7633 918.108 88.37C917.688 88.97 917.101 89.42 916.348 89.72C915.601 90.0133 914.738 90.16 913.758 90.16ZM921.267 90V73.74H923.567V78.32L923.447 80.33L923.337 80.07C923.603 79.8567 923.943 79.6467 924.357 79.44C924.77 79.2333 925.217 79.0633 925.697 78.93C926.177 78.79 926.653 78.7133 927.127 78.7C928.34 78.6667 929.22 79 929.767 79.7C930.32 80.4 930.597 81.5633 930.597 83.19V90H928.297V83.17C928.297 82.2567 928.153 81.5967 927.867 81.19C927.587 80.7833 927.04 80.6 926.227 80.64C925.873 80.6467 925.45 80.73 924.957 80.89C924.463 81.05 924 81.2933 923.567 81.62V90H921.267ZM935.932 81.82L935.792 80.3C935.892 80.0933 936.102 79.8667 936.422 79.62C936.742 79.3667 937.119 79.15 937.552 78.97C937.992 78.79 938.439 78.7 938.892 78.7C939.146 78.7 939.362 78.71 939.542 78.73C939.729 78.75 939.866 78.7867 939.952 78.84V81C939.852 80.9467 939.699 80.89 939.492 80.83C939.292 80.77 938.966 80.74 938.512 80.74C938.099 80.74 937.726 80.8 937.392 80.92C937.066 81.0333 936.779 81.1733 936.532 81.34C936.286 81.5067 936.086 81.6667 935.932 81.82ZM933.752 90V78.88H935.712L935.872 80.3L936.052 81.14V90H933.752ZM942.099 90V78.88H944.399V90H942.099ZM943.119 76.91C942.732 76.91 942.392 76.7867 942.099 76.54C941.812 76.2933 941.669 75.9567 941.669 75.53C941.669 75.2367 941.749 74.9733 941.909 74.74C942.075 74.5 942.285 74.31 942.539 74.17C942.792 74.0233 943.055 73.95 943.329 73.95C943.802 73.95 944.159 74.0833 944.399 74.35C944.639 74.6167 944.759 74.9433 944.759 75.33C944.759 75.79 944.592 76.17 944.259 76.47C943.932 76.7633 943.552 76.91 943.119 76.91ZM952.411 90H949.931L955.571 74.98H957.861L963.421 90H960.871L957.161 78.83L956.741 77.4L956.301 78.83L952.411 90ZM952.731 86.35L953.131 84.62H959.951L960.371 86.35H952.731ZM968.381 90.16C967.854 90.16 967.391 90.0767 966.991 89.91C966.591 89.7433 966.277 89.45 966.051 89.03C965.831 88.6033 965.721 88 965.721 87.22V80.56H964.281V79.32C964.774 79.18 965.151 79.0633 965.411 78.97C965.671 78.87 965.861 78.66 965.981 78.34C966.034 78.1933 966.094 78.02 966.161 77.82C966.227 77.6133 966.301 77.3867 966.381 77.14C966.461 76.8867 966.547 76.6133 966.641 76.32H968.021V78.86H971.141V80.56H968.021V86C968.021 86.72 968.051 87.2467 968.111 87.58C968.177 87.9067 968.297 88.1167 968.471 88.21C968.651 88.2967 968.914 88.34 969.261 88.34C969.447 88.34 969.661 88.32 969.901 88.28C970.147 88.2333 970.381 88.1767 970.601 88.11C970.827 88.0433 971.001 87.9733 971.121 87.9L971.501 89.22C971.301 89.3733 971.031 89.5233 970.691 89.67C970.357 89.81 969.987 89.9267 969.581 90.02C969.181 90.1133 968.781 90.16 968.381 90.16ZM976.378 90.16C975.711 90.16 975.118 90.03 974.598 89.77C974.084 89.5033 973.678 89.13 973.378 88.65C973.084 88.1633 972.938 87.59 972.938 86.93C972.938 86.2167 973.128 85.6133 973.508 85.12C973.894 84.62 974.411 84.23 975.058 83.95C975.484 83.7767 975.948 83.64 976.448 83.54C976.948 83.4333 977.448 83.36 977.948 83.32C978.448 83.2733 978.911 83.25 979.338 83.25L979.818 83.86L979.338 84.67C979.078 84.67 978.764 84.69 978.398 84.73C978.038 84.7633 977.681 84.82 977.328 84.9C976.974 84.9733 976.674 85.07 976.428 85.19C976.088 85.3433 975.804 85.54 975.578 85.78C975.351 86.02 975.238 86.3533 975.238 86.78C975.238 87.34 975.391 87.7633 975.698 88.05C976.011 88.3367 976.474 88.48 977.088 88.48C977.401 88.48 977.718 88.4333 978.038 88.34C978.358 88.2467 978.634 88.14 978.868 88.02C979.108 87.9 979.264 87.7967 979.338 87.71L979.798 88.2L979.468 89.06C979.174 89.3267 978.751 89.5767 978.198 89.81C977.644 90.0433 977.038 90.16 976.378 90.16ZM981.648 90H979.468V88.34H979.338V82.2C979.338 81.5467 979.164 81.1167 978.818 80.91C978.478 80.6967 977.991 80.59 977.358 80.59C976.938 80.59 976.504 80.6333 976.058 80.72C975.611 80.8 975.201 80.9033 974.828 81.03C974.454 81.15 974.168 81.2733 973.968 81.4L973.428 79.74C973.581 79.6467 973.874 79.5167 974.308 79.35C974.748 79.1833 975.258 79.0333 975.838 78.9C976.424 78.76 977.004 78.69 977.578 78.69C978.411 78.69 979.131 78.7867 979.738 78.98C980.351 79.1733 980.821 79.5333 981.148 80.06C981.481 80.58 981.648 81.3367 981.648 82.33V90ZM984.989 90V73.74H987.309V90H984.989ZM994.591 90V75.12L995.691 75.14C996.018 75.14 996.351 75.13 996.691 75.11C997.031 75.0833 997.398 75.06 997.791 75.04C998.185 75.0133 998.625 75 999.111 75C1000.25 75 1001.19 75.1467 1001.92 75.44C1002.65 75.7333 1003.2 76.1467 1003.55 76.68C1003.9 77.2067 1004.08 77.8267 1004.08 78.54C1004.08 79.0067 1004 79.48 1003.84 79.96C1003.69 80.44 1003.44 80.8633 1003.11 81.23C1002.78 81.59 1002.35 81.84 1001.82 81.98C1002.43 82.0133 1002.97 82.2 1003.45 82.54C1003.94 82.8733 1004.32 83.3033 1004.61 83.83C1004.9 84.35 1005.04 84.9167 1005.04 85.53C1005.04 86.43 1004.86 87.2267 1004.5 87.92C1004.14 88.6133 1003.52 89.1567 1002.65 89.55C1001.78 89.9433 1000.57 90.14 999.021 90.14C998.441 90.14 997.841 90.12 997.221 90.08C996.601 90.0467 996.111 90.02 995.751 90H994.591ZM996.911 81.49C997.091 81.5167 997.291 81.5367 997.511 81.55C997.731 81.5567 997.958 81.56 998.191 81.56C998.425 81.5533 998.648 81.55 998.861 81.55C999.081 81.5433 999.281 81.54 999.461 81.54C1000.14 81.54 1000.7 81.32 1001.14 80.88C1001.59 80.44 1001.81 79.7667 1001.81 78.86C1001.81 78.1067 1001.54 77.55 1001.01 77.19C1000.48 76.83 999.715 76.65 998.721 76.65C998.601 76.65 998.411 76.6567 998.151 76.67C997.898 76.6767 997.651 76.69 997.411 76.71C997.171 76.73 997.005 76.7567 996.911 76.79V81.49ZM996.911 88.23C997.025 88.2967 997.221 88.3467 997.501 88.38C997.781 88.4133 998.081 88.4367 998.401 88.45C998.728 88.4567 999.008 88.46 999.241 88.46C1000.31 88.46 1001.15 88.2633 1001.76 87.87C1002.37 87.4767 1002.67 86.7767 1002.67 85.77C1002.67 84.87 1002.4 84.2167 1001.85 83.81C1001.31 83.3967 1000.47 83.19 999.321 83.19C999.135 83.19 998.928 83.19 998.701 83.19C998.481 83.1833 998.258 83.1833 998.031 83.19C997.811 83.19 997.605 83.1933 997.411 83.2C997.218 83.2067 997.051 83.22 996.911 83.24V88.23ZM1007.72 90V78.88H1010.02V90H1007.72ZM1008.74 76.91C1008.36 76.91 1008.02 76.7867 1007.72 76.54C1007.44 76.2933 1007.29 75.9567 1007.29 75.53C1007.29 75.2367 1007.37 74.9733 1007.53 74.74C1007.7 74.5 1007.91 74.31 1008.16 74.17C1008.42 74.0233 1008.68 73.95 1008.95 73.95C1009.43 73.95 1009.78 74.0833 1010.02 74.35C1010.26 74.6167 1010.38 74.9433 1010.38 75.33C1010.38 75.79 1010.22 76.17 1009.88 76.47C1009.56 76.7633 1009.18 76.91 1008.74 76.91ZM1013.53 90V73.74H1015.83V78.32L1015.71 80.33L1015.6 80.07C1015.87 79.8567 1016.21 79.6467 1016.62 79.44C1017.04 79.2333 1017.48 79.0633 1017.96 78.93C1018.44 78.79 1018.92 78.7133 1019.39 78.7C1020.61 78.6667 1021.49 79 1022.03 79.7C1022.59 80.4 1022.86 81.5633 1022.86 83.19V90H1020.56V83.17C1020.56 82.2567 1020.42 81.5967 1020.13 81.19C1019.85 80.7833 1019.31 80.6 1018.49 80.64C1018.14 80.6467 1017.72 80.73 1017.22 80.89C1016.73 81.05 1016.27 81.2933 1015.83 81.62V90H1013.53ZM1028.66 90.16C1028 90.16 1027.4 90.03 1026.88 89.77C1026.37 89.5033 1025.96 89.13 1025.66 88.65C1025.37 88.1633 1025.22 87.59 1025.22 86.93C1025.22 86.2167 1025.41 85.6133 1025.79 85.12C1026.18 84.62 1026.7 84.23 1027.34 83.95C1027.77 83.7767 1028.23 83.64 1028.73 83.54C1029.23 83.4333 1029.73 83.36 1030.23 83.32C1030.73 83.2733 1031.2 83.25 1031.62 83.25L1032.1 83.86L1031.62 84.67C1031.36 84.67 1031.05 84.69 1030.68 84.73C1030.32 84.7633 1029.97 84.82 1029.61 84.9C1029.26 84.9733 1028.96 85.07 1028.71 85.19C1028.37 85.3433 1028.09 85.54 1027.86 85.78C1027.64 86.02 1027.52 86.3533 1027.52 86.78C1027.52 87.34 1027.68 87.7633 1027.98 88.05C1028.3 88.3367 1028.76 88.48 1029.37 88.48C1029.69 88.48 1030 88.4333 1030.32 88.34C1030.64 88.2467 1030.92 88.14 1031.15 88.02C1031.39 87.9 1031.55 87.7967 1031.62 87.71L1032.08 88.2L1031.75 89.06C1031.46 89.3267 1031.04 89.5767 1030.48 89.81C1029.93 90.0433 1029.32 90.16 1028.66 90.16ZM1033.93 90H1031.75V88.34H1031.62V82.2C1031.62 81.5467 1031.45 81.1167 1031.1 80.91C1030.76 80.6967 1030.28 80.59 1029.64 80.59C1029.22 80.59 1028.79 80.6333 1028.34 80.72C1027.9 80.8 1027.49 80.9033 1027.11 81.03C1026.74 81.15 1026.45 81.2733 1026.25 81.4L1025.71 79.74C1025.87 79.6467 1026.16 79.5167 1026.59 79.35C1027.03 79.1833 1027.54 79.0333 1028.12 78.9C1028.71 78.76 1029.29 78.69 1029.86 78.69C1030.7 78.69 1031.42 78.7867 1032.02 78.98C1032.64 79.1733 1033.11 79.5333 1033.43 80.06C1033.77 80.58 1033.93 81.3367 1033.93 82.33V90ZM1039.17 81.82L1039.03 80.3C1039.13 80.0933 1039.34 79.8667 1039.66 79.62C1039.98 79.3667 1040.36 79.15 1040.79 78.97C1041.23 78.79 1041.68 78.7 1042.13 78.7C1042.39 78.7 1042.6 78.71 1042.78 78.73C1042.97 78.75 1043.11 78.7867 1043.19 78.84V81C1043.09 80.9467 1042.94 80.89 1042.73 80.83C1042.53 80.77 1042.21 80.74 1041.75 80.74C1041.34 80.74 1040.97 80.8 1040.63 80.92C1040.31 81.0333 1040.02 81.1733 1039.77 81.34C1039.53 81.5067 1039.33 81.6667 1039.17 81.82ZM1036.99 90V78.88H1038.95L1039.11 80.3L1039.29 81.14V90H1036.99ZM1045.34 90V78.88H1047.64V90H1045.34ZM1046.36 76.91C1045.97 76.91 1045.63 76.7867 1045.34 76.54C1045.05 76.2933 1044.91 75.9567 1044.91 75.53C1044.91 75.2367 1044.99 74.9733 1045.15 74.74C1045.32 74.5 1045.53 74.31 1045.78 74.17C1046.03 74.0233 1046.3 73.95 1046.57 73.95C1047.04 73.95 1047.4 74.0833 1047.64 74.35C1047.88 74.6167 1048 74.9433 1048 75.33C1048 75.79 1047.83 76.17 1047.5 76.47C1047.17 76.7633 1046.79 76.91 1046.36 76.91ZM842.474 119.11L836.914 104.14H839.404L842.784 113.81L843.464 116.2L844.174 113.81L847.404 104.14H849.864L844.434 119.11H842.474ZM853.78 119.16C853.113 119.16 852.52 119.03 852 118.77C851.487 118.503 851.08 118.13 850.78 117.65C850.487 117.163 850.34 116.59 850.34 115.93C850.34 115.217 850.53 114.613 850.91 114.12C851.297 113.62 851.813 113.23 852.46 112.95C852.887 112.777 853.35 112.64 853.85 112.54C854.35 112.433 854.85 112.36 855.35 112.32C855.85 112.273 856.313 112.25 856.74 112.25L857.22 112.86L856.74 113.67C856.48 113.67 856.167 113.69 855.8 113.73C855.44 113.763 855.083 113.82 854.73 113.9C854.377 113.973 854.077 114.07 853.83 114.19C853.49 114.343 853.207 114.54 852.98 114.78C852.753 115.02 852.64 115.353 852.64 115.78C852.64 116.34 852.793 116.763 853.1 117.05C853.413 117.337 853.877 117.48 854.49 117.48C854.803 117.48 855.12 117.433 855.44 117.34C855.76 117.247 856.037 117.14 856.27 117.02C856.51 116.9 856.667 116.797 856.74 116.71L857.2 117.2L856.87 118.06C856.577 118.327 856.153 118.577 855.6 118.81C855.047 119.043 854.44 119.16 853.78 119.16ZM859.05 119H856.87V117.34H856.74V111.2C856.74 110.547 856.567 110.117 856.22 109.91C855.88 109.697 855.393 109.59 854.76 109.59C854.34 109.59 853.907 109.633 853.46 109.72C853.013 109.8 852.603 109.903 852.23 110.03C851.857 110.15 851.57 110.273 851.37 110.4L850.83 108.74C850.983 108.647 851.277 108.517 851.71 108.35C852.15 108.183 852.66 108.033 853.24 107.9C853.827 107.76 854.407 107.69 854.98 107.69C855.813 107.69 856.533 107.787 857.14 107.98C857.753 108.173 858.223 108.533 858.55 109.06C858.883 109.58 859.05 110.337 859.05 111.33V119ZM859.772 123.8V122.15C859.878 122.197 860.055 122.24 860.302 122.28C860.548 122.327 860.755 122.35 860.922 122.35C861.508 122.35 861.908 122.103 862.122 121.61C862.335 121.123 862.442 120.38 862.442 119.38V107.88H864.752V118.56C864.752 119.86 864.612 120.903 864.332 121.69C864.058 122.483 863.655 123.06 863.122 123.42C862.595 123.78 861.952 123.96 861.192 123.96C861.092 123.96 860.938 123.953 860.732 123.94C860.525 123.927 860.328 123.907 860.142 123.88C859.955 123.86 859.832 123.833 859.772 123.8ZM863.512 105.91C863.125 105.91 862.785 105.787 862.492 105.54C862.205 105.293 862.062 104.957 862.062 104.53C862.062 104.237 862.142 103.973 862.302 103.74C862.468 103.5 862.678 103.31 862.932 103.17C863.185 103.023 863.448 102.95 863.722 102.95C864.195 102.95 864.552 103.083 864.792 103.35C865.032 103.617 865.152 103.943 865.152 104.33C865.152 104.79 864.985 105.17 864.652 105.47C864.325 105.763 863.945 105.91 863.512 105.91ZM867.934 123.94V107.86H870.034V109.22L870.234 109.46V118.08L870.214 118.54L870.234 120.36V123.94H867.934ZM872.044 119.16C871.358 119.16 870.784 119.073 870.324 118.9C869.864 118.727 869.568 118.587 869.434 118.48L870.234 117C870.448 117.18 870.714 117.31 871.034 117.39C871.361 117.463 871.751 117.5 872.204 117.5C872.778 117.5 873.294 117.34 873.754 117.02C874.214 116.693 874.578 116.22 874.844 115.6C875.118 114.973 875.261 114.21 875.274 113.31C875.288 111.977 875.054 111.01 874.574 110.41C874.101 109.803 873.438 109.5 872.584 109.5C872.064 109.5 871.601 109.6 871.194 109.8C870.794 109.993 870.474 110.183 870.234 110.37L869.874 109.23C870.028 109.07 870.238 108.87 870.504 108.63C870.771 108.39 871.124 108.18 871.564 108C872.004 107.813 872.558 107.72 873.224 107.72C874.011 107.72 874.738 107.913 875.404 108.3C876.078 108.68 876.618 109.263 877.024 110.05C877.431 110.83 877.634 111.82 877.634 113.02C877.634 114.227 877.401 115.293 876.934 116.22C876.474 117.14 875.824 117.86 874.984 118.38C874.151 118.9 873.171 119.16 872.044 119.16ZM882.53 119.16C881.863 119.16 881.27 119.03 880.75 118.77C880.237 118.503 879.83 118.13 879.53 117.65C879.237 117.163 879.09 116.59 879.09 115.93C879.09 115.217 879.28 114.613 879.66 114.12C880.047 113.62 880.563 113.23 881.21 112.95C881.637 112.777 882.1 112.64 882.6 112.54C883.1 112.433 883.6 112.36 884.1 112.32C884.6 112.273 885.063 112.25 885.49 112.25L885.97 112.86L885.49 113.67C885.23 113.67 884.917 113.69 884.55 113.73C884.19 113.763 883.833 113.82 883.48 113.9C883.127 113.973 882.827 114.07 882.58 114.19C882.24 114.343 881.957 114.54 881.73 114.78C881.503 115.02 881.39 115.353 881.39 115.78C881.39 116.34 881.543 116.763 881.85 117.05C882.163 117.337 882.627 117.48 883.24 117.48C883.553 117.48 883.87 117.433 884.19 117.34C884.51 117.247 884.787 117.14 885.02 117.02C885.26 116.9 885.417 116.797 885.49 116.71L885.95 117.2L885.62 118.06C885.327 118.327 884.903 118.577 884.35 118.81C883.797 119.043 883.19 119.16 882.53 119.16ZM887.8 119H885.62V117.34H885.49V111.2C885.49 110.547 885.317 110.117 884.97 109.91C884.63 109.697 884.143 109.59 883.51 109.59C883.09 109.59 882.657 109.633 882.21 109.72C881.763 109.8 881.353 109.903 880.98 110.03C880.607 110.15 880.32 110.273 880.12 110.4L879.58 108.74C879.733 108.647 880.027 108.517 880.46 108.35C880.9 108.183 881.41 108.033 881.99 107.9C882.577 107.76 883.157 107.69 883.73 107.69C884.563 107.69 885.283 107.787 885.89 107.98C886.503 108.173 886.973 108.533 887.3 109.06C887.633 109.58 887.8 110.337 887.8 111.33V119ZM890.722 123.8V121.92C890.835 121.96 890.998 121.993 891.212 122.02C891.432 122.047 891.595 122.06 891.702 122.06C891.982 122.06 892.315 121.98 892.702 121.82C893.088 121.667 893.458 121.35 893.812 120.87C894.172 120.397 894.448 119.68 894.642 118.72L894.782 119H893.822L889.842 107.86H892.322L894.642 115.08L895.582 118.2H894.982L895.802 115.08L897.782 107.86H900.262L896.562 119.34C896.122 120.68 895.598 121.703 894.992 122.41C894.385 123.123 893.722 123.58 893.002 123.78C892.862 123.827 892.678 123.867 892.452 123.9C892.225 123.94 892.035 123.96 891.882 123.96C891.782 123.96 891.648 123.95 891.482 123.93C891.315 123.917 891.155 123.897 891.002 123.87C890.855 123.85 890.762 123.827 890.722 123.8ZM906.142 119.16C904.542 119.16 903.309 118.653 902.442 117.64C901.575 116.627 901.142 115.22 901.142 113.42C901.142 112.34 901.332 111.373 901.712 110.52C902.099 109.667 902.665 108.99 903.412 108.49C904.165 107.99 905.089 107.733 906.182 107.72C906.742 107.707 907.269 107.787 907.762 107.96C908.255 108.133 908.692 108.397 909.072 108.75C909.452 109.097 909.752 109.537 909.972 110.07C910.199 110.603 910.322 111.227 910.342 111.94C910.342 112.36 910.339 112.737 910.332 113.07C910.325 113.397 910.295 113.687 910.242 113.94H902.482L902.682 112.48H908.182C908.215 111.947 908.182 111.443 908.082 110.97C907.989 110.49 907.782 110.103 907.462 109.81C907.149 109.51 906.682 109.36 906.062 109.36C905.542 109.36 905.075 109.507 904.662 109.8C904.249 110.087 903.929 110.573 903.702 111.26C903.475 111.947 903.382 112.887 903.422 114.08C903.462 114.92 903.632 115.583 903.932 116.07C904.232 116.557 904.625 116.903 905.112 117.11C905.599 117.317 906.142 117.42 906.742 117.42C906.995 117.42 907.305 117.393 907.672 117.34C908.039 117.28 908.392 117.207 908.732 117.12C909.079 117.027 909.342 116.927 909.522 116.82L909.962 118.14C909.715 118.34 909.379 118.517 908.952 118.67C908.532 118.823 908.075 118.943 907.582 119.03C907.089 119.117 906.609 119.16 906.142 119.16ZM917.294 119.16C915.694 119.16 914.461 118.653 913.594 117.64C912.728 116.627 912.294 115.22 912.294 113.42C912.294 112.34 912.484 111.373 912.864 110.52C913.251 109.667 913.818 108.99 914.564 108.49C915.318 107.99 916.241 107.733 917.334 107.72C917.894 107.707 918.421 107.787 918.914 107.96C919.408 108.133 919.844 108.397 920.224 108.75C920.604 109.097 920.904 109.537 921.124 110.07C921.351 110.603 921.474 111.227 921.494 111.94C921.494 112.36 921.491 112.737 921.484 113.07C921.478 113.397 921.448 113.687 921.394 113.94H913.634L913.834 112.48H919.334C919.368 111.947 919.334 111.443 919.234 110.97C919.141 110.49 918.934 110.103 918.614 109.81C918.301 109.51 917.834 109.36 917.214 109.36C916.694 109.36 916.228 109.507 915.814 109.8C915.401 110.087 915.081 110.573 914.854 111.26C914.628 111.947 914.534 112.887 914.574 114.08C914.614 114.92 914.784 115.583 915.084 116.07C915.384 116.557 915.778 116.903 916.264 117.11C916.751 117.317 917.294 117.42 917.894 117.42C918.148 117.42 918.458 117.393 918.824 117.34C919.191 117.28 919.544 117.207 919.884 117.12C920.231 117.027 920.494 116.927 920.674 116.82L921.114 118.14C920.868 118.34 920.531 118.517 920.104 118.67C919.684 118.823 919.228 118.943 918.734 119.03C918.241 119.117 917.761 119.16 917.294 119.16ZM927.951 119V104.12L929.051 104.14C929.377 104.14 929.711 104.13 930.051 104.11C930.391 104.083 930.757 104.06 931.151 104.04C931.544 104.013 931.984 104 932.471 104C933.611 104 934.547 104.147 935.281 104.44C936.014 104.733 936.557 105.147 936.911 105.68C937.264 106.207 937.441 106.827 937.441 107.54C937.441 108.007 937.361 108.48 937.201 108.96C937.047 109.44 936.804 109.863 936.471 110.23C936.137 110.59 935.707 110.84 935.181 110.98C935.787 111.013 936.331 111.2 936.811 111.54C937.297 111.873 937.684 112.303 937.971 112.83C938.257 113.35 938.401 113.917 938.401 114.53C938.401 115.43 938.221 116.227 937.861 116.92C937.501 117.613 936.884 118.157 936.011 118.55C935.137 118.943 933.927 119.14 932.381 119.14C931.801 119.14 931.201 119.12 930.581 119.08C929.961 119.047 929.471 119.02 929.111 119H927.951ZM930.271 110.49C930.451 110.517 930.651 110.537 930.871 110.55C931.091 110.557 931.317 110.56 931.551 110.56C931.784 110.553 932.007 110.55 932.221 110.55C932.441 110.543 932.641 110.54 932.821 110.54C933.501 110.54 934.061 110.32 934.501 109.88C934.947 109.44 935.171 108.767 935.171 107.86C935.171 107.107 934.904 106.55 934.371 106.19C933.837 105.83 933.074 105.65 932.081 105.65C931.961 105.65 931.771 105.657 931.511 105.67C931.257 105.677 931.011 105.69 930.771 105.71C930.531 105.73 930.364 105.757 930.271 105.79V110.49ZM930.271 117.23C930.384 117.297 930.581 117.347 930.861 117.38C931.141 117.413 931.441 117.437 931.761 117.45C932.087 117.457 932.367 117.46 932.601 117.46C933.674 117.46 934.514 117.263 935.121 116.87C935.727 116.477 936.031 115.777 936.031 114.77C936.031 113.87 935.757 113.217 935.211 112.81C934.671 112.397 933.827 112.19 932.681 112.19C932.494 112.19 932.287 112.19 932.061 112.19C931.841 112.183 931.617 112.183 931.391 112.19C931.171 112.19 930.964 112.193 930.771 112.2C930.577 112.207 930.411 112.22 930.271 112.24V117.23ZM945.173 119.16C944.267 119.16 943.497 119 942.863 118.68C942.23 118.36 941.717 117.923 941.323 117.37C940.93 116.817 940.643 116.183 940.463 115.47C940.29 114.75 940.207 113.993 940.213 113.2C940.233 112.007 940.47 111.003 940.923 110.19C941.377 109.377 941.99 108.763 942.763 108.35C943.537 107.93 944.407 107.72 945.373 107.72C946.587 107.72 947.557 107.997 948.283 108.55C949.017 109.097 949.543 109.823 949.863 110.73C950.19 111.63 950.347 112.607 950.333 113.66C950.313 114.853 950.077 115.86 949.623 116.68C949.177 117.493 948.567 118.11 947.793 118.53C947.027 118.95 946.153 119.16 945.173 119.16ZM945.233 117.53C946.147 117.543 946.833 117.2 947.293 116.5C947.76 115.793 947.993 114.817 947.993 113.57C947.993 112.797 947.9 112.097 947.713 111.47C947.527 110.837 947.233 110.33 946.833 109.95C946.44 109.57 945.933 109.377 945.313 109.37C944.407 109.35 943.723 109.677 943.263 110.35C942.803 111.023 942.573 111.983 942.573 113.23C942.573 114.003 942.667 114.713 942.853 115.36C943.04 116.007 943.33 116.527 943.723 116.92C944.117 117.313 944.62 117.517 945.233 117.53ZM956.076 119.16C955.549 119.16 955.086 119.077 954.686 118.91C954.286 118.743 953.973 118.45 953.746 118.03C953.526 117.603 953.416 117 953.416 116.22V109.56H951.976V108.32C952.469 108.18 952.846 108.063 953.106 107.97C953.366 107.87 953.556 107.66 953.676 107.34C953.729 107.193 953.789 107.02 953.856 106.82C953.923 106.613 953.996 106.387 954.076 106.14C954.156 105.887 954.243 105.613 954.336 105.32H955.716V107.86H958.836V109.56H955.716V115C955.716 115.72 955.746 116.247 955.806 116.58C955.873 116.907 955.993 117.117 956.166 117.21C956.346 117.297 956.609 117.34 956.956 117.34C957.143 117.34 957.356 117.32 957.596 117.28C957.843 117.233 958.076 117.177 958.296 117.11C958.523 117.043 958.696 116.973 958.816 116.9L959.196 118.22C958.996 118.373 958.726 118.523 958.386 118.67C958.053 118.81 957.683 118.927 957.276 119.02C956.876 119.113 956.476 119.16 956.076 119.16ZM964.073 119.16C963.406 119.16 962.813 119.03 962.293 118.77C961.78 118.503 961.373 118.13 961.073 117.65C960.78 117.163 960.633 116.59 960.633 115.93C960.633 115.217 960.823 114.613 961.203 114.12C961.59 113.62 962.106 113.23 962.753 112.95C963.18 112.777 963.643 112.64 964.143 112.54C964.643 112.433 965.143 112.36 965.643 112.32C966.143 112.273 966.606 112.25 967.033 112.25L967.513 112.86L967.033 113.67C966.773 113.67 966.46 113.69 966.093 113.73C965.733 113.763 965.376 113.82 965.023 113.9C964.67 113.973 964.37 114.07 964.123 114.19C963.783 114.343 963.5 114.54 963.273 114.78C963.046 115.02 962.933 115.353 962.933 115.78C962.933 116.34 963.086 116.763 963.393 117.05C963.706 117.337 964.17 117.48 964.783 117.48C965.096 117.48 965.413 117.433 965.733 117.34C966.053 117.247 966.33 117.14 966.563 117.02C966.803 116.9 966.96 116.797 967.033 116.71L967.493 117.2L967.163 118.06C966.87 118.327 966.446 118.577 965.893 118.81C965.34 119.043 964.733 119.16 964.073 119.16ZM969.343 119H967.163V117.34H967.033V111.2C967.033 110.547 966.86 110.117 966.513 109.91C966.173 109.697 965.686 109.59 965.053 109.59C964.633 109.59 964.2 109.633 963.753 109.72C963.306 109.8 962.896 109.903 962.523 110.03C962.15 110.15 961.863 110.273 961.663 110.4L961.123 108.74C961.276 108.647 961.57 108.517 962.003 108.35C962.443 108.183 962.953 108.033 963.533 107.9C964.12 107.76 964.7 107.69 965.273 107.69C966.106 107.69 966.826 107.787 967.433 107.98C968.046 108.173 968.516 108.533 968.843 109.06C969.176 109.58 969.343 110.337 969.343 111.33V119ZM972.605 119V107.88H974.675L974.685 109.06C974.958 108.873 975.301 108.677 975.715 108.47C976.135 108.263 976.585 108.087 977.065 107.94C977.551 107.793 978.035 107.713 978.515 107.7C979.708 107.667 980.565 107.977 981.085 108.63C981.605 109.277 981.865 110.417 981.865 112.05V119H979.545V112.17C979.545 111.237 979.418 110.567 979.165 110.16C978.918 109.753 978.378 109.573 977.545 109.62C977.311 109.627 977.041 109.67 976.735 109.75C976.435 109.823 976.125 109.933 975.805 110.08C975.491 110.22 975.191 110.4 974.905 110.62V119H972.605ZM985.302 119V107.88H987.602V119H985.302ZM986.322 105.91C985.935 105.91 985.595 105.787 985.302 105.54C985.015 105.293 984.872 104.957 984.872 104.53C984.872 104.237 984.952 103.973 985.112 103.74C985.279 103.5 985.489 103.31 985.742 103.17C985.995 103.023 986.259 102.95 986.532 102.95C987.005 102.95 987.362 103.083 987.602 103.35C987.842 103.617 987.962 103.943 987.962 104.33C987.962 104.79 987.795 105.17 987.462 105.47C987.135 105.763 986.755 105.91 986.322 105.91ZM990.2 113.56C990.2 112.46 990.4 111.47 990.8 110.59C991.2 109.71 991.8 109.013 992.6 108.5C993.4 107.98 994.4 107.72 995.6 107.72C996.3 107.72 996.894 107.783 997.38 107.91C997.867 108.037 998.2 108.16 998.38 108.28L998.02 110.1C997.74 109.907 997.404 109.763 997.01 109.67C996.617 109.57 996.14 109.52 995.58 109.52C995.08 109.52 994.597 109.643 994.13 109.89C993.664 110.13 993.274 110.517 992.96 111.05C992.647 111.583 992.474 112.287 992.44 113.16C992.414 114.08 992.534 114.857 992.8 115.49C993.074 116.117 993.447 116.593 993.92 116.92C994.4 117.24 994.934 117.4 995.52 117.4C996.074 117.4 996.584 117.33 997.05 117.19C997.524 117.05 997.88 116.907 998.12 116.76L998.56 118.1C998.22 118.42 997.74 118.677 997.12 118.87C996.5 119.063 995.84 119.16 995.14 119.16C994.08 119.16 993.184 118.913 992.45 118.42C991.717 117.927 991.157 117.26 990.77 116.42C990.39 115.573 990.2 114.62 990.2 113.56ZM1003.53 119.16C1002.86 119.16 1002.27 119.03 1001.75 118.77C1001.23 118.503 1000.83 118.13 1000.53 117.65C1000.23 117.163 1000.09 116.59 1000.09 115.93C1000.09 115.217 1000.28 114.613 1000.66 114.12C1001.04 113.62 1001.56 113.23 1002.21 112.95C1002.63 112.777 1003.1 112.64 1003.6 112.54C1004.1 112.433 1004.6 112.36 1005.1 112.32C1005.6 112.273 1006.06 112.25 1006.49 112.25L1006.97 112.86L1006.49 113.67C1006.23 113.67 1005.91 113.69 1005.55 113.73C1005.19 113.763 1004.83 113.82 1004.48 113.9C1004.12 113.973 1003.82 114.07 1003.58 114.19C1003.24 114.343 1002.95 114.54 1002.73 114.78C1002.5 115.02 1002.39 115.353 1002.39 115.78C1002.39 116.34 1002.54 116.763 1002.85 117.05C1003.16 117.337 1003.62 117.48 1004.24 117.48C1004.55 117.48 1004.87 117.433 1005.19 117.34C1005.51 117.247 1005.78 117.14 1006.02 117.02C1006.26 116.9 1006.41 116.797 1006.49 116.71L1006.95 117.2L1006.62 118.06C1006.32 118.327 1005.9 118.577 1005.35 118.81C1004.79 119.043 1004.19 119.16 1003.53 119.16ZM1008.8 119H1006.62V117.34H1006.49V111.2C1006.49 110.547 1006.31 110.117 1005.97 109.91C1005.63 109.697 1005.14 109.59 1004.51 109.59C1004.09 109.59 1003.65 109.633 1003.21 109.72C1002.76 109.8 1002.35 109.903 1001.98 110.03C1001.6 110.15 1001.32 110.273 1001.12 110.4L1000.58 108.74C1000.73 108.647 1001.02 108.517 1001.46 108.35C1001.9 108.183 1002.41 108.033 1002.99 107.9C1003.57 107.76 1004.15 107.69 1004.73 107.69C1005.56 107.69 1006.28 107.787 1006.89 107.98C1007.5 108.173 1007.97 108.533 1008.3 109.06C1008.63 109.58 1008.8 110.337 1008.8 111.33V119ZM1012.14 119V102.74H1014.46V119H1012.14ZM852.44 140.64C852.44 139.353 852.62 138.233 852.98 137.28C853.34 136.32 853.837 135.523 854.47 134.89C855.11 134.25 855.854 133.773 856.7 133.46C857.547 133.14 858.457 132.98 859.43 132.98C860.177 132.98 860.774 133.013 861.22 133.08C861.674 133.14 862.074 133.217 862.42 133.31C862.774 133.397 863.167 133.48 863.6 133.56L863.5 135.65C863.027 135.41 862.484 135.213 861.87 135.06C861.264 134.9 860.414 134.82 859.32 134.82C858.454 134.82 857.684 135.04 857.01 135.48C856.344 135.92 855.82 136.553 855.44 137.38C855.06 138.207 854.87 139.207 854.87 140.38C854.87 141.5 855.03 142.513 855.35 143.42C855.67 144.327 856.157 145.047 856.81 145.58C857.47 146.107 858.307 146.37 859.32 146.37C859.86 146.37 860.4 146.327 860.94 146.24C861.487 146.153 861.9 146.02 862.18 145.84V141.9L862.77 142.31L859.56 142.17V140.46H864.44V147.09C864.22 147.103 863.974 147.167 863.7 147.28C863.427 147.387 863.1 147.51 862.72 147.65C862.34 147.783 861.877 147.9 861.33 148C860.79 148.107 860.14 148.16 859.38 148.16C857.907 148.16 856.654 147.837 855.62 147.19C854.587 146.537 853.797 145.643 853.25 144.51C852.71 143.377 852.44 142.087 852.44 140.64ZM869.942 148.16C869.275 148.16 868.682 148.03 868.162 147.77C867.649 147.503 867.242 147.13 866.942 146.65C866.649 146.163 866.502 145.59 866.502 144.93C866.502 144.217 866.692 143.613 867.072 143.12C867.459 142.62 867.975 142.23 868.622 141.95C869.049 141.777 869.512 141.64 870.012 141.54C870.512 141.433 871.012 141.36 871.512 141.32C872.012 141.273 872.475 141.25 872.902 141.25L873.382 141.86L872.902 142.67C872.642 142.67 872.329 142.69 871.962 142.73C871.602 142.763 871.245 142.82 870.892 142.9C870.539 142.973 870.239 143.07 869.992 143.19C869.652 143.343 869.369 143.54 869.142 143.78C868.915 144.02 868.802 144.353 868.802 144.78C868.802 145.34 868.955 145.763 869.262 146.05C869.575 146.337 870.039 146.48 870.652 146.48C870.965 146.48 871.282 146.433 871.602 146.34C871.922 146.247 872.199 146.14 872.432 146.02C872.672 145.9 872.829 145.797 872.902 145.71L873.362 146.2L873.032 147.06C872.739 147.327 872.315 147.577 871.762 147.81C871.209 148.043 870.602 148.16 869.942 148.16ZM875.212 148H873.032V146.34H872.902V140.2C872.902 139.547 872.729 139.117 872.382 138.91C872.042 138.697 871.555 138.59 870.922 138.59C870.502 138.59 870.069 138.633 869.622 138.72C869.175 138.8 868.765 138.903 868.392 139.03C868.019 139.15 867.732 139.273 867.532 139.4L866.992 137.74C867.145 137.647 867.439 137.517 867.872 137.35C868.312 137.183 868.822 137.033 869.402 136.9C869.989 136.76 870.569 136.69 871.142 136.69C871.975 136.69 872.695 136.787 873.302 136.98C873.915 137.173 874.385 137.533 874.712 138.06C875.045 138.58 875.212 139.337 875.212 140.33V148ZM880.454 139.82L880.314 138.3C880.414 138.093 880.624 137.867 880.944 137.62C881.264 137.367 881.641 137.15 882.074 136.97C882.514 136.79 882.961 136.7 883.414 136.7C883.667 136.7 883.884 136.71 884.064 136.73C884.251 136.75 884.387 136.787 884.474 136.84V139C884.374 138.947 884.221 138.89 884.014 138.83C883.814 138.77 883.487 138.74 883.034 138.74C882.621 138.74 882.247 138.8 881.914 138.92C881.587 139.033 881.301 139.173 881.054 139.34C880.807 139.507 880.607 139.667 880.454 139.82ZM878.274 148V136.88H880.234L880.394 138.3L880.574 139.14V148H878.274ZM892.87 148V146.52L892.75 146.46V138.58L892.83 138.52L892.75 136.32V131.74H895.05V148H892.87ZM889.76 148.16C888.98 148.16 888.253 147.967 887.58 147.58C886.913 147.193 886.373 146.607 885.96 145.82C885.553 145.033 885.35 144.037 885.35 142.83C885.35 141.623 885.583 140.563 886.05 139.65C886.516 138.73 887.166 138.013 888 137.5C888.84 136.98 889.823 136.72 890.95 136.72C891.636 136.72 892.213 136.803 892.68 136.97C893.146 137.13 893.443 137.267 893.57 137.38L892.75 138.85C892.55 138.677 892.283 138.557 891.95 138.49C891.623 138.423 891.233 138.39 890.78 138.39C890.213 138.39 889.7 138.547 889.24 138.86C888.786 139.173 888.423 139.64 888.15 140.26C887.876 140.88 887.736 141.647 887.73 142.56C887.71 143.867 887.936 144.823 888.41 145.43C888.883 146.037 889.546 146.34 890.4 146.34C890.92 146.34 891.383 146.243 891.79 146.05C892.203 145.857 892.523 145.67 892.75 145.49L893.13 146.63C892.97 146.797 892.756 147 892.49 147.24C892.223 147.48 891.87 147.693 891.43 147.88C890.99 148.067 890.433 148.16 889.76 148.16ZM902.656 148.16C901.056 148.16 899.822 147.653 898.956 146.64C898.089 145.627 897.656 144.22 897.656 142.42C897.656 141.34 897.846 140.373 898.226 139.52C898.612 138.667 899.179 137.99 899.926 137.49C900.679 136.99 901.602 136.733 902.696 136.72C903.256 136.707 903.782 136.787 904.276 136.96C904.769 137.133 905.206 137.397 905.586 137.75C905.966 138.097 906.266 138.537 906.486 139.07C906.712 139.603 906.836 140.227 906.856 140.94C906.856 141.36 906.852 141.737 906.846 142.07C906.839 142.397 906.809 142.687 906.756 142.94H898.996L899.196 141.48H904.696C904.729 140.947 904.696 140.443 904.596 139.97C904.502 139.49 904.296 139.103 903.976 138.81C903.662 138.51 903.196 138.36 902.576 138.36C902.056 138.36 901.589 138.507 901.176 138.8C900.762 139.087 900.442 139.573 900.216 140.26C899.989 140.947 899.896 141.887 899.936 143.08C899.976 143.92 900.146 144.583 900.446 145.07C900.746 145.557 901.139 145.903 901.626 146.11C902.112 146.317 902.656 146.42 903.256 146.42C903.509 146.42 903.819 146.393 904.186 146.34C904.552 146.28 904.906 146.207 905.246 146.12C905.592 146.027 905.856 145.927 906.036 145.82L906.476 147.14C906.229 147.34 905.892 147.517 905.466 147.67C905.046 147.823 904.589 147.943 904.096 148.03C903.602 148.117 903.122 148.16 902.656 148.16ZM909.548 148V136.88H911.618L911.628 138.06C911.901 137.873 912.245 137.677 912.658 137.47C913.078 137.263 913.528 137.087 914.008 136.94C914.495 136.793 914.978 136.713 915.458 136.7C916.651 136.667 917.508 136.977 918.028 137.63C918.548 138.277 918.808 139.417 918.808 141.05V148H916.488V141.17C916.488 140.237 916.361 139.567 916.108 139.16C915.861 138.753 915.321 138.573 914.488 138.62C914.255 138.627 913.985 138.67 913.678 138.75C913.378 138.823 913.068 138.933 912.748 139.08C912.435 139.22 912.135 139.4 911.848 139.62V148H909.548ZM921.965 151.98V151.74C922.312 151.553 922.605 151.227 922.845 150.76C923.085 150.293 923.205 149.787 923.205 149.24C923.205 148.96 923.145 148.67 923.025 148.37C922.912 148.07 922.765 147.813 922.585 147.6C922.405 147.387 922.215 147.27 922.015 147.25V146.6L923.515 145.31C923.962 145.477 924.319 145.74 924.585 146.1C924.859 146.453 925.055 146.843 925.175 147.27C925.302 147.69 925.365 148.09 925.365 148.47C925.365 149.183 925.245 149.843 925.005 150.45C924.765 151.057 924.445 151.57 924.045 151.99C923.652 152.417 923.219 152.717 922.745 152.89L921.965 151.98ZM935.199 148.11L929.639 133.14H932.129L935.509 142.81L936.189 145.2L936.899 142.81L940.129 133.14H942.589L937.159 148.11H935.199ZM944.55 148V136.88H946.85V148H944.55ZM945.57 134.91C945.183 134.91 944.843 134.787 944.55 134.54C944.263 134.293 944.12 133.957 944.12 133.53C944.12 133.237 944.2 132.973 944.36 132.74C944.527 132.5 944.737 132.31 944.99 132.17C945.243 132.023 945.507 131.95 945.78 131.95C946.253 131.95 946.61 132.083 946.85 132.35C947.09 132.617 947.21 132.943 947.21 133.33C947.21 133.79 947.043 134.17 946.71 134.47C946.383 134.763 946.003 134.91 945.57 134.91ZM949.688 147.34L950.008 145.64C950.108 145.713 950.315 145.813 950.628 145.94C950.948 146.06 951.328 146.173 951.768 146.28C952.215 146.38 952.675 146.433 953.148 146.44C953.788 146.447 954.275 146.337 954.608 146.11C954.942 145.883 955.108 145.567 955.108 145.16C955.108 144.873 955.008 144.623 954.808 144.41C954.608 144.197 954.332 144 953.978 143.82C953.632 143.633 953.235 143.44 952.788 143.24C952.188 142.967 951.658 142.67 951.198 142.35C950.738 142.03 950.378 141.653 950.118 141.22C949.865 140.787 949.742 140.267 949.748 139.66C949.762 139 949.952 138.453 950.318 138.02C950.692 137.58 951.185 137.253 951.798 137.04C952.412 136.827 953.095 136.72 953.848 136.72C954.548 136.72 955.162 136.793 955.688 136.94C956.215 137.08 956.562 137.2 956.728 137.3L956.388 139.04C956.268 138.94 956.082 138.843 955.828 138.75C955.582 138.65 955.295 138.57 954.968 138.51C954.642 138.45 954.308 138.42 953.968 138.42C953.288 138.42 952.775 138.52 952.428 138.72C952.082 138.913 951.902 139.187 951.888 139.54C951.882 140.027 952.048 140.39 952.388 140.63C952.735 140.87 953.148 141.107 953.628 141.34C954.315 141.673 954.935 142.003 955.488 142.33C956.042 142.65 956.478 143.02 956.798 143.44C957.125 143.853 957.288 144.367 957.288 144.98C957.288 146.02 956.932 146.81 956.218 147.35C955.505 147.89 954.528 148.16 953.288 148.16C952.775 148.16 952.275 148.12 951.788 148.04C951.308 147.96 950.882 147.857 950.508 147.73C950.142 147.603 949.868 147.473 949.688 147.34ZM962.227 148.16C961.561 148.16 960.967 148.03 960.447 147.77C959.934 147.503 959.527 147.13 959.227 146.65C958.934 146.163 958.787 145.59 958.787 144.93C958.787 144.217 958.977 143.613 959.357 143.12C959.744 142.62 960.261 142.23 960.907 141.95C961.334 141.777 961.797 141.64 962.297 141.54C962.797 141.433 963.297 141.36 963.797 141.32C964.297 141.273 964.761 141.25 965.187 141.25L965.667 141.86L965.187 142.67C964.927 142.67 964.614 142.69 964.247 142.73C963.887 142.763 963.531 142.82 963.177 142.9C962.824 142.973 962.524 143.07 962.277 143.19C961.937 143.343 961.654 143.54 961.427 143.78C961.201 144.02 961.087 144.353 961.087 144.78C961.087 145.34 961.241 145.763 961.547 146.05C961.861 146.337 962.324 146.48 962.937 146.48C963.251 146.48 963.567 146.433 963.887 146.34C964.207 146.247 964.484 146.14 964.717 146.02C964.957 145.9 965.114 145.797 965.187 145.71L965.647 146.2L965.317 147.06C965.024 147.327 964.601 147.577 964.047 147.81C963.494 148.043 962.887 148.16 962.227 148.16ZM967.497 148H965.317V146.34H965.187V140.2C965.187 139.547 965.014 139.117 964.667 138.91C964.327 138.697 963.841 138.59 963.207 138.59C962.787 138.59 962.354 138.633 961.907 138.72C961.461 138.8 961.051 138.903 960.677 139.03C960.304 139.15 960.017 139.273 959.817 139.4L959.277 137.74C959.431 137.647 959.724 137.517 960.157 137.35C960.597 137.183 961.107 137.033 961.687 136.9C962.274 136.76 962.854 136.69 963.427 136.69C964.261 136.69 964.981 136.787 965.587 136.98C966.201 137.173 966.671 137.533 966.997 138.06C967.331 138.58 967.497 139.337 967.497 140.33V148ZM970.659 152.94V136.86H972.759V138.22L972.959 138.46V147.08L972.939 147.54L972.959 149.36V152.94H970.659ZM974.769 148.16C974.082 148.16 973.509 148.073 973.049 147.9C972.589 147.727 972.292 147.587 972.159 147.48L972.959 146C973.172 146.18 973.439 146.31 973.759 146.39C974.086 146.463 974.476 146.5 974.929 146.5C975.502 146.5 976.019 146.34 976.479 146.02C976.939 145.693 977.302 145.22 977.569 144.6C977.842 143.973 977.986 143.21 977.999 142.31C978.012 140.977 977.779 140.01 977.299 139.41C976.826 138.803 976.162 138.5 975.309 138.5C974.789 138.5 974.326 138.6 973.919 138.8C973.519 138.993 973.199 139.183 972.959 139.37L972.599 138.23C972.752 138.07 972.962 137.87 973.229 137.63C973.496 137.39 973.849 137.18 974.289 137C974.729 136.813 975.282 136.72 975.949 136.72C976.736 136.72 977.462 136.913 978.129 137.3C978.802 137.68 979.342 138.263 979.749 139.05C980.156 139.83 980.359 140.82 980.359 142.02C980.359 143.227 980.126 144.293 979.659 145.22C979.199 146.14 978.549 146.86 977.709 147.38C976.876 147.9 975.896 148.16 974.769 148.16ZM986.125 148.16C985.398 148.16 984.812 148.047 984.365 147.82C983.918 147.593 983.578 147.27 983.345 146.85C983.112 146.423 982.952 145.917 982.865 145.33C982.785 144.743 982.745 144.093 982.745 143.38V136.86H985.045V143.36C985.045 144.24 985.112 144.887 985.245 145.3C985.385 145.713 985.598 145.98 985.885 146.1C986.178 146.22 986.558 146.28 987.025 146.28C987.298 146.28 987.588 146.24 987.895 146.16C988.208 146.073 988.502 145.973 988.775 145.86C989.048 145.74 989.265 145.627 989.425 145.52V136.86H991.725V148.16H990.665C990.358 148.16 990.115 148.113 989.935 148.02C989.755 147.933 989.665 147.707 989.665 147.34V146.56L989.705 147C989.405 147.2 989.052 147.39 988.645 147.57C988.245 147.743 987.825 147.887 987.385 148C986.945 148.107 986.525 148.16 986.125 148.16ZM997.153 139.82L997.013 138.3C997.113 138.093 997.323 137.867 997.643 137.62C997.963 137.367 998.34 137.15 998.773 136.97C999.213 136.79 999.66 136.7 1000.11 136.7C1000.37 136.7 1000.58 136.71 1000.76 136.73C1000.95 136.75 1001.09 136.787 1001.17 136.84V139C1001.07 138.947 1000.92 138.89 1000.71 138.83C1000.51 138.77 1000.19 138.74 999.733 138.74C999.32 138.74 998.946 138.8 998.613 138.92C998.286 139.033 998 139.173 997.753 139.34C997.506 139.507 997.306 139.667 997.153 139.82ZM994.973 148V136.88H996.933L997.093 138.3L997.273 139.14V148H994.973Z" fill="#A8481F"/>
<path d="M850.707 43.7072C851.098 43.3166 851.098 42.6835 850.707 42.293L844.343 35.929C843.953 35.5385 843.319 35.5385 842.929 35.929C842.538 36.3195 842.538 36.9527 842.929 37.3432L848.586 43.0001L842.929 48.6569C842.538 49.0474 842.538 49.6806 842.929 50.0711C843.319 50.4617 843.953 50.4617 844.343 50.0711L850.707 43.7072ZM162 44L165.018 44L165.018 42L162 42L162 44ZM171.053 44L177.088 44L177.088 42L171.053 42L171.053 44ZM183.123 44L189.158 44L189.158 42L183.123 42L183.123 44ZM195.193 44L201.228 44L201.228 42L195.193 42L195.193 44ZM207.263 44L213.298 44L213.298 42L207.263 42L207.263 44ZM219.333 44L225.368 44L225.368 42L219.333 42L219.333 44ZM231.404 44L237.439 44L237.439 42L231.404 42L231.404 44ZM243.474 44L249.509 44L249.509 42L243.474 42L243.474 44ZM255.544 44L261.579 44L261.579 42L255.544 42L255.544 44ZM267.614 44L273.649 44L273.649 42L267.614 42L267.614 44ZM279.684 44L285.719 44L285.719 42L279.684 42L279.684 44ZM291.754 44L297.789 44L297.789 42L291.754 42L291.754 44ZM303.825 44L309.86 44L309.86 42L303.825 42L303.825 44ZM315.895 44L321.93 44L321.93 42L315.895 42L315.895 44ZM327.965 44L334 44L334 42L327.965 42L327.965 44ZM340.035 44L346.07 44L346.07 42L340.035 42L340.035 44ZM352.105 44L358.14 44L358.14 42L352.105 42L352.105 44ZM364.176 44L370.211 44L370.211 42L364.176 42L364.176 44ZM376.246 44L382.281 44L382.281 42L376.246 42L376.246 44ZM388.316 44L394.351 44L394.351 42L388.316 42L388.316 44ZM400.386 44L406.421 44L406.421 42L400.386 42L400.386 44ZM412.456 44L418.491 44L418.491 42L412.456 42L412.456 44ZM424.526 44L430.562 44L430.562 42L424.526 42L424.526 44ZM436.597 44L442.632 44L442.632 42L436.597 42L436.597 44ZM448.667 44L454.702 44L454.702 42L448.667 42L448.667 44ZM460.737 44L466.772 44L466.772 42L460.737 42L460.737 44ZM472.807 44L478.842 44L478.842 42L472.807 42L472.807 44ZM484.877 44L490.913 44L490.913 42L484.877 42L484.877 44ZM496.948 44L502.983 44L502.983 42L496.948 42L496.948 44ZM509.018 44L515.053 44L515.053 42L509.018 42L509.018 44ZM521.088 44L527.123 44L527.123 42L521.088 42L521.088 44ZM533.158 44L539.193 44L539.193 42L533.158 42L533.158 44ZM545.228 44L551.263 44L551.263 42L545.228 42L545.228 44ZM557.299 44L563.334 44L563.334 42L557.299 42L557.299 44ZM569.369 44L575.404 44L575.404 42L569.369 42L569.369 44ZM581.439 44L587.474 44L587.474 42L581.439 42L581.439 44ZM593.509 44L599.544 44L599.544 42L593.509 42L593.509 44ZM605.579 44L611.614 44L611.614 42L605.579 42L605.579 44ZM617.65 44L623.685 44L623.685 42L617.65 42L617.65 44ZM629.72 44L635.755 44L635.755 42L629.72 42L629.72 44ZM641.79 44L647.825 44L647.825 42L641.79 42L641.79 44ZM653.86 44L659.895 44L659.895 42L653.86 42L653.86 44ZM665.93 44L671.965 44L671.965 42L665.93 42L665.93 44ZM678 44L684.036 44L684.036 42L678 42L678 44ZM690.071 44L696.106 44L696.106 42L690.071 42L690.071 44ZM702.141 44L708.176 44L708.176 42L702.141 42L702.141 44ZM714.211 44L720.246 44L720.246 42L714.211 42L714.211 44ZM726.281 44L732.316 44L732.316 42L726.281 42L726.281 44ZM738.351 44.0001L744.386 44.0001L744.386 42.0001L738.351 42.0001L738.351 44.0001ZM750.422 44.0001L756.457 44.0001L756.457 42.0001L750.422 42.0001L750.422 44.0001ZM762.492 44.0001L768.527 44.0001L768.527 42.0001L762.492 42.0001L762.492 44.0001ZM774.562 44.0001L780.597 44.0001L780.597 42.0001L774.562 42.0001L774.562 44.0001ZM786.632 44.0001L792.667 44.0001L792.667 42.0001L786.632 42.0001L786.632 44.0001ZM798.702 44.0001L804.737 44.0001L804.737 42.0001L798.702 42.0001L798.702 44.0001ZM810.773 44.0001L816.808 44.0001L816.808 42.0001L810.773 42.0001L810.773 44.0001ZM822.843 44.0001L828.878 44.0001L828.878 42.0001L822.843 42.0001L822.843 44.0001ZM834.913 44.0001L840.948 44.0001L840.948 42.0001L834.913 42.0001L834.913 44.0001ZM846.983 44.0001L850 44.0001L850 42.0001L846.983 42.0001L846.983 44.0001Z" fill="#323232"/>
<path d="M445.863 66.5575C445.718 66.4625 445.508 66.29 445.233 66.04C444.963 65.795 444.671 65.465 444.356 65.05C444.041 64.64 443.741 64.1375 443.456 63.5425C443.171 62.9425 442.936 62.245 442.751 61.45C442.566 60.655 442.473 59.755 442.473 58.75C442.473 57.865 442.561 57.0525 442.736 56.3125C442.916 55.5725 443.146 54.905 443.426 54.31C443.706 53.715 444.001 53.2 444.311 52.765C444.626 52.33 444.923 51.9775 445.203 51.7075C445.483 51.4375 445.703 51.2525 445.863 51.1525L447.153 51.955C446.993 52.085 446.768 52.325 446.478 52.675C446.188 53.025 445.893 53.485 445.593 54.055C445.293 54.62 445.036 55.2975 444.821 56.0875C444.611 56.8725 444.501 57.77 444.491 58.78C444.481 59.585 444.536 60.3175 444.656 60.9775C444.781 61.6375 444.943 62.2325 445.143 62.7625C445.348 63.2875 445.571 63.745 445.811 64.135C446.056 64.53 446.296 64.8625 446.531 65.1325C446.766 65.4025 446.973 65.61 447.153 65.755L445.863 66.5575ZM450.38 64V55.285C450.095 55.355 449.815 55.4175 449.54 55.4725C449.265 55.5275 448.987 55.58 448.707 55.63L448.497 54.25C448.737 54.185 449.007 54.0925 449.307 53.9725C449.612 53.8525 449.915 53.72 450.215 53.575C450.52 53.43 450.797 53.285 451.047 53.14C451.302 52.99 451.5 52.8575 451.64 52.7425L452.75 52.9L452.742 64H450.38ZM457.06 64.15C456.935 64.15 456.77 64.1425 456.565 64.1275C456.365 64.1125 456.19 64.0875 456.04 64.0525V62.4325C456.135 62.4375 456.227 62.4425 456.317 62.4475C456.412 62.4475 456.502 62.4475 456.587 62.4475C457.427 62.4475 458.155 62.3525 458.77 62.1625C459.39 61.9725 459.867 61.7025 460.202 61.3525C460.537 61.0025 460.705 60.5875 460.705 60.1075C460.705 59.5425 460.54 59.1275 460.21 58.8625C459.885 58.5975 459.357 58.465 458.627 58.465C458.312 58.465 457.972 58.5075 457.607 58.5925C457.247 58.6775 456.895 58.78 456.55 58.9L456.122 58.66L456.565 52.855H462.73L462.52 54.7525H458.237L457.982 57.0775C458.297 56.9875 458.605 56.92 458.905 56.875C459.205 56.83 459.49 56.8075 459.76 56.8075C460.835 56.8075 461.65 57.09 462.205 57.655C462.765 58.215 463.045 58.9975 463.045 60.0025C463.045 60.5925 462.91 61.14 462.64 61.645C462.37 62.145 461.977 62.5825 461.462 62.9575C460.947 63.3325 460.32 63.625 459.58 63.835C458.84 64.045 458 64.15 457.06 64.15ZM475.603 55.645L470.038 61.555L470.143 61.0675L470.173 62.515V64H467.931V59.035V51.835H470.173V57.1975L470.083 59.7325L469.731 59.395L472.971 55.645H475.603ZM470.916 60.2425L472.431 58.69L475.866 64H473.308L470.916 60.2425ZM476.977 64V55.6525H479.054L479.092 56.545C479.287 56.395 479.532 56.2425 479.827 56.0875C480.127 55.9325 480.452 55.8025 480.802 55.6975C481.152 55.5875 481.509 55.53 481.874 55.525C482.449 55.51 482.922 55.6025 483.292 55.8025C483.662 56.0025 483.937 56.3425 484.117 56.8225C484.297 57.2975 484.387 57.9375 484.387 58.7425V64H482.107V59.08C482.107 58.65 482.072 58.31 482.002 58.06C481.932 57.805 481.807 57.6225 481.627 57.5125C481.452 57.4025 481.202 57.3525 480.877 57.3625C480.657 57.3625 480.394 57.415 480.089 57.52C479.784 57.625 479.507 57.78 479.257 57.985V64H476.977ZM484.289 58.0225L483.869 56.605C484.029 56.465 484.257 56.3125 484.552 56.1475C484.852 55.9775 485.197 55.8325 485.587 55.7125C485.977 55.5875 486.389 55.525 486.824 55.525C487.399 55.52 487.882 55.615 488.272 55.81C488.662 56.005 488.957 56.34 489.157 56.815C489.357 57.29 489.457 57.935 489.457 58.75V64H487.162V59.0725C487.162 58.6425 487.127 58.3025 487.057 58.0525C486.992 57.7975 486.869 57.6175 486.689 57.5125C486.514 57.4025 486.262 57.3525 485.932 57.3625C485.647 57.3625 485.352 57.4325 485.047 57.5725C484.747 57.7075 484.494 57.8575 484.289 58.0225ZM492.831 64.165C492.446 64.165 492.126 64.0325 491.871 63.7675C491.616 63.5025 491.486 63.175 491.481 62.785C491.481 62.51 491.546 62.2575 491.676 62.0275C491.811 61.7975 491.988 61.6125 492.208 61.4725C492.433 61.3325 492.678 61.2625 492.943 61.2625C493.363 61.2625 493.691 61.3975 493.926 61.6675C494.161 61.9325 494.281 62.255 494.286 62.635C494.291 62.91 494.226 63.165 494.091 63.4C493.961 63.63 493.786 63.815 493.566 63.955C493.346 64.095 493.101 64.165 492.831 64.165ZM497.135 51.01C497.28 51.105 497.488 51.2775 497.758 51.5275C498.033 51.7725 498.328 52.1025 498.643 52.5175C498.958 52.9275 499.258 53.4325 499.543 54.0325C499.828 54.6275 500.063 55.3225 500.248 56.1175C500.433 56.9125 500.525 57.8125 500.525 58.8175C500.525 59.7025 500.435 60.515 500.255 61.255C500.08 61.995 499.853 62.6625 499.573 63.2575C499.293 63.8525 498.995 64.3675 498.68 64.8025C498.37 65.2375 498.075 65.59 497.795 65.86C497.515 66.13 497.295 66.315 497.135 66.415L495.845 65.6125C496.005 65.4825 496.23 65.2425 496.52 64.8925C496.81 64.5425 497.105 64.085 497.405 63.52C497.705 62.95 497.96 62.2725 498.17 61.4875C498.385 60.6975 498.498 59.7975 498.508 58.7875C498.518 57.9825 498.46 57.25 498.335 56.59C498.215 55.93 498.053 55.3375 497.848 54.8125C497.648 54.2825 497.425 53.8225 497.18 53.4325C496.94 53.0375 496.703 52.705 496.468 52.435C496.233 52.165 496.025 51.9575 495.845 51.8125L497.135 51.01Z" fill="#323232"/>
<path d="M444.179 90.5575C444.034 90.4625 443.824 90.29 443.549 90.04C443.279 89.795 442.986 89.465 442.671 89.05C442.356 88.64 442.056 88.1375 441.771 87.5425C441.486 86.9425 441.251 86.245 441.066 85.45C440.881 84.655 440.789 83.755 440.789 82.75C440.789 81.865 440.876 81.0525 441.051 80.3125C441.231 79.5725 441.461 78.905 441.741 78.31C442.021 77.715 442.316 77.2 442.626 76.765C442.941 76.33 443.239 75.9775 443.519 75.7075C443.799 75.4375 444.019 75.2525 444.179 75.1525L445.469 75.955C445.309 76.085 445.084 76.325 444.794 76.675C444.504 77.025 444.209 77.485 443.909 78.055C443.609 78.62 443.351 79.2975 443.136 80.0875C442.926 80.8725 442.816 81.77 442.806 82.78C442.796 83.585 442.851 84.3175 442.971 84.9775C443.096 85.6375 443.259 86.2325 443.459 86.7625C443.664 87.2875 443.886 87.745 444.126 88.135C444.371 88.53 444.611 88.8625 444.846 89.1325C445.081 89.4025 445.289 89.61 445.469 89.755L444.179 90.5575ZM447.06 87.8575L447.045 86.3425C447.285 86.3925 447.535 86.4375 447.795 86.4775C448.055 86.5125 448.295 86.53 448.515 86.53C449.12 86.53 449.655 86.4525 450.12 86.2975C450.585 86.1425 450.948 85.9225 451.208 85.6375C451.468 85.3475 451.598 85.01 451.598 84.625C451.598 84.33 451.53 84.06 451.395 83.815C451.26 83.565 451.04 83.37 450.735 83.23C450.43 83.09 450.023 83.035 449.513 83.065L448.635 83.2675L448.29 81.805C448.59 81.75 448.875 81.6825 449.145 81.6025C449.415 81.5175 449.653 81.4225 449.858 81.3175C450.263 81.1225 450.568 80.89 450.773 80.62C450.983 80.345 451.093 80.045 451.103 79.72C451.123 79.295 450.993 78.98 450.713 78.775C450.433 78.57 450.07 78.4675 449.625 78.4675C449.115 78.4675 448.678 78.55 448.313 78.715C447.953 78.875 447.643 79.0475 447.383 79.2325L446.663 77.83C446.823 77.68 447.078 77.5175 447.428 77.3425C447.778 77.1675 448.18 77.02 448.635 76.9C449.09 76.775 449.553 76.7125 450.023 76.7125C450.708 76.7125 451.305 76.815 451.815 77.02C452.325 77.225 452.72 77.5225 453 77.9125C453.285 78.2975 453.428 78.7675 453.428 79.3225C453.428 79.8125 453.323 80.2525 453.113 80.6425C452.903 81.0275 452.618 81.36 452.258 81.64C451.898 81.92 451.495 82.15 451.05 82.33V82.09C451.735 82.1 452.295 82.235 452.73 82.495C453.17 82.75 453.495 83.08 453.705 83.485C453.915 83.885 454.02 84.3075 454.02 84.7525C454.02 85.3575 453.815 85.92 453.405 86.44C453 86.955 452.425 87.37 451.68 87.685C450.94 88 450.068 88.1575 449.063 88.1575C448.653 88.1575 448.28 88.1225 447.945 88.0525C447.61 87.9875 447.315 87.9225 447.06 87.8575ZM459.851 88.12C459.071 88.12 458.403 87.96 457.848 87.64C457.298 87.32 456.848 86.885 456.498 86.335C456.153 85.78 455.901 85.1525 455.741 84.4525C455.581 83.7475 455.503 83.0125 455.508 82.2475C455.523 81.1225 455.731 80.1475 456.131 79.3225C456.536 78.4925 457.076 77.8525 457.751 77.4025C458.426 76.9525 459.186 76.7275 460.031 76.7275C460.821 76.7275 461.488 76.8775 462.033 77.1775C462.583 77.4725 463.026 77.88 463.361 78.4C463.701 78.92 463.946 79.52 464.096 80.2C464.246 80.875 464.318 81.5925 464.313 82.3525C464.303 83.5125 464.106 84.525 463.721 85.39C463.341 86.25 462.816 86.92 462.146 87.4C461.476 87.88 460.711 88.12 459.851 88.12ZM459.911 86.365C460.556 86.37 461.046 86.0525 461.381 85.4125C461.721 84.7725 461.891 83.7775 461.891 82.4275C461.891 81.6275 461.821 80.9325 461.681 80.3425C461.541 79.7525 461.326 79.295 461.036 78.97C460.746 78.645 460.381 78.4825 459.941 78.4825C459.296 78.4825 458.801 78.7925 458.456 79.4125C458.116 80.0325 457.946 80.9575 457.946 82.1875C457.946 82.9825 458.016 83.695 458.156 84.325C458.301 84.95 458.518 85.445 458.808 85.81C459.098 86.175 459.466 86.36 459.911 86.365ZM468.979 88V79.6525H471.056L471.094 80.545C471.289 80.395 471.534 80.2425 471.829 80.0875C472.129 79.9325 472.454 79.8025 472.804 79.6975C473.154 79.5875 473.511 79.53 473.876 79.525C474.451 79.51 474.924 79.6025 475.294 79.8025C475.664 80.0025 475.939 80.3425 476.119 80.8225C476.299 81.2975 476.389 81.9375 476.389 82.7425V88H474.109V83.08C474.109 82.65 474.074 82.31 474.004 82.06C473.934 81.805 473.809 81.6225 473.629 81.5125C473.454 81.4025 473.204 81.3525 472.879 81.3625C472.659 81.3625 472.396 81.415 472.091 81.52C471.786 81.625 471.509 81.78 471.259 81.985V88H468.979ZM476.291 82.0225L475.871 80.605C476.031 80.465 476.259 80.3125 476.554 80.1475C476.854 79.9775 477.199 79.8325 477.589 79.7125C477.979 79.5875 478.391 79.525 478.826 79.525C479.401 79.52 479.884 79.615 480.274 79.81C480.664 80.005 480.959 80.34 481.159 80.815C481.359 81.29 481.459 81.935 481.459 82.75V88H479.164V83.0725C479.164 82.6425 479.129 82.3025 479.059 82.0525C478.994 81.7975 478.871 81.6175 478.691 81.5125C478.516 81.4025 478.264 81.3525 477.934 81.3625C477.649 81.3625 477.354 81.4325 477.049 81.5725C476.749 81.7075 476.496 81.8575 476.291 82.0225ZM483.745 88V79.6525H486.033V88H483.745ZM484.773 78.445C484.403 78.445 484.09 78.33 483.835 78.1C483.58 77.87 483.453 77.57 483.453 77.2C483.453 76.95 483.52 76.7225 483.655 76.5175C483.795 76.3075 483.975 76.14 484.195 76.015C484.42 75.89 484.66 75.8275 484.915 75.8275C485.325 75.8275 485.645 75.945 485.875 76.18C486.11 76.41 486.228 76.7075 486.228 77.0725C486.228 77.4525 486.083 77.7775 485.793 78.0475C485.508 78.3125 485.168 78.445 484.773 78.445ZM488.417 88V79.6525H490.495L490.532 80.59C490.722 80.43 490.965 80.27 491.26 80.11C491.555 79.945 491.88 79.8075 492.235 79.6975C492.595 79.5875 492.957 79.53 493.322 79.525C494.192 79.505 494.832 79.7375 495.242 80.2225C495.652 80.7025 495.857 81.5475 495.857 82.7575V88H493.562V83.08C493.562 82.43 493.477 81.975 493.307 81.715C493.137 81.455 492.805 81.335 492.31 81.355C492.16 81.36 491.99 81.3875 491.8 81.4375C491.615 81.4825 491.425 81.5525 491.23 81.6475C491.04 81.7375 490.862 81.85 490.697 81.985V88H488.417ZM498.82 75.01C498.965 75.105 499.172 75.2775 499.442 75.5275C499.717 75.7725 500.012 76.1025 500.327 76.5175C500.642 76.9275 500.942 77.4325 501.227 78.0325C501.512 78.6275 501.747 79.3225 501.932 80.1175C502.117 80.9125 502.21 81.8125 502.21 82.8175C502.21 83.7025 502.12 84.515 501.94 85.255C501.765 85.995 501.537 86.6625 501.257 87.2575C500.977 87.8525 500.68 88.3675 500.365 88.8025C500.055 89.2375 499.76 89.59 499.48 89.86C499.2 90.13 498.98 90.315 498.82 90.415L497.53 89.6125C497.69 89.4825 497.915 89.2425 498.205 88.8925C498.495 88.5425 498.79 88.085 499.09 87.52C499.39 86.95 499.645 86.2725 499.855 85.4875C500.07 84.6975 500.182 83.7975 500.192 82.7875C500.202 81.9825 500.145 81.25 500.02 80.59C499.9 79.93 499.737 79.3375 499.532 78.8125C499.332 78.2825 499.11 77.8225 498.865 77.4325C498.625 77.0375 498.387 76.705 498.152 76.435C497.917 76.165 497.71 75.9575 497.53 75.8125L498.82 75.01Z" fill="#323232"/>
</svg>
