<svg width="1052" height="153" viewBox="0 0 1052 153" fill="none" xmlns="http://www.w3.org/2000/svg">
<path d="M71 0C58.845 0 49 1.375 49 11V37.125C49 42.4325 53.3175 46.75 58.625 46.75L54.5 50.875V52.25H87.5V50.875L83.375 46.75C88.6825 46.75 93 42.4325 93 37.125V11C93 1.375 83.155 0 71 0ZM58.625 41.25C56.3425 41.25 54.5 39.4075 54.5 37.125C54.5 34.8425 56.3425 33 58.625 33C60.9075 33 62.75 34.8425 62.75 37.125C62.75 39.4075 60.9075 41.25 58.625 41.25ZM68.25 24.75H54.5V11H68.25V24.75ZM83.375 41.25C81.0925 41.25 79.25 39.4075 79.25 37.125C79.25 34.8425 81.0925 33 83.375 33C85.6575 33 87.5 34.8425 87.5 37.125C87.5 39.4075 85.6575 41.25 83.375 41.25ZM87.5 24.75H73.75V11H87.5V24.75Z" fill="#711F00"/>
<path d="M15.6116 81.63C15.6116 80.3967 15.795 79.3067 16.1616 78.36C16.535 77.4133 17.045 76.6133 17.6916 75.96C18.3383 75.3067 19.0783 74.8133 19.9116 74.48C20.7516 74.1467 21.635 73.98 22.5616 73.98C23.3083 73.98 23.935 74.02 24.4416 74.1C24.955 74.1733 25.375 74.2533 25.7016 74.34C26.0283 74.4267 26.2916 74.4933 26.4916 74.54L26.1516 76.63C26.045 76.5633 25.8616 76.47 25.6016 76.35C25.3416 76.23 24.9783 76.12 24.5116 76.02C24.045 75.9133 23.445 75.86 22.7116 75.86C21.7516 75.86 20.915 76.09 20.2016 76.55C19.4883 77.0033 18.935 77.6533 18.5416 78.5C18.155 79.34 17.9616 80.3367 17.9616 81.49C17.9616 82.6233 18.1516 83.63 18.5316 84.51C18.9183 85.3833 19.4716 86.07 20.1916 86.57C20.9116 87.07 21.7683 87.32 22.7616 87.32C23.255 87.32 23.745 87.2733 24.2316 87.18C24.725 87.0867 25.1616 86.97 25.5416 86.83C25.9283 86.69 26.2083 86.5467 26.3816 86.4V88.38C26.095 88.4933 25.7783 88.61 25.4316 88.73C25.085 88.85 24.685 88.95 24.2316 89.03C23.785 89.1167 23.255 89.16 22.6416 89.16C21.2216 89.16 19.985 88.8467 18.9316 88.22C17.8783 87.5867 17.0616 86.7067 16.4816 85.58C15.9016 84.4467 15.6116 83.13 15.6116 81.63ZM29.1846 89V72.74H31.4846V77.32L31.3646 79.33L31.2546 79.07C31.5213 78.8567 31.8613 78.6467 32.2746 78.44C32.6879 78.2333 33.1346 78.0633 33.6146 77.93C34.0946 77.79 34.5713 77.7133 35.0446 77.7C36.2579 77.6667 37.1379 78 37.6846 78.7C38.2379 79.4 38.5146 80.5633 38.5146 82.19V89H36.2146V82.17C36.2146 81.2567 36.0713 80.5967 35.7846 80.19C35.5046 79.7833 34.9579 79.6 34.1446 79.64C33.7913 79.6467 33.3679 79.73 32.8746 79.89C32.3813 80.05 31.9179 80.2933 31.4846 80.62V89H29.1846ZM44.3151 89.16C43.6484 89.16 43.0551 89.03 42.5351 88.77C42.0217 88.5033 41.6151 88.13 41.3151 87.65C41.0217 87.1633 40.8751 86.59 40.8751 85.93C40.8751 85.2167 41.0651 84.6133 41.4451 84.12C41.8317 83.62 42.3484 83.23 42.9951 82.95C43.4217 82.7767 43.8851 82.64 44.3851 82.54C44.8851 82.4333 45.3851 82.36 45.8851 82.32C46.3851 82.2733 46.8484 82.25 47.2751 82.25L47.7551 82.86L47.2751 83.67C47.0151 83.67 46.7017 83.69 46.3351 83.73C45.9751 83.7633 45.6184 83.82 45.2651 83.9C44.9117 83.9733 44.6117 84.07 44.3651 84.19C44.0251 84.3433 43.7417 84.54 43.5151 84.78C43.2884 85.02 43.1751 85.3533 43.1751 85.78C43.1751 86.34 43.3284 86.7633 43.6351 87.05C43.9484 87.3367 44.4117 87.48 45.0251 87.48C45.3384 87.48 45.6551 87.4333 45.9751 87.34C46.2951 87.2467 46.5717 87.14 46.8051 87.02C47.0451 86.9 47.2017 86.7967 47.2751 86.71L47.7351 87.2L47.4051 88.06C47.1117 88.3267 46.6884 88.5767 46.1351 88.81C45.5817 89.0433 44.9751 89.16 44.3151 89.16ZM49.5851 89H47.4051V87.34H47.2751V81.2C47.2751 80.5467 47.1017 80.1167 46.7551 79.91C46.4151 79.6967 45.9284 79.59 45.2951 79.59C44.8751 79.59 44.4417 79.6333 43.9951 79.72C43.5484 79.8 43.1384 79.9033 42.7651 80.03C42.3917 80.15 42.1051 80.2733 41.9051 80.4L41.3651 78.74C41.5184 78.6467 41.8117 78.5167 42.2451 78.35C42.6851 78.1833 43.1951 78.0333 43.7751 77.9C44.3617 77.76 44.9417 77.69 45.5151 77.69C46.3484 77.69 47.0684 77.7867 47.6751 77.98C48.2884 78.1733 48.7584 78.5333 49.0851 79.06C49.4184 79.58 49.5851 80.3367 49.5851 81.33V89ZM52.847 89V77.88H54.917L54.927 79.06C55.2003 78.8733 55.5436 78.6767 55.957 78.47C56.377 78.2633 56.827 78.0867 57.307 77.94C57.7936 77.7933 58.277 77.7133 58.757 77.7C59.9503 77.6667 60.807 77.9767 61.327 78.63C61.847 79.2767 62.107 80.4167 62.107 82.05V89H59.787V82.17C59.787 81.2367 59.6603 80.5667 59.407 80.16C59.1603 79.7533 58.6203 79.5733 57.787 79.62C57.5536 79.6267 57.2836 79.67 56.977 79.75C56.677 79.8233 56.367 79.9333 56.047 80.08C55.7336 80.22 55.4336 80.4 55.147 80.62V89H52.847ZM72.1841 89V87.52L72.0641 87.46V79.58L72.1441 79.52L72.0641 77.32V72.74H74.3641V89H72.1841ZM69.0741 89.16C68.2941 89.16 67.5675 88.9667 66.8941 88.58C66.2275 88.1933 65.6875 87.6067 65.2741 86.82C64.8675 86.0333 64.6641 85.0367 64.6641 83.83C64.6641 82.6233 64.8975 81.5633 65.3641 80.65C65.8308 79.73 66.4808 79.0133 67.3141 78.5C68.1541 77.98 69.1375 77.72 70.2641 77.72C70.9508 77.72 71.5275 77.8033 71.9941 77.97C72.4608 78.13 72.7575 78.2667 72.8841 78.38L72.0641 79.85C71.8641 79.6767 71.5975 79.5567 71.2641 79.49C70.9375 79.4233 70.5475 79.39 70.0941 79.39C69.5275 79.39 69.0141 79.5467 68.5541 79.86C68.1008 80.1733 67.7375 80.64 67.4641 81.26C67.1908 81.88 67.0508 82.6467 67.0441 83.56C67.0241 84.8667 67.2508 85.8233 67.7241 86.43C68.1975 87.0367 68.8608 87.34 69.7141 87.34C70.2341 87.34 70.6975 87.2433 71.1041 87.05C71.5175 86.8567 71.8375 86.67 72.0641 86.49L72.4441 87.63C72.2841 87.7967 72.0708 88 71.8041 88.24C71.5375 88.48 71.1841 88.6933 70.7441 88.88C70.3041 89.0667 69.7475 89.16 69.0741 89.16ZM79.6902 80.82L79.5502 79.3C79.6502 79.0933 79.8602 78.8667 80.1802 78.62C80.5002 78.3667 80.8769 78.15 81.3102 77.97C81.7502 77.79 82.1969 77.7 82.6502 77.7C82.9036 77.7 83.1202 77.71 83.3002 77.73C83.4869 77.75 83.6236 77.7867 83.7102 77.84V80C83.6102 79.9467 83.4569 79.89 83.2502 79.83C83.0502 79.77 82.7236 79.74 82.2702 79.74C81.8569 79.74 81.4836 79.8 81.1502 79.92C80.8236 80.0333 80.5369 80.1733 80.2902 80.34C80.0436 80.5067 79.8436 80.6667 79.6902 80.82ZM77.5102 89V77.88H79.4702L79.6302 79.3L79.8102 80.14V89H77.5102ZM88.026 89.16C87.3593 89.16 86.766 89.03 86.246 88.77C85.7327 88.5033 85.326 88.13 85.026 87.65C84.7327 87.1633 84.586 86.59 84.586 85.93C84.586 85.2167 84.776 84.6133 85.156 84.12C85.5427 83.62 86.0593 83.23 86.706 82.95C87.1327 82.7767 87.596 82.64 88.096 82.54C88.596 82.4333 89.096 82.36 89.596 82.32C90.096 82.2733 90.5593 82.25 90.986 82.25L91.466 82.86L90.986 83.67C90.726 83.67 90.4127 83.69 90.046 83.73C89.686 83.7633 89.3293 83.82 88.976 83.9C88.6227 83.9733 88.3227 84.07 88.076 84.19C87.736 84.3433 87.4527 84.54 87.226 84.78C86.9993 85.02 86.886 85.3533 86.886 85.78C86.886 86.34 87.0393 86.7633 87.346 87.05C87.6593 87.3367 88.1227 87.48 88.736 87.48C89.0493 87.48 89.366 87.4333 89.686 87.34C90.006 87.2467 90.2827 87.14 90.516 87.02C90.756 86.9 90.9127 86.7967 90.986 86.71L91.446 87.2L91.116 88.06C90.8227 88.3267 90.3993 88.5767 89.846 88.81C89.2927 89.0433 88.686 89.16 88.026 89.16ZM93.296 89H91.116V87.34H90.986V81.2C90.986 80.5467 90.8127 80.1167 90.466 79.91C90.126 79.6967 89.6393 79.59 89.006 79.59C88.586 79.59 88.1527 79.6333 87.706 79.72C87.2593 79.8 86.8493 79.9033 86.476 80.03C86.1027 80.15 85.816 80.2733 85.616 80.4L85.076 78.74C85.2293 78.6467 85.5227 78.5167 85.956 78.35C86.396 78.1833 86.906 78.0333 87.486 77.9C88.0727 77.76 88.6527 77.69 89.226 77.69C90.0593 77.69 90.7793 77.7867 91.386 77.98C91.9993 78.1733 92.4693 78.5333 92.796 79.06C93.1293 79.58 93.296 80.3367 93.296 81.33V89ZM96.4579 93.94V77.86H98.5579V79.22L98.7579 79.46V88.08L98.7379 88.54L98.7579 90.36V93.94H96.4579ZM100.568 89.16C99.8812 89.16 99.3079 89.0733 98.8479 88.9C98.3879 88.7267 98.0912 88.5867 97.9579 88.48L98.7579 87C98.9712 87.18 99.2379 87.31 99.5579 87.39C99.8846 87.4633 100.275 87.5 100.728 87.5C101.301 87.5 101.818 87.34 102.278 87.02C102.738 86.6933 103.101 86.22 103.368 85.6C103.641 84.9733 103.785 84.21 103.798 83.31C103.811 81.9767 103.578 81.01 103.098 80.41C102.625 79.8033 101.961 79.5 101.108 79.5C100.588 79.5 100.125 79.6 99.7179 79.8C99.3179 79.9933 98.9979 80.1833 98.7579 80.37L98.3979 79.23C98.5512 79.07 98.7612 78.87 99.0279 78.63C99.2946 78.39 99.6479 78.18 100.088 78C100.528 77.8133 101.081 77.72 101.748 77.72C102.535 77.72 103.261 77.9133 103.928 78.3C104.601 78.68 105.141 79.2633 105.548 80.05C105.955 80.83 106.158 81.82 106.158 83.02C106.158 84.2267 105.925 85.2933 105.458 86.22C104.998 87.14 104.348 87.86 103.508 88.38C102.675 88.9 101.695 89.16 100.568 89.16ZM111.924 89.16C111.197 89.16 110.611 89.0467 110.164 88.82C109.717 88.5933 109.377 88.27 109.144 87.85C108.911 87.4233 108.751 86.9167 108.664 86.33C108.584 85.7433 108.544 85.0933 108.544 84.38V77.86H110.844V84.36C110.844 85.24 110.911 85.8867 111.044 86.3C111.184 86.7133 111.397 86.98 111.684 87.1C111.977 87.22 112.357 87.28 112.824 87.28C113.097 87.28 113.387 87.24 113.694 87.16C114.007 87.0733 114.301 86.9733 114.574 86.86C114.847 86.74 115.064 86.6267 115.224 86.52V77.86H117.524V89.16H116.464C116.157 89.16 115.914 89.1133 115.734 89.02C115.554 88.9333 115.464 88.7067 115.464 88.34V87.56L115.504 88C115.204 88.2 114.851 88.39 114.444 88.57C114.044 88.7433 113.624 88.8867 113.184 89C112.744 89.1067 112.324 89.16 111.924 89.16ZM122.952 80.82L122.812 79.3C122.912 79.0933 123.122 78.8667 123.442 78.62C123.762 78.3667 124.139 78.15 124.572 77.97C125.012 77.79 125.459 77.7 125.912 77.7C126.165 77.7 126.382 77.71 126.562 77.73C126.749 77.75 126.885 77.7867 126.972 77.84V80C126.872 79.9467 126.719 79.89 126.512 79.83C126.312 79.77 125.985 79.74 125.532 79.74C125.119 79.74 124.745 79.8 124.412 79.92C124.085 80.0333 123.799 80.1733 123.552 80.34C123.305 80.5067 123.105 80.6667 122.952 80.82ZM120.772 89V77.88H122.732L122.892 79.3L123.072 80.14V89H120.772ZM4.30938 109.82L4.16938 108.3C4.26938 108.093 4.47938 107.867 4.79938 107.62C5.11938 107.367 5.49604 107.15 5.92938 106.97C6.36938 106.79 6.81604 106.7 7.26938 106.7C7.52271 106.7 7.73938 106.71 7.91938 106.73C8.10604 106.75 8.24271 106.787 8.32938 106.84V109C8.22938 108.947 8.07604 108.89 7.86938 108.83C7.66938 108.77 7.34271 108.74 6.88938 108.74C6.47604 108.74 6.10271 108.8 5.76938 108.92C5.44271 109.033 5.15604 109.173 4.90938 109.34C4.66271 109.507 4.46271 109.667 4.30938 109.82ZM2.12938 118V106.88H4.08938L4.24938 108.3L4.42938 109.14V118H2.12938ZM12.6452 118.16C11.9785 118.16 11.3852 118.03 10.8652 117.77C10.3518 117.503 9.94516 117.13 9.64516 116.65C9.35182 116.163 9.20516 115.59 9.20516 114.93C9.20516 114.217 9.39516 113.613 9.77516 113.12C10.1618 112.62 10.6785 112.23 11.3252 111.95C11.7518 111.777 12.2152 111.64 12.7152 111.54C13.2152 111.433 13.7152 111.36 14.2152 111.32C14.7152 111.273 15.1785 111.25 15.6052 111.25L16.0852 111.86L15.6052 112.67C15.3452 112.67 15.0318 112.69 14.6652 112.73C14.3052 112.763 13.9485 112.82 13.5952 112.9C13.2418 112.973 12.9418 113.07 12.6952 113.19C12.3552 113.343 12.0718 113.54 11.8452 113.78C11.6185 114.02 11.5052 114.353 11.5052 114.78C11.5052 115.34 11.6585 115.763 11.9652 116.05C12.2785 116.337 12.7418 116.48 13.3552 116.48C13.6685 116.48 13.9852 116.433 14.3052 116.34C14.6252 116.247 14.9018 116.14 15.1352 116.02C15.3752 115.9 15.5318 115.797 15.6052 115.71L16.0652 116.2L15.7352 117.06C15.4418 117.327 15.0185 117.577 14.4652 117.81C13.9118 118.043 13.3052 118.16 12.6452 118.16ZM17.9152 118H15.7352V116.34H15.6052V110.2C15.6052 109.547 15.4318 109.117 15.0852 108.91C14.7452 108.697 14.2585 108.59 13.6252 108.59C13.2052 108.59 12.7718 108.633 12.3252 108.72C11.8785 108.8 11.4685 108.903 11.0952 109.03C10.7218 109.15 10.4352 109.273 10.2352 109.4L9.69516 107.74C9.84849 107.647 10.1418 107.517 10.5752 107.35C11.0152 107.183 11.5252 107.033 12.1052 106.9C12.6918 106.76 13.2718 106.69 13.8452 106.69C14.6785 106.69 15.3985 106.787 16.0052 106.98C16.6185 107.173 17.0885 107.533 17.4152 108.06C17.7485 108.58 17.9152 109.337 17.9152 110.33V118ZM21.257 118V106.88H23.557V118H21.257ZM22.277 104.91C21.8904 104.91 21.5504 104.787 21.257 104.54C20.9704 104.293 20.827 103.957 20.827 103.53C20.827 103.237 20.907 102.973 21.067 102.74C21.2337 102.5 21.4437 102.31 21.697 102.17C21.9504 102.023 22.2137 101.95 22.487 101.95C22.9604 101.95 23.317 102.083 23.557 102.35C23.797 102.617 23.917 102.943 23.917 103.33C23.917 103.79 23.7504 104.17 23.417 104.47C23.0904 104.763 22.7104 104.91 22.277 104.91ZM27.1555 118V101.74H29.4755V118H27.1555ZM34.8734 118.16L31.4734 106.86H33.7834L35.5134 113.31L36.3234 116.91H35.7034L36.4634 113.33L38.2734 106.86H40.5334L42.3434 113.31L43.1134 116.87H42.5334L43.3234 113.38L44.9834 106.86H47.2334L43.8234 118.16H41.7134L39.7534 111.12L39.1434 108.12H39.6234L38.9734 111.12L37.0534 118.16H34.8734ZM51.7858 118.16C51.1191 118.16 50.5258 118.03 50.0058 117.77C49.4924 117.503 49.0858 117.13 48.7858 116.65C48.4924 116.163 48.3458 115.59 48.3458 114.93C48.3458 114.217 48.5358 113.613 48.9158 113.12C49.3024 112.62 49.8191 112.23 50.4658 111.95C50.8924 111.777 51.3558 111.64 51.8558 111.54C52.3558 111.433 52.8558 111.36 53.3558 111.32C53.8558 111.273 54.3191 111.25 54.7458 111.25L55.2258 111.86L54.7458 112.67C54.4858 112.67 54.1724 112.69 53.8058 112.73C53.4458 112.763 53.0891 112.82 52.7358 112.9C52.3824 112.973 52.0824 113.07 51.8358 113.19C51.4958 113.343 51.2124 113.54 50.9858 113.78C50.7591 114.02 50.6458 114.353 50.6458 114.78C50.6458 115.34 50.7991 115.763 51.1058 116.05C51.4191 116.337 51.8824 116.48 52.4958 116.48C52.8091 116.48 53.1258 116.433 53.4458 116.34C53.7658 116.247 54.0424 116.14 54.2758 116.02C54.5158 115.9 54.6724 115.797 54.7458 115.71L55.2058 116.2L54.8758 117.06C54.5824 117.327 54.1591 117.577 53.6058 117.81C53.0524 118.043 52.4458 118.16 51.7858 118.16ZM57.0558 118H54.8758V116.34H54.7458V110.2C54.7458 109.547 54.5724 109.117 54.2258 108.91C53.8858 108.697 53.3991 108.59 52.7658 108.59C52.3458 108.59 51.9124 108.633 51.4658 108.72C51.0191 108.8 50.6091 108.903 50.2358 109.03C49.8624 109.15 49.5758 109.273 49.3758 109.4L48.8358 107.74C48.9891 107.647 49.2824 107.517 49.7158 107.35C50.1558 107.183 50.6658 107.033 51.2458 106.9C51.8324 106.76 52.4124 106.69 52.9858 106.69C53.8191 106.69 54.5391 106.787 55.1458 106.98C55.7591 107.173 56.2291 107.533 56.5558 108.06C56.8891 108.58 57.0558 109.337 57.0558 110.33V118ZM59.9777 122.8V120.92C60.091 120.96 60.2543 120.993 60.4677 121.02C60.6877 121.047 60.851 121.06 60.9577 121.06C61.2377 121.06 61.571 120.98 61.9577 120.82C62.3443 120.667 62.7143 120.35 63.0677 119.87C63.4277 119.397 63.7043 118.68 63.8977 117.72L64.0377 118H63.0777L59.0977 106.86H61.5777L63.8977 114.08L64.8377 117.2H64.2377L65.0577 114.08L67.0377 106.86H69.5177L65.8177 118.34C65.3777 119.68 64.8543 120.703 64.2477 121.41C63.641 122.123 62.9777 122.58 62.2577 122.78C62.1177 122.827 61.9343 122.867 61.7077 122.9C61.481 122.94 61.291 122.96 61.1377 122.96C61.0377 122.96 60.9043 122.95 60.7377 122.93C60.571 122.917 60.411 122.897 60.2577 122.87C60.111 122.85 60.0177 122.827 59.9777 122.8ZM74.247 117.34L74.567 115.64C74.667 115.713 74.8737 115.813 75.187 115.94C75.507 116.06 75.887 116.173 76.327 116.28C76.7737 116.38 77.2337 116.433 77.707 116.44C78.347 116.447 78.8337 116.337 79.167 116.11C79.5004 115.883 79.667 115.567 79.667 115.16C79.667 114.873 79.567 114.623 79.367 114.41C79.167 114.197 78.8904 114 78.537 113.82C78.1904 113.633 77.7937 113.44 77.347 113.24C76.747 112.967 76.217 112.67 75.757 112.35C75.297 112.03 74.937 111.653 74.677 111.22C74.4237 110.787 74.3004 110.267 74.307 109.66C74.3204 109 74.5104 108.453 74.877 108.02C75.2504 107.58 75.7437 107.253 76.357 107.04C76.9704 106.827 77.6537 106.72 78.407 106.72C79.107 106.72 79.7204 106.793 80.247 106.94C80.7737 107.08 81.1204 107.2 81.287 107.3L80.947 109.04C80.827 108.94 80.6404 108.843 80.387 108.75C80.1404 108.65 79.8537 108.57 79.527 108.51C79.2004 108.45 78.867 108.42 78.527 108.42C77.847 108.42 77.3337 108.52 76.987 108.72C76.6404 108.913 76.4604 109.187 76.447 109.54C76.4404 110.027 76.607 110.39 76.947 110.63C77.2937 110.87 77.707 111.107 78.187 111.34C78.8737 111.673 79.4937 112.003 80.047 112.33C80.6004 112.65 81.037 113.02 81.357 113.44C81.6837 113.853 81.847 114.367 81.847 114.98C81.847 116.02 81.4904 116.81 80.777 117.35C80.0637 117.89 79.087 118.16 77.847 118.16C77.3337 118.16 76.8337 118.12 76.347 118.04C75.867 117.96 75.4404 117.857 75.067 117.73C74.7004 117.603 74.427 117.473 74.247 117.34ZM87.6364 118.16C87.1097 118.16 86.6464 118.077 86.2464 117.91C85.8464 117.743 85.5331 117.45 85.3064 117.03C85.0864 116.603 84.9764 116 84.9764 115.22V108.56H83.5364V107.32C84.0297 107.18 84.4064 107.063 84.6664 106.97C84.9264 106.87 85.1164 106.66 85.2364 106.34C85.2897 106.193 85.3497 106.02 85.4164 105.82C85.4831 105.613 85.5564 105.387 85.6364 105.14C85.7164 104.887 85.8031 104.613 85.8964 104.32H87.2764V106.86H90.3964V108.56H87.2764V114C87.2764 114.72 87.3064 115.247 87.3664 115.58C87.4331 115.907 87.5531 116.117 87.7264 116.21C87.9064 116.297 88.1697 116.34 88.5164 116.34C88.7031 116.34 88.9164 116.32 89.1564 116.28C89.4031 116.233 89.6364 116.177 89.8564 116.11C90.0831 116.043 90.2564 115.973 90.3764 115.9L90.7564 117.22C90.5564 117.373 90.2864 117.523 89.9464 117.67C89.6131 117.81 89.2431 117.927 88.8364 118.02C88.4364 118.113 88.0364 118.16 87.6364 118.16ZM95.6334 118.16C94.9668 118.16 94.3734 118.03 93.8534 117.77C93.3401 117.503 92.9334 117.13 92.6334 116.65C92.3401 116.163 92.1934 115.59 92.1934 114.93C92.1934 114.217 92.3834 113.613 92.7634 113.12C93.1501 112.62 93.6668 112.23 94.3134 111.95C94.7401 111.777 95.2034 111.64 95.7034 111.54C96.2034 111.433 96.7034 111.36 97.2034 111.32C97.7034 111.273 98.1668 111.25 98.5934 111.25L99.0734 111.86L98.5934 112.67C98.3334 112.67 98.0201 112.69 97.6534 112.73C97.2934 112.763 96.9368 112.82 96.5834 112.9C96.2301 112.973 95.9301 113.07 95.6834 113.19C95.3434 113.343 95.0601 113.54 94.8334 113.78C94.6068 114.02 94.4934 114.353 94.4934 114.78C94.4934 115.34 94.6468 115.763 94.9534 116.05C95.2668 116.337 95.7301 116.48 96.3434 116.48C96.6568 116.48 96.9734 116.433 97.2934 116.34C97.6134 116.247 97.8901 116.14 98.1234 116.02C98.3634 115.9 98.5201 115.797 98.5934 115.71L99.0534 116.2L98.7234 117.06C98.4301 117.327 98.0068 117.577 97.4534 117.81C96.9001 118.043 96.2934 118.16 95.6334 118.16ZM100.903 118H98.7234V116.34H98.5934V110.2C98.5934 109.547 98.4201 109.117 98.0734 108.91C97.7334 108.697 97.2468 108.59 96.6134 108.59C96.1934 108.59 95.7601 108.633 95.3134 108.72C94.8668 108.8 94.4568 108.903 94.0834 109.03C93.7101 109.15 93.4234 109.273 93.2234 109.4L92.6834 107.74C92.8368 107.647 93.1301 107.517 93.5634 107.35C94.0034 107.183 94.5134 107.033 95.0934 106.9C95.6801 106.76 96.2601 106.69 96.8334 106.69C97.6668 106.69 98.3868 106.787 98.9934 106.98C99.6068 107.173 100.077 107.533 100.403 108.06C100.737 108.58 100.903 109.337 100.903 110.33V118ZM107.265 118.16C106.739 118.16 106.275 118.077 105.875 117.91C105.475 117.743 105.162 117.45 104.935 117.03C104.715 116.603 104.605 116 104.605 115.22V108.56H103.165V107.32C103.659 107.18 104.035 107.063 104.295 106.97C104.555 106.87 104.745 106.66 104.865 106.34C104.919 106.193 104.979 106.02 105.045 105.82C105.112 105.613 105.185 105.387 105.265 105.14C105.345 104.887 105.432 104.613 105.525 104.32H106.905V106.86H110.025V108.56H106.905V114C106.905 114.72 106.935 115.247 106.995 115.58C107.062 115.907 107.182 116.117 107.355 116.21C107.535 116.297 107.799 116.34 108.145 116.34C108.332 116.34 108.545 116.32 108.785 116.28C109.032 116.233 109.265 116.177 109.485 116.11C109.712 116.043 109.885 115.973 110.005 115.9L110.385 117.22C110.185 117.373 109.915 117.523 109.575 117.67C109.242 117.81 108.872 117.927 108.465 118.02C108.065 118.113 107.665 118.16 107.265 118.16ZM112.702 118V106.88H115.002V118H112.702ZM113.722 104.91C113.336 104.91 112.996 104.787 112.702 104.54C112.416 104.293 112.272 103.957 112.272 103.53C112.272 103.237 112.352 102.973 112.512 102.74C112.679 102.5 112.889 102.31 113.142 102.17C113.396 102.023 113.659 101.95 113.932 101.95C114.406 101.95 114.762 102.083 115.002 102.35C115.242 102.617 115.362 102.943 115.362 103.33C115.362 103.79 115.196 104.17 114.862 104.47C114.536 104.763 114.156 104.91 113.722 104.91ZM122.691 118.16C121.784 118.16 121.014 118 120.381 117.68C119.747 117.36 119.234 116.923 118.841 116.37C118.447 115.817 118.161 115.183 117.981 114.47C117.807 113.75 117.724 112.993 117.731 112.2C117.751 111.007 117.987 110.003 118.441 109.19C118.894 108.377 119.507 107.763 120.281 107.35C121.054 106.93 121.924 106.72 122.891 106.72C124.104 106.72 125.074 106.997 125.801 107.55C126.534 108.097 127.061 108.823 127.381 109.73C127.707 110.63 127.864 111.607 127.851 112.66C127.831 113.853 127.594 114.86 127.141 115.68C126.694 116.493 126.084 117.11 125.311 117.53C124.544 117.95 123.671 118.16 122.691 118.16ZM122.751 116.53C123.664 116.543 124.351 116.2 124.811 115.5C125.277 114.793 125.511 113.817 125.511 112.57C125.511 111.797 125.417 111.097 125.231 110.47C125.044 109.837 124.751 109.33 124.351 108.95C123.957 108.57 123.451 108.377 122.831 108.37C121.924 108.35 121.241 108.677 120.781 109.35C120.321 110.023 120.091 110.983 120.091 112.23C120.091 113.003 120.184 113.713 120.371 114.36C120.557 115.007 120.847 115.527 121.241 115.92C121.634 116.313 122.137 116.517 122.751 116.53ZM130.493 118V106.88H132.563L132.573 108.06C132.847 107.873 133.19 107.677 133.603 107.47C134.023 107.263 134.473 107.087 134.953 106.94C135.44 106.793 135.923 106.713 136.403 106.7C137.597 106.667 138.453 106.977 138.973 107.63C139.493 108.277 139.753 109.417 139.753 111.05V118H137.433V111.17C137.433 110.237 137.307 109.567 137.053 109.16C136.807 108.753 136.267 108.573 135.433 108.62C135.2 108.627 134.93 108.67 134.623 108.75C134.323 108.823 134.013 108.933 133.693 109.08C133.38 109.22 133.08 109.4 132.793 109.62V118H130.493Z" fill="#A8481F"/>
<path d="M483.236 29.495V25.48C483.236 24.1875 482.803 22.95 481.99 21.96L471.319 8.98C470.29 7.715 468.773 7 467.148 7H434.485C431.506 7 429.068 9.475 429.068 12.5V34.5C429.068 37.525 431.506 40 434.485 40H434.973C436.11 43.19 439.089 45.5 442.61 45.5C446.131 45.5 449.11 43.19 450.248 40H472.917C474.027 43.19 477.007 45.5 480.555 45.5C485.051 45.5 488.68 41.815 488.68 37.25C488.653 33.675 486.378 30.65 483.236 29.495ZM476.194 23.5H469.694V15.58L476.194 23.5ZM434.485 12.5H445.319V23.5H434.485V12.5ZM442.61 40C441.121 40 439.902 38.7625 439.902 37.25C439.902 35.7375 441.121 34.5 442.61 34.5C444.1 34.5 445.319 35.7375 445.319 37.25C445.319 38.7625 444.1 40 442.61 40ZM450.735 34.5V29H458.861V23.5H450.735V12.5H464.277V34.5H450.735ZM480.528 40C479.038 40 477.819 38.7625 477.819 37.25C477.819 35.7375 479.038 34.5 480.528 34.5C482.017 34.5 483.236 35.7375 483.236 37.25C483.236 38.7625 482.017 40 480.528 40Z" fill="#711F00"/>
<path d="M438.149 90H435.669L441.309 74.98H443.599L449.159 90H446.609L442.899 78.83L442.479 77.4L442.039 78.83L438.149 90ZM438.469 86.35L438.869 84.62H445.689L446.109 86.35H438.469ZM453.944 90.16C453.217 90.16 452.63 90.0467 452.184 89.82C451.737 89.5933 451.397 89.27 451.164 88.85C450.93 88.4233 450.77 87.9167 450.684 87.33C450.604 86.7433 450.564 86.0933 450.564 85.38V78.86H452.864V85.36C452.864 86.24 452.93 86.8867 453.064 87.3C453.204 87.7133 453.417 87.98 453.704 88.1C453.997 88.22 454.377 88.28 454.844 88.28C455.117 88.28 455.407 88.24 455.714 88.16C456.027 88.0733 456.32 87.9733 456.594 87.86C456.867 87.74 457.084 87.6267 457.244 87.52V78.86H459.544V90.16H458.484C458.177 90.16 457.934 90.1133 457.754 90.02C457.574 89.9333 457.484 89.7067 457.484 89.34V88.56L457.524 89C457.224 89.2 456.87 89.39 456.464 89.57C456.064 89.7433 455.644 89.8867 455.204 90C454.764 90.1067 454.344 90.16 453.944 90.16ZM466.092 90.16C465.565 90.16 465.102 90.0767 464.702 89.91C464.302 89.7433 463.988 89.45 463.762 89.03C463.542 88.6033 463.432 88 463.432 87.22V80.56H461.992V79.32C462.485 79.18 462.862 79.0633 463.122 78.97C463.382 78.87 463.572 78.66 463.692 78.34C463.745 78.1933 463.805 78.02 463.872 77.82C463.938 77.6133 464.012 77.3867 464.092 77.14C464.172 76.8867 464.258 76.6133 464.352 76.32H465.732V78.86H468.852V80.56H465.732V86C465.732 86.72 465.762 87.2467 465.822 87.58C465.888 87.9067 466.008 88.1167 466.182 88.21C466.362 88.2967 466.625 88.34 466.972 88.34C467.158 88.34 467.372 88.32 467.612 88.28C467.858 88.2333 468.092 88.1767 468.312 88.11C468.538 88.0433 468.712 87.9733 468.832 87.9L469.212 89.22C469.012 89.3733 468.742 89.5233 468.402 89.67C468.068 89.81 467.698 89.9267 467.292 90.02C466.892 90.1133 466.492 90.16 466.092 90.16ZM475.619 90.16C474.712 90.16 473.942 90 473.309 89.68C472.675 89.36 472.162 88.9233 471.769 88.37C471.375 87.8167 471.089 87.1833 470.909 86.47C470.735 85.75 470.652 84.9933 470.659 84.2C470.679 83.0067 470.915 82.0033 471.369 81.19C471.822 80.3767 472.435 79.7633 473.209 79.35C473.982 78.93 474.852 78.72 475.819 78.72C477.032 78.72 478.002 78.9967 478.729 79.55C479.462 80.0967 479.989 80.8233 480.309 81.73C480.635 82.63 480.792 83.6067 480.779 84.66C480.759 85.8533 480.522 86.86 480.069 87.68C479.622 88.4933 479.012 89.11 478.239 89.53C477.472 89.95 476.599 90.16 475.619 90.16ZM475.679 88.53C476.592 88.5433 477.279 88.2 477.739 87.5C478.205 86.7933 478.439 85.8167 478.439 84.57C478.439 83.7967 478.345 83.0967 478.159 82.47C477.972 81.8367 477.679 81.33 477.279 80.95C476.885 80.57 476.379 80.3767 475.759 80.37C474.852 80.35 474.169 80.6767 473.709 81.35C473.249 82.0233 473.019 82.9833 473.019 84.23C473.019 85.0033 473.112 85.7133 473.299 86.36C473.485 87.0067 473.775 87.5267 474.169 87.92C474.562 88.3133 475.065 88.5167 475.679 88.53Z" fill="#A8481F"/>
<path d="M926.501 0C916.433 0 908.291 8.2945 908.291 18.55C908.291 32.4625 926.501 53 926.501 53C926.501 53 944.711 32.4625 944.711 18.55C944.711 8.2945 936.568 0 926.501 0ZM926.501 25.175C922.911 25.175 919.997 22.207 919.997 18.55C919.997 14.893 922.911 11.925 926.501 11.925C930.091 11.925 933.004 14.893 933.004 18.55C933.004 22.207 930.091 25.175 926.501 25.175Z" fill="#711F00"/>
<path d="M809.071 90.16C808.424 90.16 807.811 90.11 807.231 90.01C806.657 89.9167 806.164 89.8033 805.751 89.67C805.337 89.5367 805.041 89.4133 804.861 89.3L805.351 87.39C805.604 87.5367 805.921 87.68 806.301 87.82C806.681 87.96 807.097 88.0767 807.551 88.17C808.004 88.2567 808.464 88.3 808.931 88.3C809.844 88.3 810.541 88.1467 811.021 87.84C811.501 87.5333 811.741 87.0333 811.741 86.34C811.741 85.8733 811.621 85.4833 811.381 85.17C811.141 84.85 810.781 84.55 810.301 84.27C809.827 83.99 809.234 83.68 808.521 83.34C807.914 83.04 807.324 82.68 806.751 82.26C806.184 81.84 805.717 81.3467 805.351 80.78C804.984 80.2133 804.801 79.5633 804.801 78.83C804.801 78.11 804.941 77.5067 805.221 77.02C805.507 76.5267 805.891 76.13 806.371 75.83C806.851 75.53 807.384 75.3133 807.971 75.18C808.564 75.0467 809.171 74.98 809.791 74.98C810.697 74.98 811.447 75.07 812.041 75.25C812.634 75.4233 813.061 75.5967 813.321 75.77L812.861 77.62C812.521 77.4067 812.121 77.2167 811.661 77.05C811.207 76.8767 810.584 76.79 809.791 76.79C809.304 76.79 808.854 76.8533 808.441 76.98C808.027 77.1067 807.694 77.3 807.441 77.56C807.187 77.82 807.061 78.1533 807.061 78.56C807.061 79.02 807.154 79.4067 807.341 79.72C807.534 80.0267 807.844 80.3167 808.271 80.59C808.697 80.8567 809.257 81.17 809.951 81.53C810.451 81.79 810.944 82.0667 811.431 82.36C811.917 82.6467 812.357 82.9667 812.751 83.32C813.151 83.6733 813.467 84.08 813.701 84.54C813.941 84.9933 814.061 85.5133 814.061 86.1C814.061 87.0067 813.847 87.7633 813.421 88.37C813.001 88.97 812.414 89.42 811.661 89.72C810.914 90.0133 810.051 90.16 809.071 90.16ZM816.579 90V73.74H818.879V78.32L818.759 80.33L818.649 80.07C818.916 79.8567 819.256 79.6467 819.669 79.44C820.082 79.2333 820.529 79.0633 821.009 78.93C821.489 78.79 821.966 78.7133 822.439 78.7C823.652 78.6667 824.532 79 825.079 79.7C825.632 80.4 825.909 81.5633 825.909 83.19V90H823.609V83.17C823.609 82.2567 823.466 81.5967 823.179 81.19C822.899 80.7833 822.352 80.6 821.539 80.64C821.186 80.6467 820.762 80.73 820.269 80.89C819.776 81.05 819.312 81.2933 818.879 81.62V90H816.579ZM831.245 81.82L831.105 80.3C831.205 80.0933 831.415 79.8667 831.735 79.62C832.055 79.3667 832.432 79.15 832.865 78.97C833.305 78.79 833.752 78.7 834.205 78.7C834.458 78.7 834.675 78.71 834.855 78.73C835.042 78.75 835.178 78.7867 835.265 78.84V81C835.165 80.9467 835.012 80.89 834.805 80.83C834.605 80.77 834.278 80.74 833.825 80.74C833.412 80.74 833.038 80.8 832.705 80.92C832.378 81.0333 832.092 81.1733 831.845 81.34C831.598 81.5067 831.398 81.6667 831.245 81.82ZM829.065 90V78.88H831.025L831.185 80.3L831.365 81.14V90H829.065ZM839.581 90.16C838.914 90.16 838.321 90.03 837.801 89.77C837.287 89.5033 836.881 89.13 836.581 88.65C836.287 88.1633 836.141 87.59 836.141 86.93C836.141 86.2167 836.331 85.6133 836.711 85.12C837.097 84.62 837.614 84.23 838.261 83.95C838.687 83.7767 839.151 83.64 839.651 83.54C840.151 83.4333 840.651 83.36 841.151 83.32C841.651 83.2733 842.114 83.25 842.541 83.25L843.021 83.86L842.541 84.67C842.281 84.67 841.967 84.69 841.601 84.73C841.241 84.7633 840.884 84.82 840.531 84.9C840.177 84.9733 839.877 85.07 839.631 85.19C839.291 85.3433 839.007 85.54 838.781 85.78C838.554 86.02 838.441 86.3533 838.441 86.78C838.441 87.34 838.594 87.7633 838.901 88.05C839.214 88.3367 839.677 88.48 840.291 88.48C840.604 88.48 840.921 88.4333 841.241 88.34C841.561 88.2467 841.837 88.14 842.071 88.02C842.311 87.9 842.467 87.7967 842.541 87.71L843.001 88.2L842.671 89.06C842.377 89.3267 841.954 89.5767 841.401 89.81C840.847 90.0433 840.241 90.16 839.581 90.16ZM844.851 90H842.671V88.34H842.541V82.2C842.541 81.5467 842.367 81.1167 842.021 80.91C841.681 80.6967 841.194 80.59 840.561 80.59C840.141 80.59 839.707 80.6333 839.261 80.72C838.814 80.8 838.404 80.9033 838.031 81.03C837.657 81.15 837.371 81.2733 837.171 81.4L836.631 79.74C836.784 79.6467 837.077 79.5167 837.511 79.35C837.951 79.1833 838.461 79.0333 839.041 78.9C839.627 78.76 840.207 78.69 840.781 78.69C841.614 78.69 842.334 78.7867 842.941 78.98C843.554 79.1733 844.024 79.5333 844.351 80.06C844.684 80.58 844.851 81.3367 844.851 82.33V90ZM854.833 90V88.52L854.713 88.46V80.58L854.793 80.52L854.713 78.32V73.74H857.013V90H854.833ZM851.723 90.16C850.943 90.16 850.216 89.9667 849.543 89.58C848.876 89.1933 848.336 88.6067 847.923 87.82C847.516 87.0333 847.313 86.0367 847.313 84.83C847.313 83.6233 847.546 82.5633 848.013 81.65C848.479 80.73 849.129 80.0133 849.963 79.5C850.803 78.98 851.786 78.72 852.913 78.72C853.599 78.72 854.176 78.8033 854.643 78.97C855.109 79.13 855.406 79.2667 855.533 79.38L854.713 80.85C854.513 80.6767 854.246 80.5567 853.913 80.49C853.586 80.4233 853.196 80.39 852.743 80.39C852.176 80.39 851.663 80.5467 851.203 80.86C850.749 81.1733 850.386 81.64 850.113 82.26C849.839 82.88 849.699 83.6467 849.693 84.56C849.673 85.8667 849.899 86.8233 850.373 87.43C850.846 88.0367 851.509 88.34 852.363 88.34C852.883 88.34 853.346 88.2433 853.753 88.05C854.166 87.8567 854.486 87.67 854.713 87.49L855.093 88.63C854.933 88.7967 854.719 89 854.453 89.24C854.186 89.48 853.833 89.6933 853.393 89.88C852.953 90.0667 852.396 90.16 851.723 90.16ZM860.349 90V73.74H862.649V78.32L862.529 80.33L862.419 80.07C862.685 79.8567 863.025 79.6467 863.439 79.44C863.852 79.2333 864.299 79.0633 864.779 78.93C865.259 78.79 865.735 78.7133 866.209 78.7C867.422 78.6667 868.302 79 868.849 79.7C869.402 80.4 869.679 81.5633 869.679 83.19V90H867.379V83.17C867.379 82.2567 867.235 81.5967 866.949 81.19C866.669 80.7833 866.122 80.6 865.309 80.64C864.955 80.6467 864.532 80.73 864.039 80.89C863.545 81.05 863.082 81.2933 862.649 81.62V90H860.349ZM877.294 90.16C875.694 90.16 874.461 89.6533 873.594 88.64C872.728 87.6267 872.294 86.22 872.294 84.42C872.294 83.34 872.484 82.3733 872.864 81.52C873.251 80.6667 873.818 79.99 874.564 79.49C875.318 78.99 876.241 78.7333 877.334 78.72C877.894 78.7067 878.421 78.7867 878.914 78.96C879.408 79.1333 879.844 79.3967 880.224 79.75C880.604 80.0967 880.904 80.5367 881.124 81.07C881.351 81.6033 881.474 82.2267 881.494 82.94C881.494 83.36 881.491 83.7367 881.484 84.07C881.478 84.3967 881.448 84.6867 881.394 84.94H873.634L873.834 83.48H879.334C879.368 82.9467 879.334 82.4433 879.234 81.97C879.141 81.49 878.934 81.1033 878.614 80.81C878.301 80.51 877.834 80.36 877.214 80.36C876.694 80.36 876.228 80.5067 875.814 80.8C875.401 81.0867 875.081 81.5733 874.854 82.26C874.628 82.9467 874.534 83.8867 874.574 85.08C874.614 85.92 874.784 86.5833 875.084 87.07C875.384 87.5567 875.778 87.9033 876.264 88.11C876.751 88.3167 877.294 88.42 877.894 88.42C878.148 88.42 878.458 88.3933 878.824 88.34C879.191 88.28 879.544 88.2067 879.884 88.12C880.231 88.0267 880.494 87.9267 880.674 87.82L881.114 89.14C880.868 89.34 880.531 89.5167 880.104 89.67C879.684 89.8233 879.228 89.9433 878.734 90.03C878.241 90.1167 877.761 90.16 877.294 90.16ZM883.847 94.8V92.92C883.96 92.96 884.123 92.9933 884.337 93.02C884.557 93.0467 884.72 93.06 884.827 93.06C885.107 93.06 885.44 92.98 885.827 92.82C886.213 92.6667 886.583 92.35 886.937 91.87C887.297 91.3967 887.573 90.68 887.767 89.72L887.907 90H886.947L882.967 78.86H885.447L887.767 86.08L888.707 89.2H888.107L888.927 86.08L890.907 78.86H893.387L889.687 90.34C889.247 91.68 888.723 92.7033 888.117 93.41C887.51 94.1233 886.847 94.58 886.127 94.78C885.987 94.8267 885.803 94.8667 885.577 94.9C885.35 94.94 885.16 94.96 885.007 94.96C884.907 94.96 884.773 94.95 884.607 94.93C884.44 94.9167 884.28 94.8967 884.127 94.87C883.98 94.85 883.887 94.8267 883.847 94.8ZM897.842 90.16C897.176 90.16 896.582 90.03 896.062 89.77C895.549 89.5033 895.142 89.13 894.842 88.65C894.549 88.1633 894.402 87.59 894.402 86.93C894.402 86.2167 894.592 85.6133 894.972 85.12C895.359 84.62 895.876 84.23 896.522 83.95C896.949 83.7767 897.412 83.64 897.912 83.54C898.412 83.4333 898.912 83.36 899.412 83.32C899.912 83.2733 900.376 83.25 900.802 83.25L901.282 83.86L900.802 84.67C900.542 84.67 900.229 84.69 899.862 84.73C899.502 84.7633 899.146 84.82 898.792 84.9C898.439 84.9733 898.139 85.07 897.892 85.19C897.552 85.3433 897.269 85.54 897.042 85.78C896.816 86.02 896.702 86.3533 896.702 86.78C896.702 87.34 896.856 87.7633 897.162 88.05C897.476 88.3367 897.939 88.48 898.552 88.48C898.866 88.48 899.182 88.4333 899.502 88.34C899.822 88.2467 900.099 88.14 900.332 88.02C900.572 87.9 900.729 87.7967 900.802 87.71L901.262 88.2L900.932 89.06C900.639 89.3267 900.216 89.5767 899.662 89.81C899.109 90.0433 898.502 90.16 897.842 90.16ZM903.112 90H900.932V88.34H900.802V82.2C900.802 81.5467 900.629 81.1167 900.282 80.91C899.942 80.6967 899.456 80.59 898.822 80.59C898.402 80.59 897.969 80.6333 897.522 80.72C897.076 80.8 896.666 80.9033 896.292 81.03C895.919 81.15 895.632 81.2733 895.432 81.4L894.892 79.74C895.046 79.6467 895.339 79.5167 895.772 79.35C896.212 79.1833 896.722 79.0333 897.302 78.9C897.889 78.76 898.469 78.69 899.042 78.69C899.876 78.69 900.596 78.7867 901.202 78.98C901.816 79.1733 902.286 79.5333 902.612 80.06C902.946 80.58 903.112 81.3367 903.112 82.33V90ZM913.758 90.16C913.111 90.16 912.498 90.11 911.918 90.01C911.345 89.9167 910.851 89.8033 910.438 89.67C910.025 89.5367 909.728 89.4133 909.548 89.3L910.038 87.39C910.291 87.5367 910.608 87.68 910.988 87.82C911.368 87.96 911.785 88.0767 912.238 88.17C912.691 88.2567 913.151 88.3 913.618 88.3C914.531 88.3 915.228 88.1467 915.708 87.84C916.188 87.5333 916.428 87.0333 916.428 86.34C916.428 85.8733 916.308 85.4833 916.068 85.17C915.828 84.85 915.468 84.55 914.988 84.27C914.515 83.99 913.921 83.68 913.208 83.34C912.601 83.04 912.011 82.68 911.438 82.26C910.871 81.84 910.405 81.3467 910.038 80.78C909.671 80.2133 909.488 79.5633 909.488 78.83C909.488 78.11 909.628 77.5067 909.908 77.02C910.195 76.5267 910.578 76.13 911.058 75.83C911.538 75.53 912.071 75.3133 912.658 75.18C913.251 75.0467 913.858 74.98 914.478 74.98C915.385 74.98 916.135 75.07 916.728 75.25C917.321 75.4233 917.748 75.5967 918.008 75.77L917.548 77.62C917.208 77.4067 916.808 77.2167 916.348 77.05C915.895 76.8767 915.271 76.79 914.478 76.79C913.991 76.79 913.541 76.8533 913.128 76.98C912.715 77.1067 912.381 77.3 912.128 77.56C911.875 77.82 911.748 78.1533 911.748 78.56C911.748 79.02 911.841 79.4067 912.028 79.72C912.221 80.0267 912.531 80.3167 912.958 80.59C913.385 80.8567 913.945 81.17 914.638 81.53C915.138 81.79 915.631 82.0667 916.118 82.36C916.605 82.6467 917.045 82.9667 917.438 83.32C917.838 83.6733 918.155 84.08 918.388 84.54C918.628 84.9933 918.748 85.5133 918.748 86.1C918.748 87.0067 918.535 87.7633 918.108 88.37C917.688 88.97 917.101 89.42 916.348 89.72C915.601 90.0133 914.738 90.16 913.758 90.16ZM921.267 90V73.74H923.567V78.32L923.447 80.33L923.337 80.07C923.603 79.8567 923.943 79.6467 924.357 79.44C924.77 79.2333 925.217 79.0633 925.697 78.93C926.177 78.79 926.653 78.7133 927.127 78.7C928.34 78.6667 929.22 79 929.767 79.7C930.32 80.4 930.597 81.5633 930.597 83.19V90H928.297V83.17C928.297 82.2567 928.153 81.5967 927.867 81.19C927.587 80.7833 927.04 80.6 926.227 80.64C925.873 80.6467 925.45 80.73 924.957 80.89C924.463 81.05 924 81.2933 923.567 81.62V90H921.267ZM935.932 81.82L935.792 80.3C935.892 80.0933 936.102 79.8667 936.422 79.62C936.742 79.3667 937.119 79.15 937.552 78.97C937.992 78.79 938.439 78.7 938.892 78.7C939.146 78.7 939.362 78.71 939.542 78.73C939.729 78.75 939.866 78.7867 939.952 78.84V81C939.852 80.9467 939.699 80.89 939.492 80.83C939.292 80.77 938.966 80.74 938.512 80.74C938.099 80.74 937.726 80.8 937.392 80.92C937.066 81.0333 936.779 81.1733 936.532 81.34C936.286 81.5067 936.086 81.6667 935.932 81.82ZM933.752 90V78.88H935.712L935.872 80.3L936.052 81.14V90H933.752ZM942.099 90V78.88H944.399V90H942.099ZM943.119 76.91C942.732 76.91 942.392 76.7867 942.099 76.54C941.812 76.2933 941.669 75.9567 941.669 75.53C941.669 75.2367 941.749 74.9733 941.909 74.74C942.075 74.5 942.285 74.31 942.539 74.17C942.792 74.0233 943.055 73.95 943.329 73.95C943.802 73.95 944.159 74.0833 944.399 74.35C944.639 74.6167 944.759 74.9433 944.759 75.33C944.759 75.79 944.592 76.17 944.259 76.47C943.932 76.7633 943.552 76.91 943.119 76.91ZM952.411 90H949.931L955.571 74.98H957.861L963.421 90H960.871L957.161 78.83L956.741 77.4L956.301 78.83L952.411 90ZM952.731 86.35L953.131 84.62H959.951L960.371 86.35H952.731ZM968.381 90.16C967.854 90.16 967.391 90.0767 966.991 89.91C966.591 89.7433 966.277 89.45 966.051 89.03C965.831 88.6033 965.721 88 965.721 87.22V80.56H964.281V79.32C964.774 79.18 965.151 79.0633 965.411 78.97C965.671 78.87 965.861 78.66 965.981 78.34C966.034 78.1933 966.094 78.02 966.161 77.82C966.227 77.6133 966.301 77.3867 966.381 77.14C966.461 76.8867 966.547 76.6133 966.641 76.32H968.021V78.86H971.141V80.56H968.021V86C968.021 86.72 968.051 87.2467 968.111 87.58C968.177 87.9067 968.297 88.1167 968.471 88.21C968.651 88.2967 968.914 88.34 969.261 88.34C969.447 88.34 969.661 88.32 969.901 88.28C970.147 88.2333 970.381 88.1767 970.601 88.11C970.827 88.0433 971.001 87.9733 971.121 87.9L971.501 89.22C971.301 89.3733 971.031 89.5233 970.691 89.67C970.357 89.81 969.987 89.9267 969.581 90.02C969.181 90.1133 968.781 90.16 968.381 90.16ZM976.378 90.16C975.711 90.16 975.118 90.03 974.598 89.77C974.084 89.5033 973.678 89.13 973.378 88.65C973.084 88.1633 972.938 87.59 972.938 86.93C972.938 86.2167 973.128 85.6133 973.508 85.12C973.894 84.62 974.411 84.23 975.058 83.95C975.484 83.7767 975.948 83.64 976.448 83.54C976.948 83.4333 977.448 83.36 977.948 83.32C978.448 83.2733 978.911 83.25 979.338 83.25L979.818 83.86L979.338 84.67C979.078 84.67 978.764 84.69 978.398 84.73C978.038 84.7633 977.681 84.82 977.328 84.9C976.974 84.9733 976.674 85.07 976.428 85.19C976.088 85.3433 975.804 85.54 975.578 85.78C975.351 86.02 975.238 86.3533 975.238 86.78C975.238 87.34 975.391 87.7633 975.698 88.05C976.011 88.3367 976.474 88.48 977.088 88.48C977.401 88.48 977.718 88.4333 978.038 88.34C978.358 88.2467 978.634 88.14 978.868 88.02C979.108 87.9 979.264 87.7967 979.338 87.71L979.798 88.2L979.468 89.06C979.174 89.3267 978.751 89.5767 978.198 89.81C977.644 90.0433 977.038 90.16 976.378 90.16ZM981.648 90H979.468V88.34H979.338V82.2C979.338 81.5467 979.164 81.1167 978.818 80.91C978.478 80.6967 977.991 80.59 977.358 80.59C976.938 80.59 976.504 80.6333 976.058 80.72C975.611 80.8 975.201 80.9033 974.828 81.03C974.454 81.15 974.168 81.2733 973.968 81.4L973.428 79.74C973.581 79.6467 973.874 79.5167 974.308 79.35C974.748 79.1833 975.258 79.0333 975.838 78.9C976.424 78.76 977.004 78.69 977.578 78.69C978.411 78.69 979.131 78.7867 979.738 78.98C980.351 79.1733 980.821 79.5333 981.148 80.06C981.481 80.58 981.648 81.3367 981.648 82.33V90ZM984.989 90V73.74H987.309V90H984.989ZM994.591 90V75.12L995.691 75.14C996.018 75.14 996.351 75.13 996.691 75.11C997.031 75.0833 997.398 75.06 997.791 75.04C998.185 75.0133 998.625 75 999.111 75C1000.25 75 1001.19 75.1467 1001.92 75.44C1002.65 75.7333 1003.2 76.1467 1003.55 76.68C1003.9 77.2067 1004.08 77.8267 1004.08 78.54C1004.08 79.0067 1004 79.48 1003.84 79.96C1003.69 80.44 1003.44 80.8633 1003.11 81.23C1002.78 81.59 1002.35 81.84 1001.82 81.98C1002.43 82.0133 1002.97 82.2 1003.45 82.54C1003.94 82.8733 1004.32 83.3033 1004.61 83.83C1004.9 84.35 1005.04 84.9167 1005.04 85.53C1005.04 86.43 1004.86 87.2267 1004.5 87.92C1004.14 88.6133 1003.52 89.1567 1002.65 89.55C1001.78 89.9433 1000.57 90.14 999.021 90.14C998.441 90.14 997.841 90.12 997.221 90.08C996.601 90.0467 996.111 90.02 995.751 90H994.591ZM996.911 81.49C997.091 81.5167 997.291 81.5367 997.511 81.55C997.731 81.5567 997.958 81.56 998.191 81.56C998.425 81.5533 998.648 81.55 998.861 81.55C999.081 81.5433 999.281 81.54 999.461 81.54C1000.14 81.54 1000.7 81.32 1001.14 80.88C1001.59 80.44 1001.81 79.7667 1001.81 78.86C1001.81 78.1067 1001.54 77.55 1001.01 77.19C1000.48 76.83 999.715 76.65 998.721 76.65C998.601 76.65 998.411 76.6567 998.151 76.67C997.898 76.6767 997.651 76.69 997.411 76.71C997.171 76.73 997.005 76.7567 996.911 76.79V81.49ZM996.911 88.23C997.025 88.2967 997.221 88.3467 997.501 88.38C997.781 88.4133 998.081 88.4367 998.401 88.45C998.728 88.4567 999.008 88.46 999.241 88.46C1000.31 88.46 1001.15 88.2633 1001.76 87.87C1002.37 87.4767 1002.67 86.7767 1002.67 85.77C1002.67 84.87 1002.4 84.2167 1001.85 83.81C1001.31 83.3967 1000.47 83.19 999.321 83.19C999.135 83.19 998.928 83.19 998.701 83.19C998.481 83.1833 998.258 83.1833 998.031 83.19C997.811 83.19 997.605 83.1933 997.411 83.2C997.218 83.2067 997.051 83.22 996.911 83.24V88.23ZM1007.72 90V78.88H1010.02V90H1007.72ZM1008.74 76.91C1008.36 76.91 1008.02 76.7867 1007.72 76.54C1007.44 76.2933 1007.29 75.9567 1007.29 75.53C1007.29 75.2367 1007.37 74.9733 1007.53 74.74C1007.7 74.5 1007.91 74.31 1008.16 74.17C1008.42 74.0233 1008.68 73.95 1008.95 73.95C1009.43 73.95 1009.78 74.0833 1010.02 74.35C1010.26 74.6167 1010.38 74.9433 1010.38 75.33C1010.38 75.79 1010.22 76.17 1009.88 76.47C1009.56 76.7633 1009.18 76.91 1008.74 76.91ZM1013.53 90V73.74H1015.83V78.32L1015.71 80.33L1015.6 80.07C1015.87 79.8567 1016.21 79.6467 1016.62 79.44C1017.04 79.2333 1017.48 79.0633 1017.96 78.93C1018.44 78.79 1018.92 78.7133 1019.39 78.7C1020.61 78.6667 1021.49 79 1022.03 79.7C1022.59 80.4 1022.86 81.5633 1022.86 83.19V90H1020.56V83.17C1020.56 82.2567 1020.42 81.5967 1020.13 81.19C1019.85 80.7833 1019.31 80.6 1018.49 80.64C1018.14 80.6467 1017.72 80.73 1017.22 80.89C1016.73 81.05 1016.27 81.2933 1015.83 81.62V90H1013.53ZM1028.66 90.16C1028 90.16 1027.4 90.03 1026.88 89.77C1026.37 89.5033 1025.96 89.13 1025.66 88.65C1025.37 88.1633 1025.22 87.59 1025.22 86.93C1025.22 86.2167 1025.41 85.6133 1025.79 85.12C1026.18 84.62 1026.7 84.23 1027.34 83.95C1027.77 83.7767 1028.23 83.64 1028.73 83.54C1029.23 83.4333 1029.73 83.36 1030.23 83.32C1030.73 83.2733 1031.2 83.25 1031.62 83.25L1032.1 83.86L1031.62 84.67C1031.36 84.67 1031.05 84.69 1030.68 84.73C1030.32 84.7633 1029.97 84.82 1029.61 84.9C1029.26 84.9733 1028.96 85.07 1028.71 85.19C1028.37 85.3433 1028.09 85.54 1027.86 85.78C1027.64 86.02 1027.52 86.3533 1027.52 86.78C1027.52 87.34 1027.68 87.7633 1027.98 88.05C1028.3 88.3367 1028.76 88.48 1029.37 88.48C1029.69 88.48 1030 88.4333 1030.32 88.34C1030.64 88.2467 1030.92 88.14 1031.15 88.02C1031.39 87.9 1031.55 87.7967 1031.62 87.71L1032.08 88.2L1031.75 89.06C1031.46 89.3267 1031.04 89.5767 1030.48 89.81C1029.93 90.0433 1029.32 90.16 1028.66 90.16ZM1033.93 90H1031.75V88.34H1031.62V82.2C1031.62 81.5467 1031.45 81.1167 1031.1 80.91C1030.76 80.6967 1030.28 80.59 1029.64 80.59C1029.22 80.59 1028.79 80.6333 1028.34 80.72C1027.9 80.8 1027.49 80.9033 1027.11 81.03C1026.74 81.15 1026.45 81.2733 1026.25 81.4L1025.71 79.74C1025.87 79.6467 1026.16 79.5167 1026.59 79.35C1027.03 79.1833 1027.54 79.0333 1028.12 78.9C1028.71 78.76 1029.29 78.69 1029.86 78.69C1030.7 78.69 1031.42 78.7867 1032.02 78.98C1032.64 79.1733 1033.11 79.5333 1033.43 80.06C1033.77 80.58 1033.93 81.3367 1033.93 82.33V90ZM1039.17 81.82L1039.03 80.3C1039.13 80.0933 1039.34 79.8667 1039.66 79.62C1039.98 79.3667 1040.36 79.15 1040.79 78.97C1041.23 78.79 1041.68 78.7 1042.13 78.7C1042.39 78.7 1042.6 78.71 1042.78 78.73C1042.97 78.75 1043.11 78.7867 1043.19 78.84V81C1043.09 80.9467 1042.94 80.89 1042.73 80.83C1042.53 80.77 1042.21 80.74 1041.75 80.74C1041.34 80.74 1040.97 80.8 1040.63 80.92C1040.31 81.0333 1040.02 81.1733 1039.77 81.34C1039.53 81.5067 1039.33 81.6667 1039.17 81.82ZM1036.99 90V78.88H1038.95L1039.11 80.3L1039.29 81.14V90H1036.99ZM1045.34 90V78.88H1047.64V90H1045.34ZM1046.36 76.91C1045.97 76.91 1045.63 76.7867 1045.34 76.54C1045.05 76.2933 1044.91 75.9567 1044.91 75.53C1044.91 75.2367 1044.99 74.9733 1045.15 74.74C1045.32 74.5 1045.53 74.31 1045.78 74.17C1046.03 74.0233 1046.3 73.95 1046.57 73.95C1047.04 73.95 1047.4 74.0833 1047.64 74.35C1047.88 74.6167 1048 74.9433 1048 75.33C1048 75.79 1047.83 76.17 1047.5 76.47C1047.17 76.7633 1046.79 76.91 1046.36 76.91ZM842.474 119.11L836.914 104.14H839.404L842.784 113.81L843.464 116.2L844.174 113.81L847.404 104.14H849.864L844.434 119.11H842.474ZM853.78 119.16C853.113 119.16 852.52 119.03 852 118.77C851.487 118.503 851.08 118.13 850.78 117.65C850.487 117.163 850.34 116.59 850.34 115.93C850.34 115.217 850.53 114.613 850.91 114.12C851.297 113.62 851.813 113.23 852.46 112.95C852.887 112.777 853.35 112.64 853.85 112.54C854.35 112.433 854.85 112.36 855.35 112.32C855.85 112.273 856.313 112.25 856.74 112.25L857.22 112.86L856.74 113.67C856.48 113.67 856.167 113.69 855.8 113.73C855.44 113.763 855.083 113.82 854.73 113.9C854.377 113.973 854.077 114.07 853.83 114.19C853.49 114.343 853.207 114.54 852.98 114.78C852.753 115.02 852.64 115.353 852.64 115.78C852.64 116.34 852.793 116.763 853.1 117.05C853.413 117.337 853.877 117.48 854.49 117.48C854.803 117.48 855.12 117.433 855.44 117.34C855.76 117.247 856.037 117.14 856.27 117.02C856.51 116.9 856.667 116.797 856.74 116.71L857.2 117.2L856.87 118.06C856.577 118.327 856.153 118.577 855.6 118.81C855.047 119.043 854.44 119.16 853.78 119.16ZM859.05 119H856.87V117.34H856.74V111.2C856.74 110.547 856.567 110.117 856.22 109.91C855.88 109.697 855.393 109.59 854.76 109.59C854.34 109.59 853.907 109.633 853.46 109.72C853.013 109.8 852.603 109.903 852.23 110.03C851.857 110.15 851.57 110.273 851.37 110.4L850.83 108.74C850.983 108.647 851.277 108.517 851.71 108.35C852.15 108.183 852.66 108.033 853.24 107.9C853.827 107.76 854.407 107.69 854.98 107.69C855.813 107.69 856.533 107.787 857.14 107.98C857.753 108.173 858.223 108.533 858.55 109.06C858.883 109.58 859.05 110.337 859.05 111.33V119ZM859.772 123.8V122.15C859.878 122.197 860.055 122.24 860.302 122.28C860.548 122.327 860.755 122.35 860.922 122.35C861.508 122.35 861.908 122.103 862.122 121.61C862.335 121.123 862.442 120.38 862.442 119.38V107.88H864.752V118.56C864.752 119.86 864.612 120.903 864.332 121.69C864.058 122.483 863.655 123.06 863.122 123.42C862.595 123.78 861.952 123.96 861.192 123.96C861.092 123.96 860.938 123.953 860.732 123.94C860.525 123.927 860.328 123.907 860.142 123.88C859.955 123.86 859.832 123.833 859.772 123.8ZM863.512 105.91C863.125 105.91 862.785 105.787 862.492 105.54C862.205 105.293 862.062 104.957 862.062 104.53C862.062 104.237 862.142 103.973 862.302 103.74C862.468 103.5 862.678 103.31 862.932 103.17C863.185 103.023 863.448 102.95 863.722 102.95C864.195 102.95 864.552 103.083 864.792 103.35C865.032 103.617 865.152 103.943 865.152 104.33C865.152 104.79 864.985 105.17 864.652 105.47C864.325 105.763 863.945 105.91 863.512 105.91ZM867.934 123.94V107.86H870.034V109.22L870.234 109.46V118.08L870.214 118.54L870.234 120.36V123.94H867.934ZM872.044 119.16C871.358 119.16 870.784 119.073 870.324 118.9C869.864 118.727 869.568 118.587 869.434 118.48L870.234 117C870.448 117.18 870.714 117.31 871.034 117.39C871.361 117.463 871.751 117.5 872.204 117.5C872.778 117.5 873.294 117.34 873.754 117.02C874.214 116.693 874.578 116.22 874.844 115.6C875.118 114.973 875.261 114.21 875.274 113.31C875.288 111.977 875.054 111.01 874.574 110.41C874.101 109.803 873.438 109.5 872.584 109.5C872.064 109.5 871.601 109.6 871.194 109.8C870.794 109.993 870.474 110.183 870.234 110.37L869.874 109.23C870.028 109.07 870.238 108.87 870.504 108.63C870.771 108.39 871.124 108.18 871.564 108C872.004 107.813 872.558 107.72 873.224 107.72C874.011 107.72 874.738 107.913 875.404 108.3C876.078 108.68 876.618 109.263 877.024 110.05C877.431 110.83 877.634 111.82 877.634 113.02C877.634 114.227 877.401 115.293 876.934 116.22C876.474 117.14 875.824 117.86 874.984 118.38C874.151 118.9 873.171 119.16 872.044 119.16ZM882.53 119.16C881.863 119.16 881.27 119.03 880.75 118.77C880.237 118.503 879.83 118.13 879.53 117.65C879.237 117.163 879.09 116.59 879.09 115.93C879.09 115.217 879.28 114.613 879.66 114.12C880.047 113.62 880.563 113.23 881.21 112.95C881.637 112.777 882.1 112.64 882.6 112.54C883.1 112.433 883.6 112.36 884.1 112.32C884.6 112.273 885.063 112.25 885.49 112.25L885.97 112.86L885.49 113.67C885.23 113.67 884.917 113.69 884.55 113.73C884.19 113.763 883.833 113.82 883.48 113.9C883.127 113.973 882.827 114.07 882.58 114.19C882.24 114.343 881.957 114.54 881.73 114.78C881.503 115.02 881.39 115.353 881.39 115.78C881.39 116.34 881.543 116.763 881.85 117.05C882.163 117.337 882.627 117.48 883.24 117.48C883.553 117.48 883.87 117.433 884.19 117.34C884.51 117.247 884.787 117.14 885.02 117.02C885.26 116.9 885.417 116.797 885.49 116.71L885.95 117.2L885.62 118.06C885.327 118.327 884.903 118.577 884.35 118.81C883.797 119.043 883.19 119.16 882.53 119.16ZM887.8 119H885.62V117.34H885.49V111.2C885.49 110.547 885.317 110.117 884.97 109.91C884.63 109.697 884.143 109.59 883.51 109.59C883.09 109.59 882.657 109.633 882.21 109.72C881.763 109.8 881.353 109.903 880.98 110.03C880.607 110.15 880.32 110.273 880.12 110.4L879.58 108.74C879.733 108.647 880.027 108.517 880.46 108.35C880.9 108.183 881.41 108.033 881.99 107.9C882.577 107.76 883.157 107.69 883.73 107.69C884.563 107.69 885.283 107.787 885.89 107.98C886.503 108.173 886.973 108.533 887.3 109.06C887.633 109.58 887.8 110.337 887.8 111.33V119ZM890.722 123.8V121.92C890.835 121.96 890.998 121.993 891.212 122.02C891.432 122.047 891.595 122.06 891.702 122.06C891.982 122.06 892.315 121.98 892.702 121.82C893.088 121.667 893.458 121.35 893.812 120.87C894.172 120.397 894.448 119.68 894.642 118.72L894.782 119H893.822L889.842 107.86H892.322L894.642 115.08L895.582 118.2H894.982L895.802 115.08L897.782 107.86H900.262L896.562 119.34C896.122 120.68 895.598 121.703 894.992 122.41C894.385 123.123 893.722 123.58 893.002 123.78C892.862 123.827 892.678 123.867 892.452 123.9C892.225 123.94 892.035 123.96 891.882 123.96C891.782 123.96 891.648 123.95 891.482 123.93C891.315 123.917 891.155 123.897 891.002 123.87C890.855 123.85 890.762 123.827 890.722 123.8ZM906.142 119.16C904.542 119.16 903.309 118.653 902.442 117.64C901.575 116.627 901.142 115.22 901.142 113.42C901.142 112.34 901.332 111.373 901.712 110.52C902.099 109.667 902.665 108.99 903.412 108.49C904.165 107.99 905.089 107.733 906.182 107.72C906.742 107.707 907.269 107.787 907.762 107.96C908.255 108.133 908.692 108.397 909.072 108.75C909.452 109.097 909.752 109.537 909.972 110.07C910.199 110.603 910.322 111.227 910.342 111.94C910.342 112.36 910.339 112.737 910.332 113.07C910.325 113.397 910.295 113.687 910.242 113.94H902.482L902.682 112.48H908.182C908.215 111.947 908.182 111.443 908.082 110.97C907.989 110.49 907.782 110.103 907.462 109.81C907.149 109.51 906.682 109.36 906.062 109.36C905.542 109.36 905.075 109.507 904.662 109.8C904.249 110.087 903.929 110.573 903.702 111.26C903.475 111.947 903.382 112.887 903.422 114.08C903.462 114.92 903.632 115.583 903.932 116.07C904.232 116.557 904.625 116.903 905.112 117.11C905.599 117.317 906.142 117.42 906.742 117.42C906.995 117.42 907.305 117.393 907.672 117.34C908.039 117.28 908.392 117.207 908.732 117.12C909.079 117.027 909.342 116.927 909.522 116.82L909.962 118.14C909.715 118.34 909.379 118.517 908.952 118.67C908.532 118.823 908.075 118.943 907.582 119.03C907.089 119.117 906.609 119.16 906.142 119.16ZM917.294 119.16C915.694 119.16 914.461 118.653 913.594 117.64C912.728 116.627 912.294 115.22 912.294 113.42C912.294 112.34 912.484 111.373 912.864 110.52C913.251 109.667 913.818 108.99 914.564 108.49C915.318 107.99 916.241 107.733 917.334 107.72C917.894 107.707 918.421 107.787 918.914 107.96C919.408 108.133 919.844 108.397 920.224 108.75C920.604 109.097 920.904 109.537 921.124 110.07C921.351 110.603 921.474 111.227 921.494 111.94C921.494 112.36 921.491 112.737 921.484 113.07C921.478 113.397 921.448 113.687 921.394 113.94H913.634L913.834 112.48H919.334C919.368 111.947 919.334 111.443 919.234 110.97C919.141 110.49 918.934 110.103 918.614 109.81C918.301 109.51 917.834 109.36 917.214 109.36C916.694 109.36 916.228 109.507 915.814 109.8C915.401 110.087 915.081 110.573 914.854 111.26C914.628 111.947 914.534 112.887 914.574 114.08C914.614 114.92 914.784 115.583 915.084 116.07C915.384 116.557 915.778 116.903 916.264 117.11C916.751 117.317 917.294 117.42 917.894 117.42C918.148 117.42 918.458 117.393 918.824 117.34C919.191 117.28 919.544 117.207 919.884 117.12C920.231 117.027 920.494 116.927 920.674 116.82L921.114 118.14C920.868 118.34 920.531 118.517 920.104 118.67C919.684 118.823 919.228 118.943 918.734 119.03C918.241 119.117 917.761 119.16 917.294 119.16ZM927.951 119V104.12L929.051 104.14C929.377 104.14 929.711 104.13 930.051 104.11C930.391 104.083 930.757 104.06 931.151 104.04C931.544 104.013 931.984 104 932.471 104C933.611 104 934.547 104.147 935.281 104.44C936.014 104.733 936.557 105.147 936.911 105.68C937.264 106.207 937.441 106.827 937.441 107.54C937.441 108.007 937.361 108.48 937.201 108.96C937.047 109.44 936.804 109.863 936.471 110.23C936.137 110.59 935.707 110.84 935.181 110.98C935.787 111.013 936.331 111.2 936.811 111.54C937.297 111.873 937.684 112.303 937.971 112.83C938.257 113.35 938.401 113.917 938.401 114.53C938.401 115.43 938.221 116.227 937.861 116.92C937.501 117.613 936.884 118.157 936.011 118.55C935.137 118.943 933.927 119.14 932.381 119.14C931.801 119.14 931.201 119.12 930.581 119.08C929.961 119.047 929.471 119.02 929.111 119H927.951ZM930.271 110.49C930.451 110.517 930.651 110.537 930.871 110.55C931.091 110.557 931.317 110.56 931.551 110.56C931.784 110.553 932.007 110.55 932.221 110.55C932.441 110.543 932.641 110.54 932.821 110.54C933.501 110.54 934.061 110.32 934.501 109.88C934.947 109.44 935.171 108.767 935.171 107.86C935.171 107.107 934.904 106.55 934.371 106.19C933.837 105.83 933.074 105.65 932.081 105.65C931.961 105.65 931.771 105.657 931.511 105.67C931.257 105.677 931.011 105.69 930.771 105.71C930.531 105.73 930.364 105.757 930.271 105.79V110.49ZM930.271 117.23C930.384 117.297 930.581 117.347 930.861 117.38C931.141 117.413 931.441 117.437 931.761 117.45C932.087 117.457 932.367 117.46 932.601 117.46C933.674 117.46 934.514 117.263 935.121 116.87C935.727 116.477 936.031 115.777 936.031 114.77C936.031 113.87 935.757 113.217 935.211 112.81C934.671 112.397 933.827 112.19 932.681 112.19C932.494 112.19 932.287 112.19 932.061 112.19C931.841 112.183 931.617 112.183 931.391 112.19C931.171 112.19 930.964 112.193 930.771 112.2C930.577 112.207 930.411 112.22 930.271 112.24V117.23ZM945.173 119.16C944.267 119.16 943.497 119 942.863 118.68C942.23 118.36 941.717 117.923 941.323 117.37C940.93 116.817 940.643 116.183 940.463 115.47C940.29 114.75 940.207 113.993 940.213 113.2C940.233 112.007 940.47 111.003 940.923 110.19C941.377 109.377 941.99 108.763 942.763 108.35C943.537 107.93 944.407 107.72 945.373 107.72C946.587 107.72 947.557 107.997 948.283 108.55C949.017 109.097 949.543 109.823 949.863 110.73C950.19 111.63 950.347 112.607 950.333 113.66C950.313 114.853 950.077 115.86 949.623 116.68C949.177 117.493 948.567 118.11 947.793 118.53C947.027 118.95 946.153 119.16 945.173 119.16ZM945.233 117.53C946.147 117.543 946.833 117.2 947.293 116.5C947.76 115.793 947.993 114.817 947.993 113.57C947.993 112.797 947.9 112.097 947.713 111.47C947.527 110.837 947.233 110.33 946.833 109.95C946.44 109.57 945.933 109.377 945.313 109.37C944.407 109.35 943.723 109.677 943.263 110.35C942.803 111.023 942.573 111.983 942.573 113.23C942.573 114.003 942.667 114.713 942.853 115.36C943.04 116.007 943.33 116.527 943.723 116.92C944.117 117.313 944.62 117.517 945.233 117.53ZM956.076 119.16C955.549 119.16 955.086 119.077 954.686 118.91C954.286 118.743 953.973 118.45 953.746 118.03C953.526 117.603 953.416 117 953.416 116.22V109.56H951.976V108.32C952.469 108.18 952.846 108.063 953.106 107.97C953.366 107.87 953.556 107.66 953.676 107.34C953.729 107.193 953.789 107.02 953.856 106.82C953.923 106.613 953.996 106.387 954.076 106.14C954.156 105.887 954.243 105.613 954.336 105.32H955.716V107.86H958.836V109.56H955.716V115C955.716 115.72 955.746 116.247 955.806 116.58C955.873 116.907 955.993 117.117 956.166 117.21C956.346 117.297 956.609 117.34 956.956 117.34C957.143 117.34 957.356 117.32 957.596 117.28C957.843 117.233 958.076 117.177 958.296 117.11C958.523 117.043 958.696 116.973 958.816 116.9L959.196 118.22C958.996 118.373 958.726 118.523 958.386 118.67C958.053 118.81 957.683 118.927 957.276 119.02C956.876 119.113 956.476 119.16 956.076 119.16ZM964.073 119.16C963.406 119.16 962.813 119.03 962.293 118.77C961.78 118.503 961.373 118.13 961.073 117.65C960.78 117.163 960.633 116.59 960.633 115.93C960.633 115.217 960.823 114.613 961.203 114.12C961.59 113.62 962.106 113.23 962.753 112.95C963.18 112.777 963.643 112.64 964.143 112.54C964.643 112.433 965.143 112.36 965.643 112.32C966.143 112.273 966.606 112.25 967.033 112.25L967.513 112.86L967.033 113.67C966.773 113.67 966.46 113.69 966.093 113.73C965.733 113.763 965.376 113.82 965.023 113.9C964.67 113.973 964.37 114.07 964.123 114.19C963.783 114.343 963.5 114.54 963.273 114.78C963.046 115.02 962.933 115.353 962.933 115.78C962.933 116.34 963.086 116.763 963.393 117.05C963.706 117.337 964.17 117.48 964.783 117.48C965.096 117.48 965.413 117.433 965.733 117.34C966.053 117.247 966.33 117.14 966.563 117.02C966.803 116.9 966.96 116.797 967.033 116.71L967.493 117.2L967.163 118.06C966.87 118.327 966.446 118.577 965.893 118.81C965.34 119.043 964.733 119.16 964.073 119.16ZM969.343 119H967.163V117.34H967.033V111.2C967.033 110.547 966.86 110.117 966.513 109.91C966.173 109.697 965.686 109.59 965.053 109.59C964.633 109.59 964.2 109.633 963.753 109.72C963.306 109.8 962.896 109.903 962.523 110.03C962.15 110.15 961.863 110.273 961.663 110.4L961.123 108.74C961.276 108.647 961.57 108.517 962.003 108.35C962.443 108.183 962.953 108.033 963.533 107.9C964.12 107.76 964.7 107.69 965.273 107.69C966.106 107.69 966.826 107.787 967.433 107.98C968.046 108.173 968.516 108.533 968.843 109.06C969.176 109.58 969.343 110.337 969.343 111.33V119ZM972.605 119V107.88H974.675L974.685 109.06C974.958 108.873 975.301 108.677 975.715 108.47C976.135 108.263 976.585 108.087 977.065 107.94C977.551 107.793 978.035 107.713 978.515 107.7C979.708 107.667 980.565 107.977 981.085 108.63C981.605 109.277 981.865 110.417 981.865 112.05V119H979.545V112.17C979.545 111.237 979.418 110.567 979.165 110.16C978.918 109.753 978.378 109.573 977.545 109.62C977.311 109.627 977.041 109.67 976.735 109.75C976.435 109.823 976.125 109.933 975.805 110.08C975.491 110.22 975.191 110.4 974.905 110.62V119H972.605ZM985.302 119V107.88H987.602V119H985.302ZM986.322 105.91C985.935 105.91 985.595 105.787 985.302 105.54C985.015 105.293 984.872 104.957 984.872 104.53C984.872 104.237 984.952 103.973 985.112 103.74C985.279 103.5 985.489 103.31 985.742 103.17C985.995 103.023 986.259 102.95 986.532 102.95C987.005 102.95 987.362 103.083 987.602 103.35C987.842 103.617 987.962 103.943 987.962 104.33C987.962 104.79 987.795 105.17 987.462 105.47C987.135 105.763 986.755 105.91 986.322 105.91ZM990.2 113.56C990.2 112.46 990.4 111.47 990.8 110.59C991.2 109.71 991.8 109.013 992.6 108.5C993.4 107.98 994.4 107.72 995.6 107.72C996.3 107.72 996.894 107.783 997.38 107.91C997.867 108.037 998.2 108.16 998.38 108.28L998.02 110.1C997.74 109.907 997.404 109.763 997.01 109.67C996.617 109.57 996.14 109.52 995.58 109.52C995.08 109.52 994.597 109.643 994.13 109.89C993.664 110.13 993.274 110.517 992.96 111.05C992.647 111.583 992.474 112.287 992.44 113.16C992.414 114.08 992.534 114.857 992.8 115.49C993.074 116.117 993.447 116.593 993.92 116.92C994.4 117.24 994.934 117.4 995.52 117.4C996.074 117.4 996.584 117.33 997.05 117.19C997.524 117.05 997.88 116.907 998.12 116.76L998.56 118.1C998.22 118.42 997.74 118.677 997.12 118.87C996.5 119.063 995.84 119.16 995.14 119.16C994.08 119.16 993.184 118.913 992.45 118.42C991.717 117.927 991.157 117.26 990.77 116.42C990.39 115.573 990.2 114.62 990.2 113.56ZM1003.53 119.16C1002.86 119.16 1002.27 119.03 1001.75 118.77C1001.23 118.503 1000.83 118.13 1000.53 117.65C1000.23 117.163 1000.09 116.59 1000.09 115.93C1000.09 115.217 1000.28 114.613 1000.66 114.12C1001.04 113.62 1001.56 113.23 1002.21 112.95C1002.63 112.777 1003.1 112.64 1003.6 112.54C1004.1 112.433 1004.6 112.36 1005.1 112.32C1005.6 112.273 1006.06 112.25 1006.49 112.25L1006.97 112.86L1006.49 113.67C1006.23 113.67 1005.91 113.69 1005.55 113.73C1005.19 113.763 1004.83 113.82 1004.48 113.9C1004.12 113.973 1003.82 114.07 1003.58 114.19C1003.24 114.343 1002.95 114.54 1002.73 114.78C1002.5 115.02 1002.39 115.353 1002.39 115.78C1002.39 116.34 1002.54 116.763 1002.85 117.05C1003.16 117.337 1003.62 117.48 1004.24 117.48C1004.55 117.48 1004.87 117.433 1005.19 117.34C1005.51 117.247 1005.78 117.14 1006.02 117.02C1006.26 116.9 1006.41 116.797 1006.49 116.71L1006.95 117.2L1006.62 118.06C1006.32 118.327 1005.9 118.577 1005.35 118.81C1004.79 119.043 1004.19 119.16 1003.53 119.16ZM1008.8 119H1006.62V117.34H1006.49V111.2C1006.49 110.547 1006.31 110.117 1005.97 109.91C1005.63 109.697 1005.14 109.59 1004.51 109.59C1004.09 109.59 1003.65 109.633 1003.21 109.72C1002.76 109.8 1002.35 109.903 1001.98 110.03C1001.6 110.15 1001.32 110.273 1001.12 110.4L1000.58 108.74C1000.73 108.647 1001.02 108.517 1001.46 108.35C1001.9 108.183 1002.41 108.033 1002.99 107.9C1003.57 107.76 1004.15 107.69 1004.73 107.69C1005.56 107.69 1006.28 107.787 1006.89 107.98C1007.5 108.173 1007.97 108.533 1008.3 109.06C1008.63 109.58 1008.8 110.337 1008.8 111.33V119ZM1012.14 119V102.74H1014.46V119H1012.14ZM852.44 140.64C852.44 139.353 852.62 138.233 852.98 137.28C853.34 136.32 853.837 135.523 854.47 134.89C855.11 134.25 855.854 133.773 856.7 133.46C857.547 133.14 858.457 132.98 859.43 132.98C860.177 132.98 860.774 133.013 861.22 133.08C861.674 133.14 862.074 133.217 862.42 133.31C862.774 133.397 863.167 133.48 863.6 133.56L863.5 135.65C863.027 135.41 862.484 135.213 861.87 135.06C861.264 134.9 860.414 134.82 859.32 134.82C858.454 134.82 857.684 135.04 857.01 135.48C856.344 135.92 855.82 136.553 855.44 137.38C855.06 138.207 854.87 139.207 854.87 140.38C854.87 141.5 855.03 142.513 855.35 143.42C855.67 144.327 856.157 145.047 856.81 145.58C857.47 146.107 858.307 146.37 859.32 146.37C859.86 146.37 860.4 146.327 860.94 146.24C861.487 146.153 861.9 146.02 862.18 145.84V141.9L862.77 142.31L859.56 142.17V140.46H864.44V147.09C864.22 147.103 863.974 147.167 863.7 147.28C863.427 147.387 863.1 147.51 862.72 147.65C862.34 147.783 861.877 147.9 861.33 148C860.79 148.107 860.14 148.16 859.38 148.16C857.907 148.16 856.654 147.837 855.62 147.19C854.587 146.537 853.797 145.643 853.25 144.51C852.71 143.377 852.44 142.087 852.44 140.64ZM869.942 148.16C869.275 148.16 868.682 148.03 868.162 147.77C867.649 147.503 867.242 147.13 866.942 146.65C866.649 146.163 866.502 145.59 866.502 144.93C866.502 144.217 866.692 143.613 867.072 143.12C867.459 142.62 867.975 142.23 868.622 141.95C869.049 141.777 869.512 141.64 870.012 141.54C870.512 141.433 871.012 141.36 871.512 141.32C872.012 141.273 872.475 141.25 872.902 141.25L873.382 141.86L872.902 142.67C872.642 142.67 872.329 142.69 871.962 142.73C871.602 142.763 871.245 142.82 870.892 142.9C870.539 142.973 870.239 143.07 869.992 143.19C869.652 143.343 869.369 143.54 869.142 143.78C868.915 144.02 868.802 144.353 868.802 144.78C868.802 145.34 868.955 145.763 869.262 146.05C869.575 146.337 870.039 146.48 870.652 146.48C870.965 146.48 871.282 146.433 871.602 146.34C871.922 146.247 872.199 146.14 872.432 146.02C872.672 145.9 872.829 145.797 872.902 145.71L873.362 146.2L873.032 147.06C872.739 147.327 872.315 147.577 871.762 147.81C871.209 148.043 870.602 148.16 869.942 148.16ZM875.212 148H873.032V146.34H872.902V140.2C872.902 139.547 872.729 139.117 872.382 138.91C872.042 138.697 871.555 138.59 870.922 138.59C870.502 138.59 870.069 138.633 869.622 138.72C869.175 138.8 868.765 138.903 868.392 139.03C868.019 139.15 867.732 139.273 867.532 139.4L866.992 137.74C867.145 137.647 867.439 137.517 867.872 137.35C868.312 137.183 868.822 137.033 869.402 136.9C869.989 136.76 870.569 136.69 871.142 136.69C871.975 136.69 872.695 136.787 873.302 136.98C873.915 137.173 874.385 137.533 874.712 138.06C875.045 138.58 875.212 139.337 875.212 140.33V148ZM880.454 139.82L880.314 138.3C880.414 138.093 880.624 137.867 880.944 137.62C881.264 137.367 881.641 137.15 882.074 136.97C882.514 136.79 882.961 136.7 883.414 136.7C883.667 136.7 883.884 136.71 884.064 136.73C884.251 136.75 884.387 136.787 884.474 136.84V139C884.374 138.947 884.221 138.89 884.014 138.83C883.814 138.77 883.487 138.74 883.034 138.74C882.621 138.74 882.247 138.8 881.914 138.92C881.587 139.033 881.301 139.173 881.054 139.34C880.807 139.507 880.607 139.667 880.454 139.82ZM878.274 148V136.88H880.234L880.394 138.3L880.574 139.14V148H878.274ZM892.87 148V146.52L892.75 146.46V138.58L892.83 138.52L892.75 136.32V131.74H895.05V148H892.87ZM889.76 148.16C888.98 148.16 888.253 147.967 887.58 147.58C886.913 147.193 886.373 146.607 885.96 145.82C885.553 145.033 885.35 144.037 885.35 142.83C885.35 141.623 885.583 140.563 886.05 139.65C886.516 138.73 887.166 138.013 888 137.5C888.84 136.98 889.823 136.72 890.95 136.72C891.636 136.72 892.213 136.803 892.68 136.97C893.146 137.13 893.443 137.267 893.57 137.38L892.75 138.85C892.55 138.677 892.283 138.557 891.95 138.49C891.623 138.423 891.233 138.39 890.78 138.39C890.213 138.39 889.7 138.547 889.24 138.86C888.786 139.173 888.423 139.64 888.15 140.26C887.876 140.88 887.736 141.647 887.73 142.56C887.71 143.867 887.936 144.823 888.41 145.43C888.883 146.037 889.546 146.34 890.4 146.34C890.92 146.34 891.383 146.243 891.79 146.05C892.203 145.857 892.523 145.67 892.75 145.49L893.13 146.63C892.97 146.797 892.756 147 892.49 147.24C892.223 147.48 891.87 147.693 891.43 147.88C890.99 148.067 890.433 148.16 889.76 148.16ZM902.656 148.16C901.056 148.16 899.822 147.653 898.956 146.64C898.089 145.627 897.656 144.22 897.656 142.42C897.656 141.34 897.846 140.373 898.226 139.52C898.612 138.667 899.179 137.99 899.926 137.49C900.679 136.99 901.602 136.733 902.696 136.72C903.256 136.707 903.782 136.787 904.276 136.96C904.769 137.133 905.206 137.397 905.586 137.75C905.966 138.097 906.266 138.537 906.486 139.07C906.712 139.603 906.836 140.227 906.856 140.94C906.856 141.36 906.852 141.737 906.846 142.07C906.839 142.397 906.809 142.687 906.756 142.94H898.996L899.196 141.48H904.696C904.729 140.947 904.696 140.443 904.596 139.97C904.502 139.49 904.296 139.103 903.976 138.81C903.662 138.51 903.196 138.36 902.576 138.36C902.056 138.36 901.589 138.507 901.176 138.8C900.762 139.087 900.442 139.573 900.216 140.26C899.989 140.947 899.896 141.887 899.936 143.08C899.976 143.92 900.146 144.583 900.446 145.07C900.746 145.557 901.139 145.903 901.626 146.11C902.112 146.317 902.656 146.42 903.256 146.42C903.509 146.42 903.819 146.393 904.186 146.34C904.552 146.28 904.906 146.207 905.246 146.12C905.592 146.027 905.856 145.927 906.036 145.82L906.476 147.14C906.229 147.34 905.892 147.517 905.466 147.67C905.046 147.823 904.589 147.943 904.096 148.03C903.602 148.117 903.122 148.16 902.656 148.16ZM909.548 148V136.88H911.618L911.628 138.06C911.901 137.873 912.245 137.677 912.658 137.47C913.078 137.263 913.528 137.087 914.008 136.94C914.495 136.793 914.978 136.713 915.458 136.7C916.651 136.667 917.508 136.977 918.028 137.63C918.548 138.277 918.808 139.417 918.808 141.05V148H916.488V141.17C916.488 140.237 916.361 139.567 916.108 139.16C915.861 138.753 915.321 138.573 914.488 138.62C914.255 138.627 913.985 138.67 913.678 138.75C913.378 138.823 913.068 138.933 912.748 139.08C912.435 139.22 912.135 139.4 911.848 139.62V148H909.548ZM921.965 151.98V151.74C922.312 151.553 922.605 151.227 922.845 150.76C923.085 150.293 923.205 149.787 923.205 149.24C923.205 148.96 923.145 148.67 923.025 148.37C922.912 148.07 922.765 147.813 922.585 147.6C922.405 147.387 922.215 147.27 922.015 147.25V146.6L923.515 145.31C923.962 145.477 924.319 145.74 924.585 146.1C924.859 146.453 925.055 146.843 925.175 147.27C925.302 147.69 925.365 148.09 925.365 148.47C925.365 149.183 925.245 149.843 925.005 150.45C924.765 151.057 924.445 151.57 924.045 151.99C923.652 152.417 923.219 152.717 922.745 152.89L921.965 151.98ZM935.199 148.11L929.639 133.14H932.129L935.509 142.81L936.189 145.2L936.899 142.81L940.129 133.14H942.589L937.159 148.11H935.199ZM944.55 148V136.88H946.85V148H944.55ZM945.57 134.91C945.183 134.91 944.843 134.787 944.55 134.54C944.263 134.293 944.12 133.957 944.12 133.53C944.12 133.237 944.2 132.973 944.36 132.74C944.527 132.5 944.737 132.31 944.99 132.17C945.243 132.023 945.507 131.95 945.78 131.95C946.253 131.95 946.61 132.083 946.85 132.35C947.09 132.617 947.21 132.943 947.21 133.33C947.21 133.79 947.043 134.17 946.71 134.47C946.383 134.763 946.003 134.91 945.57 134.91ZM949.688 147.34L950.008 145.64C950.108 145.713 950.315 145.813 950.628 145.94C950.948 146.06 951.328 146.173 951.768 146.28C952.215 146.38 952.675 146.433 953.148 146.44C953.788 146.447 954.275 146.337 954.608 146.11C954.942 145.883 955.108 145.567 955.108 145.16C955.108 144.873 955.008 144.623 954.808 144.41C954.608 144.197 954.332 144 953.978 143.82C953.632 143.633 953.235 143.44 952.788 143.24C952.188 142.967 951.658 142.67 951.198 142.35C950.738 142.03 950.378 141.653 950.118 141.22C949.865 140.787 949.742 140.267 949.748 139.66C949.762 139 949.952 138.453 950.318 138.02C950.692 137.58 951.185 137.253 951.798 137.04C952.412 136.827 953.095 136.72 953.848 136.72C954.548 136.72 955.162 136.793 955.688 136.94C956.215 137.08 956.562 137.2 956.728 137.3L956.388 139.04C956.268 138.94 956.082 138.843 955.828 138.75C955.582 138.65 955.295 138.57 954.968 138.51C954.642 138.45 954.308 138.42 953.968 138.42C953.288 138.42 952.775 138.52 952.428 138.72C952.082 138.913 951.902 139.187 951.888 139.54C951.882 140.027 952.048 140.39 952.388 140.63C952.735 140.87 953.148 141.107 953.628 141.34C954.315 141.673 954.935 142.003 955.488 142.33C956.042 142.65 956.478 143.02 956.798 143.44C957.125 143.853 957.288 144.367 957.288 144.98C957.288 146.02 956.932 146.81 956.218 147.35C955.505 147.89 954.528 148.16 953.288 148.16C952.775 148.16 952.275 148.12 951.788 148.04C951.308 147.96 950.882 147.857 950.508 147.73C950.142 147.603 949.868 147.473 949.688 147.34ZM962.227 148.16C961.561 148.16 960.967 148.03 960.447 147.77C959.934 147.503 959.527 147.13 959.227 146.65C958.934 146.163 958.787 145.59 958.787 144.93C958.787 144.217 958.977 143.613 959.357 143.12C959.744 142.62 960.261 142.23 960.907 141.95C961.334 141.777 961.797 141.64 962.297 141.54C962.797 141.433 963.297 141.36 963.797 141.32C964.297 141.273 964.761 141.25 965.187 141.25L965.667 141.86L965.187 142.67C964.927 142.67 964.614 142.69 964.247 142.73C963.887 142.763 963.531 142.82 963.177 142.9C962.824 142.973 962.524 143.07 962.277 143.19C961.937 143.343 961.654 143.54 961.427 143.78C961.201 144.02 961.087 144.353 961.087 144.78C961.087 145.34 961.241 145.763 961.547 146.05C961.861 146.337 962.324 146.48 962.937 146.48C963.251 146.48 963.567 146.433 963.887 146.34C964.207 146.247 964.484 146.14 964.717 146.02C964.957 145.9 965.114 145.797 965.187 145.71L965.647 146.2L965.317 147.06C965.024 147.327 964.601 147.577 964.047 147.81C963.494 148.043 962.887 148.16 962.227 148.16ZM967.497 148H965.317V146.34H965.187V140.2C965.187 139.547 965.014 139.117 964.667 138.91C964.327 138.697 963.841 138.59 963.207 138.59C962.787 138.59 962.354 138.633 961.907 138.72C961.461 138.8 961.051 138.903 960.677 139.03C960.304 139.15 960.017 139.273 959.817 139.4L959.277 137.74C959.431 137.647 959.724 137.517 960.157 137.35C960.597 137.183 961.107 137.033 961.687 136.9C962.274 136.76 962.854 136.69 963.427 136.69C964.261 136.69 964.981 136.787 965.587 136.98C966.201 137.173 966.671 137.533 966.997 138.06C967.331 138.58 967.497 139.337 967.497 140.33V148ZM970.659 152.94V136.86H972.759V138.22L972.959 138.46V147.08L972.939 147.54L972.959 149.36V152.94H970.659ZM974.769 148.16C974.082 148.16 973.509 148.073 973.049 147.9C972.589 147.727 972.292 147.587 972.159 147.48L972.959 146C973.172 146.18 973.439 146.31 973.759 146.39C974.086 146.463 974.476 146.5 974.929 146.5C975.502 146.5 976.019 146.34 976.479 146.02C976.939 145.693 977.302 145.22 977.569 144.6C977.842 143.973 977.986 143.21 977.999 142.31C978.012 140.977 977.779 140.01 977.299 139.41C976.826 138.803 976.162 138.5 975.309 138.5C974.789 138.5 974.326 138.6 973.919 138.8C973.519 138.993 973.199 139.183 972.959 139.37L972.599 138.23C972.752 138.07 972.962 137.87 973.229 137.63C973.496 137.39 973.849 137.18 974.289 137C974.729 136.813 975.282 136.72 975.949 136.72C976.736 136.72 977.462 136.913 978.129 137.3C978.802 137.68 979.342 138.263 979.749 139.05C980.156 139.83 980.359 140.82 980.359 142.02C980.359 143.227 980.126 144.293 979.659 145.22C979.199 146.14 978.549 146.86 977.709 147.38C976.876 147.9 975.896 148.16 974.769 148.16ZM986.125 148.16C985.398 148.16 984.812 148.047 984.365 147.82C983.918 147.593 983.578 147.27 983.345 146.85C983.112 146.423 982.952 145.917 982.865 145.33C982.785 144.743 982.745 144.093 982.745 143.38V136.86H985.045V143.36C985.045 144.24 985.112 144.887 985.245 145.3C985.385 145.713 985.598 145.98 985.885 146.1C986.178 146.22 986.558 146.28 987.025 146.28C987.298 146.28 987.588 146.24 987.895 146.16C988.208 146.073 988.502 145.973 988.775 145.86C989.048 145.74 989.265 145.627 989.425 145.52V136.86H991.725V148.16H990.665C990.358 148.16 990.115 148.113 989.935 148.02C989.755 147.933 989.665 147.707 989.665 147.34V146.56L989.705 147C989.405 147.2 989.052 147.39 988.645 147.57C988.245 147.743 987.825 147.887 987.385 148C986.945 148.107 986.525 148.16 986.125 148.16ZM997.153 139.82L997.013 138.3C997.113 138.093 997.323 137.867 997.643 137.62C997.963 137.367 998.34 137.15 998.773 136.97C999.213 136.79 999.66 136.7 1000.11 136.7C1000.37 136.7 1000.58 136.71 1000.76 136.73C1000.95 136.75 1001.09 136.787 1001.17 136.84V139C1001.07 138.947 1000.92 138.89 1000.71 138.83C1000.51 138.77 1000.19 138.74 999.733 138.74C999.32 138.74 998.946 138.8 998.613 138.92C998.286 139.033 998 139.173 997.753 139.34C997.506 139.507 997.306 139.667 997.153 139.82ZM994.973 148V136.88H996.933L997.093 138.3L997.273 139.14V148H994.973Z" fill="#A8481F"/>
<path d="M410.707 43.7071C411.098 43.3166 411.098 42.6834 410.707 42.2929L404.343 35.929C403.953 35.5384 403.319 35.5384 402.929 35.929C402.538 36.3195 402.538 36.9526 402.929 37.3432L408.586 43L402.929 48.6569C402.538 49.0474 402.538 49.6806 402.929 50.0711C403.319 50.4616 403.953 50.4616 404.343 50.0711L410.707 43.7071ZM155 44L158.036 44L158.036 42L155 42L155 44ZM164.107 44L170.179 44L170.179 42L164.107 42L164.107 44ZM176.25 44L182.321 44L182.321 42L176.25 42L176.25 44ZM188.393 44L194.464 44L194.464 42L188.393 42L188.393 44ZM200.536 44L206.607 44L206.607 42L200.536 42L200.536 44ZM212.679 44L218.75 44L218.75 42L212.679 42L212.679 44ZM224.821 44L230.893 44L230.893 42L224.821 42L224.821 44ZM236.964 44L243.036 44L243.036 42L236.964 42L236.964 44ZM249.107 44L255.179 44L255.179 42L249.107 42L249.107 44ZM261.25 44L267.321 44L267.321 42L261.25 42L261.25 44ZM273.393 44L279.464 44L279.464 42L273.393 42L273.393 44ZM285.536 44L291.607 44L291.607 42L285.536 42L285.536 44ZM297.679 44L303.75 44L303.75 42L297.679 42L297.679 44ZM309.821 44L315.893 44L315.893 42L309.821 42L309.821 44ZM321.964 44L328.036 44L328.036 42L321.964 42L321.964 44ZM334.107 44L340.179 44L340.179 42L334.107 42L334.107 44ZM346.25 44L352.321 44L352.321 42L346.25 42L346.25 44ZM358.393 44L364.464 44L364.464 42L358.393 42L358.393 44ZM370.536 44L376.607 44L376.607 42L370.536 42L370.536 44ZM382.679 44L388.75 44L388.75 42L382.679 42L382.679 44ZM394.821 44L400.893 44L400.893 42L394.821 42L394.821 44ZM406.964 44L410 44L410 42L406.964 42L406.964 44Z" fill="#323232"/>
<path d="M851.707 43.7071C852.098 43.3166 852.098 42.6834 851.707 42.2929L845.343 35.9289C844.953 35.5384 844.319 35.5384 843.929 35.9289C843.538 36.3195 843.538 36.9526 843.929 37.3431L849.586 43L843.929 48.6569C843.538 49.0474 843.538 49.6805 843.929 50.0711C844.319 50.4616 844.953 50.4616 845.343 50.0711L851.707 43.7071ZM512 44H515.027V42H512V44ZM521.08 44H527.134V42H521.08V44ZM533.188 44H539.241V42H533.188V44ZM545.295 44H551.348V42H545.295V44ZM557.402 44H563.455V42H557.402V44ZM569.509 44H575.562V42H569.509V44ZM581.616 44H587.67V42H581.616V44ZM593.723 44H599.777V42H593.723V44ZM605.83 44H611.884V42H605.83V44ZM617.938 44H623.991V42H617.938V44ZM630.045 44H636.098V42H630.045V44ZM642.152 44H648.205V42H642.152V44ZM654.259 44H660.313V42H654.259V44ZM666.366 44H672.42V42H666.366V44ZM678.473 44H684.527V42H678.473V44ZM690.58 44H696.634V42H690.58V44ZM702.688 44H708.741V42H702.688V44ZM714.795 44H720.848V42H714.795V44ZM726.902 44H732.955V42H726.902V44ZM739.009 44H745.063V42H739.009V44ZM751.116 44H757.17V42H751.116V44ZM763.223 44H769.277V42H763.223V44ZM775.33 44H781.384V42H775.33V44ZM787.438 44H793.491V42H787.438V44ZM799.545 44H805.598V42H799.545V44ZM811.652 44H817.705V42H811.652V44ZM823.759 44H829.812V42H823.759V44ZM835.866 44H841.92V42H835.866V44ZM847.973 44H851V42H847.973V44Z" fill="#323232"/>
<path d="M254.572 17.9639C256.265 17.9661 257.651 16.6295 257.654 14.9937C257.656 13.3578 256.273 12.0176 254.58 12.0153C252.888 12.0131 251.501 13.3497 251.499 14.9855C251.497 16.6214 252.88 17.9616 254.572 17.9639ZM248.873 23.0126L244.537 43.9755L247.768 43.9798L250.553 32.0864L253.78 35.0649L253.769 43.9877L256.846 43.9918L256.861 32.8383L253.633 29.8597L254.563 25.3996C256.56 27.6329 259.635 29.1241 263.02 29.1286L263.024 26.1544C260.1 26.1505 257.641 24.6601 256.413 22.5765L254.877 20.195C254.263 19.3019 253.341 18.7058 252.264 18.7044C251.802 18.7038 251.494 18.8521 251.033 18.8515L243.028 22.1125L243.018 29.1021L246.095 29.1062L246.102 24.0499L248.873 23.0126Z" fill="#333333"/>
<path d="M226.277 69.5575C226.132 69.4625 225.922 69.29 225.647 69.04C225.377 68.795 225.085 68.465 224.77 68.05C224.455 67.64 224.155 67.1375 223.87 66.5425C223.585 65.9425 223.35 65.245 223.165 64.45C222.98 63.655 222.887 62.755 222.887 61.75C222.887 60.865 222.975 60.0525 223.15 59.3125C223.33 58.5725 223.56 57.905 223.84 57.31C224.12 56.715 224.415 56.2 224.725 55.765C225.04 55.33 225.337 54.9775 225.617 54.7075C225.897 54.4375 226.117 54.2525 226.277 54.1525L227.567 54.955C227.407 55.085 227.182 55.325 226.892 55.675C226.602 56.025 226.307 56.485 226.007 57.055C225.707 57.62 225.45 58.2975 225.235 59.0875C225.025 59.8725 224.915 60.77 224.905 61.78C224.895 62.585 224.95 63.3175 225.07 63.9775C225.195 64.6375 225.357 65.2325 225.557 65.7625C225.762 66.2875 225.985 66.745 226.225 67.135C226.47 67.53 226.71 67.8625 226.945 68.1325C227.18 68.4025 227.387 68.61 227.567 68.755L226.277 69.5575ZM230.486 67.15C230.361 67.15 230.196 67.1425 229.991 67.1275C229.791 67.1125 229.616 67.0875 229.466 67.0525V65.4325C229.561 65.4375 229.654 65.4425 229.744 65.4475C229.839 65.4475 229.929 65.4475 230.014 65.4475C230.854 65.4475 231.581 65.3525 232.196 65.1625C232.816 64.9725 233.294 64.7025 233.629 64.3525C233.964 64.0025 234.131 63.5875 234.131 63.1075C234.131 62.5425 233.966 62.1275 233.636 61.8625C233.311 61.5975 232.784 61.465 232.054 61.465C231.739 61.465 231.399 61.5075 231.034 61.5925C230.674 61.6775 230.321 61.78 229.976 61.9L229.549 61.66L229.991 55.855H236.156L235.946 57.7525H231.664L231.409 60.0775C231.724 59.9875 232.031 59.92 232.331 59.875C232.631 59.83 232.916 59.8075 233.186 59.8075C234.261 59.8075 235.076 60.09 235.631 60.655C236.191 61.215 236.471 61.9975 236.471 63.0025C236.471 63.5925 236.336 64.14 236.066 64.645C235.796 65.145 235.404 65.5825 234.889 65.9575C234.374 66.3325 233.746 66.625 233.006 66.835C232.266 67.045 231.426 67.15 230.486 67.15ZM241.38 67V58.6525H243.457L243.495 59.545C243.69 59.395 243.935 59.2425 244.23 59.0875C244.53 58.9325 244.855 58.8025 245.205 58.6975C245.555 58.5875 245.912 58.53 246.277 58.525C246.852 58.51 247.325 58.6025 247.695 58.8025C248.065 59.0025 248.34 59.3425 248.52 59.8225C248.7 60.2975 248.79 60.9375 248.79 61.7425V67H246.51V62.08C246.51 61.65 246.475 61.31 246.405 61.06C246.335 60.805 246.21 60.6225 246.03 60.5125C245.855 60.4025 245.605 60.3525 245.28 60.3625C245.06 60.3625 244.797 60.415 244.492 60.52C244.187 60.625 243.91 60.78 243.66 60.985V67H241.38ZM248.692 61.0225L248.272 59.605C248.432 59.465 248.66 59.3125 248.955 59.1475C249.255 58.9775 249.6 58.8325 249.99 58.7125C250.38 58.5875 250.792 58.525 251.227 58.525C251.802 58.52 252.285 58.615 252.675 58.81C253.065 59.005 253.36 59.34 253.56 59.815C253.76 60.29 253.86 60.935 253.86 61.75V67H251.565V62.0725C251.565 61.6425 251.53 61.3025 251.46 61.0525C251.395 60.7975 251.272 60.6175 251.092 60.5125C250.917 60.4025 250.665 60.3525 250.335 60.3625C250.05 60.3625 249.755 60.4325 249.45 60.5725C249.15 60.7075 248.897 60.8575 248.692 61.0225ZM256.147 67V58.6525H258.434V67H256.147ZM257.174 57.445C256.804 57.445 256.492 57.33 256.237 57.1C255.982 56.87 255.854 56.57 255.854 56.2C255.854 55.95 255.922 55.7225 256.057 55.5175C256.197 55.3075 256.377 55.14 256.597 55.015C256.822 54.89 257.062 54.8275 257.317 54.8275C257.727 54.8275 258.047 54.945 258.277 55.18C258.512 55.41 258.629 55.7075 258.629 56.0725C258.629 56.4525 258.484 56.7775 258.194 57.0475C257.909 57.3125 257.569 57.445 257.174 57.445ZM260.818 67V58.6525H262.896L262.933 59.59C263.123 59.43 263.366 59.27 263.661 59.11C263.956 58.945 264.281 58.8075 264.636 58.6975C264.996 58.5875 265.358 58.53 265.723 58.525C266.593 58.505 267.233 58.7375 267.643 59.2225C268.053 59.7025 268.258 60.5475 268.258 61.7575V67H265.963V62.08C265.963 61.43 265.878 60.975 265.708 60.715C265.538 60.455 265.206 60.335 264.711 60.355C264.561 60.36 264.391 60.3875 264.201 60.4375C264.016 60.4825 263.826 60.5525 263.631 60.6475C263.441 60.7375 263.263 60.85 263.098 60.985V67H260.818ZM270.036 66.4675L270.291 64.855C270.371 64.92 270.534 65.005 270.779 65.11C271.024 65.215 271.316 65.3125 271.656 65.4025C271.996 65.4875 272.346 65.53 272.706 65.53C273.161 65.535 273.496 65.475 273.711 65.35C273.926 65.22 274.034 65.0275 274.034 64.7725C274.034 64.5975 273.961 64.445 273.816 64.315C273.676 64.185 273.484 64.065 273.239 63.955C272.994 63.84 272.721 63.7225 272.421 63.6025C271.881 63.3875 271.434 63.1525 271.079 62.8975C270.729 62.6425 270.466 62.3525 270.291 62.0275C270.121 61.6975 270.039 61.3125 270.044 60.8725C270.049 60.3525 270.199 59.92 270.494 59.575C270.794 59.23 271.191 58.9725 271.686 58.8025C272.186 58.6275 272.739 58.54 273.344 58.54C273.959 58.54 274.481 58.5975 274.911 58.7125C275.346 58.8225 275.644 58.925 275.804 59.02L275.556 60.6625C275.461 60.5825 275.311 60.4975 275.106 60.4075C274.901 60.3175 274.669 60.245 274.409 60.19C274.154 60.13 273.894 60.1 273.629 60.1C273.144 60.1 272.789 60.16 272.564 60.28C272.344 60.395 272.234 60.5625 272.234 60.7825C272.229 61.0675 272.339 61.28 272.564 61.42C272.794 61.555 273.111 61.7075 273.516 61.8775C274.116 62.1225 274.619 62.3675 275.024 62.6125C275.434 62.8525 275.741 63.13 275.946 63.445C276.156 63.755 276.261 64.135 276.261 64.585C276.261 65.415 275.964 66.045 275.369 66.475C274.774 66.905 273.971 67.12 272.961 67.12C272.536 67.12 272.126 67.085 271.731 67.015C271.341 66.95 270.996 66.8675 270.696 66.7675C270.401 66.6675 270.181 66.5675 270.036 66.4675ZM278.721 54.01C278.866 54.105 279.074 54.2775 279.344 54.5275C279.619 54.7725 279.914 55.1025 280.229 55.5175C280.544 55.9275 280.844 56.4325 281.129 57.0325C281.414 57.6275 281.649 58.3225 281.834 59.1175C282.019 59.9125 282.111 60.8125 282.111 61.8175C282.111 62.7025 282.021 63.515 281.841 64.255C281.666 64.995 281.439 65.6625 281.159 66.2575C280.879 66.8525 280.581 67.3675 280.266 67.8025C279.956 68.2375 279.661 68.59 279.381 68.86C279.101 69.13 278.881 69.315 278.721 69.415L277.431 68.6125C277.591 68.4825 277.816 68.2425 278.106 67.8925C278.396 67.5425 278.691 67.085 278.991 66.52C279.291 65.95 279.546 65.2725 279.756 64.4875C279.971 63.6975 280.084 62.7975 280.094 61.7875C280.104 60.9825 280.046 60.25 279.921 59.59C279.801 58.93 279.639 58.3375 279.434 57.8125C279.234 57.2825 279.011 56.8225 278.766 56.4325C278.526 56.0375 278.289 55.705 278.054 55.435C277.819 55.165 277.611 54.9575 277.431 54.8125L278.721 54.01Z" fill="#323232"/>
<path d="M656.755 66.5575C656.61 66.4625 656.4 66.29 656.125 66.04C655.855 65.795 655.563 65.465 655.248 65.05C654.933 64.64 654.633 64.1375 654.348 63.5425C654.063 62.9425 653.828 62.245 653.643 61.45C653.458 60.655 653.365 59.755 653.365 58.75C653.365 57.865 653.453 57.0525 653.628 56.3125C653.808 55.5725 654.038 54.905 654.318 54.31C654.598 53.715 654.893 53.2 655.203 52.765C655.518 52.33 655.815 51.9775 656.095 51.7075C656.375 51.4375 656.595 51.2525 656.755 51.1525L658.045 51.955C657.885 52.085 657.66 52.325 657.37 52.675C657.08 53.025 656.785 53.485 656.485 54.055C656.185 54.62 655.928 55.2975 655.713 56.0875C655.503 56.8725 655.393 57.77 655.383 58.78C655.373 59.585 655.428 60.3175 655.548 60.9775C655.673 61.6375 655.835 62.2325 656.035 62.7625C656.24 63.2875 656.463 63.745 656.703 64.135C656.948 64.53 657.188 64.8625 657.423 65.1325C657.658 65.4025 657.865 65.61 658.045 65.755L656.755 66.5575ZM661.272 64V55.285C660.987 55.355 660.707 55.4175 660.432 55.4725C660.157 55.5275 659.879 55.58 659.599 55.63L659.389 54.25C659.629 54.185 659.899 54.0925 660.199 53.9725C660.504 53.8525 660.807 53.72 661.107 53.575C661.412 53.43 661.689 53.285 661.939 53.14C662.194 52.99 662.392 52.8575 662.532 52.7425L663.642 52.9L663.634 64H661.272ZM666.797 61.795L666.257 60.9025C666.457 60.4825 666.647 60.075 666.827 59.68C667.007 59.28 667.182 58.89 667.352 58.51C667.527 58.125 667.697 57.745 667.862 57.37C668.027 56.995 668.192 56.62 668.357 56.245C668.522 55.87 668.689 55.4925 668.859 55.1125C669.034 54.7325 669.212 54.3425 669.392 53.9425C669.572 53.5425 669.759 53.135 669.954 52.72H670.689L672.219 53.575C672.039 53.91 671.869 54.2275 671.709 54.5275C671.554 54.8275 671.404 55.12 671.259 55.405C671.114 55.685 670.972 55.965 670.832 56.245C670.692 56.52 670.547 56.7975 670.397 57.0775C670.252 57.3575 670.099 57.65 669.939 57.955C669.784 58.255 669.617 58.57 669.437 58.9L668.702 60.13H675.482V61.795H666.797ZM671.627 64V60.085L671.852 56.92H673.832V64H671.627ZM678.366 64.165C677.981 64.165 677.661 64.0325 677.406 63.7675C677.151 63.5025 677.021 63.175 677.016 62.785C677.016 62.51 677.081 62.2575 677.211 62.0275C677.346 61.7975 677.524 61.6125 677.744 61.4725C677.969 61.3325 678.214 61.2625 678.479 61.2625C678.899 61.2625 679.226 61.3975 679.461 61.6675C679.696 61.9325 679.816 62.255 679.821 62.635C679.826 62.91 679.761 63.165 679.626 63.4C679.496 63.63 679.321 63.815 679.101 63.955C678.881 64.095 678.636 64.165 678.366 64.165ZM681.763 59.5975C681.763 58.7425 681.893 57.95 682.153 57.22C682.418 56.49 682.773 55.83 683.218 55.24C683.663 54.645 684.163 54.13 684.718 53.695C685.273 53.26 685.843 52.91 686.428 52.645C687.018 52.38 687.583 52.205 688.123 52.12L688.671 53.5075C687.981 53.6825 687.361 53.9625 686.811 54.3475C686.261 54.7275 685.793 55.1725 685.408 55.6825C685.028 56.1925 684.736 56.735 684.531 57.31C684.326 57.885 684.218 58.4525 684.208 59.0125C684.198 59.6725 684.251 60.27 684.366 60.805C684.481 61.335 684.678 61.7575 684.958 62.0725C685.243 62.3825 685.631 62.5375 686.121 62.5375C686.526 62.5375 686.861 62.445 687.126 62.26C687.391 62.07 687.591 61.81 687.726 61.48C687.861 61.15 687.928 60.7775 687.928 60.3625C687.928 59.8375 687.861 59.4225 687.726 59.1175C687.591 58.8075 687.416 58.59 687.201 58.465C686.986 58.335 686.753 58.27 686.503 58.27C686.233 58.27 686.008 58.3025 685.828 58.3675C685.653 58.4325 685.511 58.4925 685.401 58.5475L684.928 57.3025C685.013 57.2075 685.156 57.1 685.356 56.98C685.556 56.86 685.806 56.7575 686.106 56.6725C686.406 56.5825 686.751 56.5375 687.141 56.5375C687.766 56.5375 688.308 56.6875 688.768 56.9875C689.228 57.2825 689.583 57.685 689.833 58.195C690.083 58.705 690.208 59.2775 690.208 59.9125C690.208 60.4725 690.121 61.005 689.946 61.51C689.771 62.015 689.503 62.465 689.143 62.86C688.788 63.25 688.341 63.5575 687.801 63.7825C687.261 64.0075 686.626 64.12 685.896 64.12C685.071 64.12 684.348 63.92 683.728 63.52C683.108 63.12 682.626 62.5775 682.281 61.8925C681.936 61.2075 681.763 60.4425 681.763 59.5975ZM702.711 55.645L697.146 61.555L697.251 61.0675L697.281 62.515V64H695.039V59.035V51.835H697.281V57.1975L697.191 59.7325L696.839 59.395L700.079 55.645H702.711ZM698.024 60.2425L699.539 58.69L702.974 64H700.416L698.024 60.2425ZM704.085 64V55.6525H706.162L706.2 56.545C706.395 56.395 706.64 56.2425 706.935 56.0875C707.235 55.9325 707.56 55.8025 707.91 55.6975C708.26 55.5875 708.617 55.53 708.982 55.525C709.557 55.51 710.03 55.6025 710.4 55.8025C710.77 56.0025 711.045 56.3425 711.225 56.8225C711.405 57.2975 711.495 57.9375 711.495 58.7425V64H709.215V59.08C709.215 58.65 709.18 58.31 709.11 58.06C709.04 57.805 708.915 57.6225 708.735 57.5125C708.56 57.4025 708.31 57.3525 707.985 57.3625C707.765 57.3625 707.502 57.415 707.197 57.52C706.892 57.625 706.615 57.78 706.365 57.985V64H704.085ZM711.397 58.0225L710.977 56.605C711.137 56.465 711.365 56.3125 711.66 56.1475C711.96 55.9775 712.305 55.8325 712.695 55.7125C713.085 55.5875 713.497 55.525 713.932 55.525C714.507 55.52 714.99 55.615 715.38 55.81C715.77 56.005 716.065 56.34 716.265 56.815C716.465 57.29 716.565 57.935 716.565 58.75V64H714.27V59.0725C714.27 58.6425 714.235 58.3025 714.165 58.0525C714.1 57.7975 713.977 57.6175 713.797 57.5125C713.622 57.4025 713.37 57.3525 713.04 57.3625C712.755 57.3625 712.46 57.4325 712.155 57.5725C711.855 57.7075 711.602 57.8575 711.397 58.0225ZM719.939 64.165C719.554 64.165 719.234 64.0325 718.979 63.7675C718.724 63.5025 718.594 63.175 718.589 62.785C718.589 62.51 718.654 62.2575 718.784 62.0275C718.919 61.7975 719.096 61.6125 719.316 61.4725C719.541 61.3325 719.786 61.2625 720.051 61.2625C720.471 61.2625 720.799 61.3975 721.034 61.6675C721.269 61.9325 721.389 62.255 721.394 62.635C721.399 62.91 721.334 63.165 721.199 63.4C721.069 63.63 720.894 63.815 720.674 63.955C720.454 64.095 720.209 64.165 719.939 64.165ZM724.243 51.01C724.388 51.105 724.596 51.2775 724.866 51.5275C725.141 51.7725 725.436 52.1025 725.751 52.5175C726.066 52.9275 726.366 53.4325 726.651 54.0325C726.936 54.6275 727.171 55.3225 727.356 56.1175C727.541 56.9125 727.633 57.8125 727.633 58.8175C727.633 59.7025 727.543 60.515 727.363 61.255C727.188 61.995 726.961 62.6625 726.681 63.2575C726.401 63.8525 726.103 64.3675 725.788 64.8025C725.478 65.2375 725.183 65.59 724.903 65.86C724.623 66.13 724.403 66.315 724.243 66.415L722.953 65.6125C723.113 65.4825 723.338 65.2425 723.628 64.8925C723.918 64.5425 724.213 64.085 724.513 63.52C724.813 62.95 725.068 62.2725 725.278 61.4875C725.493 60.6975 725.606 59.7975 725.616 58.7875C725.626 57.9825 725.568 57.25 725.443 56.59C725.323 55.93 725.161 55.3375 724.956 54.8125C724.756 54.2825 724.533 53.8225 724.288 53.4325C724.048 53.0375 723.811 52.705 723.576 52.435C723.341 52.165 723.133 51.9575 722.953 51.8125L724.243 51.01Z" fill="#323232"/>
<path d="M662.9 90.5575C662.755 90.4625 662.545 90.29 662.27 90.04C662 89.795 661.708 89.465 661.393 89.05C661.078 88.64 660.778 88.1375 660.493 87.5425C660.208 86.9425 659.973 86.245 659.788 85.45C659.603 84.655 659.51 83.755 659.51 82.75C659.51 81.865 659.598 81.0525 659.773 80.3125C659.953 79.5725 660.183 78.905 660.463 78.31C660.743 77.715 661.038 77.2 661.348 76.765C661.663 76.33 661.96 75.9775 662.24 75.7075C662.52 75.4375 662.74 75.2525 662.9 75.1525L664.19 75.955C664.03 76.085 663.805 76.325 663.515 76.675C663.225 77.025 662.93 77.485 662.63 78.055C662.33 78.62 662.073 79.2975 661.858 80.0875C661.648 80.8725 661.538 81.77 661.528 82.78C661.518 83.585 661.573 84.3175 661.693 84.9775C661.818 85.6375 661.98 86.2325 662.18 86.7625C662.385 87.2875 662.608 87.745 662.848 88.135C663.093 88.53 663.333 88.8625 663.568 89.1325C663.803 89.4025 664.01 89.61 664.19 89.755L662.9 90.5575ZM665.797 88L665.474 86.9725C665.879 86.7175 666.309 86.41 666.764 86.05C667.224 85.69 667.674 85.2925 668.114 84.8575C668.554 84.4225 668.954 83.9625 669.314 83.4775C669.674 82.9875 669.962 82.4875 670.177 81.9775C670.392 81.4625 670.499 80.95 670.499 80.44C670.499 79.835 670.347 79.3775 670.042 79.0675C669.742 78.7525 669.324 78.595 668.789 78.595C668.299 78.595 667.832 78.6825 667.387 78.8575C666.942 79.0325 666.589 79.25 666.329 79.51L665.527 78.2275C665.727 78.0225 665.994 77.8075 666.329 77.5825C666.669 77.3525 667.082 77.1575 667.567 76.9975C668.057 76.8375 668.624 76.7575 669.269 76.7575C670.134 76.7575 670.829 76.9175 671.354 77.2375C671.884 77.5575 672.267 77.9825 672.502 78.5125C672.742 79.0425 672.862 79.62 672.862 80.245C672.862 80.995 672.677 81.7325 672.307 82.4575C671.942 83.1775 671.437 83.865 670.792 84.52C670.152 85.175 669.422 85.7825 668.602 86.3425L673.267 86.14V88H665.797ZM674.959 83.5975C674.959 82.7425 675.089 81.95 675.349 81.22C675.614 80.49 675.969 79.83 676.414 79.24C676.859 78.645 677.359 78.13 677.914 77.695C678.469 77.26 679.039 76.91 679.624 76.645C680.214 76.38 680.779 76.205 681.319 76.12L681.867 77.5075C681.177 77.6825 680.557 77.9625 680.007 78.3475C679.457 78.7275 678.989 79.1725 678.604 79.6825C678.224 80.1925 677.932 80.735 677.727 81.31C677.522 81.885 677.414 82.4525 677.404 83.0125C677.394 83.6725 677.447 84.27 677.562 84.805C677.677 85.335 677.874 85.7575 678.154 86.0725C678.439 86.3825 678.827 86.5375 679.317 86.5375C679.722 86.5375 680.057 86.445 680.322 86.26C680.587 86.07 680.787 85.81 680.922 85.48C681.057 85.15 681.124 84.7775 681.124 84.3625C681.124 83.8375 681.057 83.4225 680.922 83.1175C680.787 82.8075 680.612 82.59 680.397 82.465C680.182 82.335 679.949 82.27 679.699 82.27C679.429 82.27 679.204 82.3025 679.024 82.3675C678.849 82.4325 678.707 82.4925 678.597 82.5475L678.124 81.3025C678.209 81.2075 678.352 81.1 678.552 80.98C678.752 80.86 679.002 80.7575 679.302 80.6725C679.602 80.5825 679.947 80.5375 680.337 80.5375C680.962 80.5375 681.504 80.6875 681.964 80.9875C682.424 81.2825 682.779 81.685 683.029 82.195C683.279 82.705 683.404 83.2775 683.404 83.9125C683.404 84.4725 683.317 85.005 683.142 85.51C682.967 86.015 682.699 86.465 682.339 86.86C681.984 87.25 681.537 87.5575 680.997 87.7825C680.457 88.0075 679.822 88.12 679.092 88.12C678.267 88.12 677.544 87.92 676.924 87.52C676.304 87.12 675.822 86.5775 675.477 85.8925C675.132 85.2075 674.959 84.4425 674.959 83.5975ZM688.257 88V79.6525H690.334L690.372 80.545C690.567 80.395 690.812 80.2425 691.107 80.0875C691.407 79.9325 691.732 79.8025 692.082 79.6975C692.432 79.5875 692.789 79.53 693.154 79.525C693.729 79.51 694.202 79.6025 694.572 79.8025C694.942 80.0025 695.217 80.3425 695.397 80.8225C695.577 81.2975 695.667 81.9375 695.667 82.7425V88H693.387V83.08C693.387 82.65 693.352 82.31 693.282 82.06C693.212 81.805 693.087 81.6225 692.907 81.5125C692.732 81.4025 692.482 81.3525 692.157 81.3625C691.937 81.3625 691.674 81.415 691.369 81.52C691.064 81.625 690.787 81.78 690.537 81.985V88H688.257ZM695.569 82.0225L695.149 80.605C695.309 80.465 695.537 80.3125 695.832 80.1475C696.132 79.9775 696.477 79.8325 696.867 79.7125C697.257 79.5875 697.669 79.525 698.104 79.525C698.679 79.52 699.162 79.615 699.552 79.81C699.942 80.005 700.237 80.34 700.437 80.815C700.637 81.29 700.737 81.935 700.737 82.75V88H698.442V83.0725C698.442 82.6425 698.407 82.3025 698.337 82.0525C698.272 81.7975 698.149 81.6175 697.969 81.5125C697.794 81.4025 697.542 81.3525 697.212 81.3625C696.927 81.3625 696.632 81.4325 696.327 81.5725C696.027 81.7075 695.774 81.8575 695.569 82.0225ZM703.024 88V79.6525H705.311V88H703.024ZM704.051 78.445C703.681 78.445 703.369 78.33 703.114 78.1C702.859 77.87 702.731 77.57 702.731 77.2C702.731 76.95 702.799 76.7225 702.934 76.5175C703.074 76.3075 703.254 76.14 703.474 76.015C703.699 75.89 703.939 75.8275 704.194 75.8275C704.604 75.8275 704.924 75.945 705.154 76.18C705.389 76.41 705.506 76.7075 705.506 77.0725C705.506 77.4525 705.361 77.7775 705.071 78.0475C704.786 78.3125 704.446 78.445 704.051 78.445ZM707.695 88V79.6525H709.773L709.81 80.59C710 80.43 710.243 80.27 710.538 80.11C710.833 79.945 711.158 79.8075 711.513 79.6975C711.873 79.5875 712.235 79.53 712.6 79.525C713.47 79.505 714.11 79.7375 714.52 80.2225C714.93 80.7025 715.135 81.5475 715.135 82.7575V88H712.84V83.08C712.84 82.43 712.755 81.975 712.585 81.715C712.415 81.455 712.083 81.335 711.588 81.355C711.438 81.36 711.268 81.3875 711.078 81.4375C710.893 81.4825 710.703 81.5525 710.508 81.6475C710.318 81.7375 710.14 81.85 709.975 81.985V88H707.695ZM718.098 75.01C718.243 75.105 718.451 75.2775 718.721 75.5275C718.996 75.7725 719.291 76.1025 719.606 76.5175C719.921 76.9275 720.221 77.4325 720.506 78.0325C720.791 78.6275 721.026 79.3225 721.211 80.1175C721.396 80.9125 721.488 81.8125 721.488 82.8175C721.488 83.7025 721.398 84.515 721.218 85.255C721.043 85.995 720.816 86.6625 720.536 87.2575C720.256 87.8525 719.958 88.3675 719.643 88.8025C719.333 89.2375 719.038 89.59 718.758 89.86C718.478 90.13 718.258 90.315 718.098 90.415L716.808 89.6125C716.968 89.4825 717.193 89.2425 717.483 88.8925C717.773 88.5425 718.068 88.085 718.368 87.52C718.668 86.95 718.923 86.2725 719.133 85.4875C719.348 84.6975 719.461 83.7975 719.471 82.7875C719.481 81.9825 719.423 81.25 719.298 80.59C719.178 79.93 719.016 79.3375 718.811 78.8125C718.611 78.2825 718.388 77.8225 718.143 77.4325C717.903 77.0375 717.666 76.705 717.431 76.435C717.196 76.165 716.988 75.9575 716.808 75.8125L718.098 75.01Z" fill="#323232"/>
</svg>
